P2
92 112
255
 144 101  86  73  67  66  42  25  26  31  40  46  53  46  35  29  25  27  38  49  52  55  57  61  59  57  57  59  59  57  56  62  62  60  58  63  70  74  77  82  85  98 106 112 114 119 124 120 114 115 117 108  93  81  71  64  66  67  74  84  99 110 114 108 102  94  87  85  81  78  76  75  67  58  49  40  37  32  31  33  27  24  25  26  25  25  25  26  27  26  26  25
 140 100  82  72  67  57  29  26  29  33  38  45  51  49  36  29  29  38  52  56  60  58  58  55  52  51  51  51  50  50  56  64  73  75  63  58  58  66  71  77  80  88 103 113 115 119 123 125 122 122 127 129 112  97  85  73  69  67  68  76  91 106 113 107  98  91  92  97 108 103  88  78  75  74  62  48  42  37  32  31  29  26  26  25  26  25  27  30  30  29  28  27
 150  92  75  70  55  45  26  20  24  30  37  44  50  49  39  39  44  53  61  63  60  56  54  52  51  50  49  50  54  55  56  58  63  73  78  78  73  69  71  74  88  94  91  98 115 118 122 125 125 122 128 129 124 107  93  85  75  69  70  71  78  89  99 108 107 110 115 104 100  96  92  79  74  74  73  65  51  42  37  33  30  30  27  24  25  26  29  31  38  40  38  36
 135  96  71  51  41  36  29  24  23  26  36  43  48  50  50  52  58  62  64  64  57  56  56  55  50  50  51  53  54  54  57  57  62  72  77  84  83  83  84  90  96 101 109 105 107 111 108 107 104 109 130 136 139 127 108  91  79  76  77  74  76  79  83  86  91 101 118 117 107  98  87  80  76  73  73  74  73  61  50  40  32  31  27  25  26  28  28  36 117 136 107  85
 142  91  50  40  35  38  37  31  31  35  39  41  46  54  57  61  65  64  63  61  58  54  53  55  55  54  53  54  59  59  61  65  67  69  74  81  81  80  85  95  97  96  95 101 107 107  97  95 103 108 116 145 152 144 120 104  90  87  84  76  72  70  70  71  74  79  87 101 117 123 110  98  83  75  73  73  74  75  68  49  38  35  32  28  26  24  23  41 171 208 205 194
 109  53  43  47  51  48  41  36  33  36  40  42  52  61  60  61  62  61  61  57  54  53  53  55  56  56  54  51  52  50  48  47  48  53  58  58  63  66  65  71  76  78  78  78  85  88  89  92  99 113 130 146 161 167 130 118 104  96  91  79  74  75  71  68  69  70  73  84 100 113 120 115 103  83  76  75  73  74  75  69  49  35  32  28  25  25  23  33 167 218 214 215
  70  51  46  59  56  50  45  41  39  39  46  55  65  65  61  60  59  58  57  56  56  56  56  56  53  48  43  41  39  39  39  41  43  46  49  52  59  61  59  61  66  69  73  76  81  91  97 101 108 121 141 158 161 192 172 148 125 112 112 103  99 100  94  87  86  82  79  81  87  99 116 116 109 100  87  81  76  71  72  75  68  49  36  30  25  24  26  59 177 196 208 219
  87  59  56  59  52  49  49  43  43  52  60  64  65  65  63  58  54  55  58  59  61  61  54  49  43  40  37  38  39  41  44  50  56  61  65  69  75  80  81  84  87  87  86  90  94 100 104 113 123 143 160 175 188 212 218 184 159 149 143 138 130 127 121 119 111 109 101  92  87  93 107 113 102  89  82  82  78  74  73  71  73  69  51  36  27  25  30 121 192 194 213 214
  94  72  59  53  46  48  52  54  57  63  62  63  66  64  59  51  53  56  60  61  60  56  48  39  34  37  39  43  50  61  68  77  83  88  92  94  99 103 107 108 107 107 107 110 116 117 124 135 144 157 181 201 220 228 238 219 187 176 160 156 153 145 140 135 136 129 125 123 112  99 100 109 104  92  81  80  78  74  75  73  74  78  72  50  35  29  51 183 217 217 216 208
  88  70  57  49  45  50  58  66  65  65  63  64  63  59  51  53  56  59  60  59  56  48  39  35  36  39  48  60  76  89  95 102 104 107 109 112 115 118 119 121 125 126 127 129 134 136 140 148 157 171 193 212 228 235 237 225 208 201 191 169 171 171 164 152 150 143 140 138 133 126 111 103 104  96  83  79  76  75  72  73  75  75  77  73  49  31  78 208 220 222 220 221
  96  70  54  46  47  56  67  69  65  64  64  63  56  49  54  59  64  62  58  57  53  41  35  35  41  54  70  84  97 106 109 111 114 117 119 120 123 127 126 127 130 133 136 139 144 149 153 159 169 184 201 216 225 233 230 225 224 220 216 198 188 187 182 175 162 150 145 136 130 132 130 113 106 101  87  80  73  72  72  68  73  74  76  80  74  46  90 184 201 217 217 219
 105  67  56  49  52  66  71  68  67  67  61  55  51  55  63  67  65  59  55  52  46  39  36  41  56  76  90 101 109 115 117 118 122 124 126 126 128 130 132 131 134 137 142 146 152 159 167 172 179 196 215 224 222 228 229 232 232 232 226 223 213 208 195 185 177 168 154 142 133 128 126 120 114 110  97  86  76  72  73  71  67  74  76  79  81  70 103 171 180 207 213 217
 107  64  56  53  61  69  68  71  70  64  54  52  59  64  68  66  62  58  51  48  44  40  43  59  76  92 101 111 117 122 124 126 130 131 129 129 131 134 136 136 139 144 149 156 160 165 171 180 194 207 218 222 224 229 230 231 227 227 228 226 221 222 220 212 204 197 183 169 150 136 126 122 118 115 108  99  87  78  73  77  66  66  75  79  81  87 113 165 174 205 216 219
  84  61  55  59  67  69  71  71  65  54  54  61  64  68  66  61  57  52  48  50  47  46  58  77  92 105 113 121 126 128 131 133 133 133 131 132 133 138 142 144 148 154 161 168 172 175 181 191 201 204 210 221 224 225 226 223 219 222 227 228 225 223 226 227 222 209 205 193 174 158 142 131 122 117 113 108 103  89  78  74  69  54  61  74  77  83 102 146 173 200 213 218
  81  71  64  68  71  71  69  64  53  53  63  65  68  70  63  59  54  48  55  53  49  58  75  94 106 116 121 127 130 132 135 136 138 139 138 139 142 147 150 157 164 166 167 174 178 179 187 196 205 205 207 212 216 216 219 218 214 212 217 218 220 221 218 220 221 220 203 196 188 179 167 153 140 130 121 115 110 104  90  76  71  55  48  63  73  79  89 122 161 184 208 216
  78  75  72  71  69  66  62  54  57  64  70  68  70  66  58  55  50  54  58  54  62  75  94 107 115 122 130 131 134 137 138 140 141 144 145 147 151 154 158 162 166 169 172 175 178 183 193 201 202 201 205 206 206 204 211 211 207 196 198 207 211 207 209 210 213 210 204 204 196 187 186 175 162 150 137 126 114 112 106  90  76  65  51  51  65  76  81 101 148 182 196 212
  78  74  72  71  66  59  57  60  66  68  72  69  63  57  52  48  50  57  58  57  77  98 109 118 123 131 136 138 141 142 143 144 145 148 151 153 154 158 165 167 170 172 173 175 178 183 190 191 194 196 198 198 196 197 199 203 202 195 189 189 196 202 204 205 203 199 198 196 197 190 189 183 170 170 162 147 126 113 108 102  91  75  60  49  50  64  71  83 113 161 200 204
  75  73  69  66  59  57  60  64  64  69  71  67  57  49  44  42  52  61  59  79  90 108 117 126 133 138 138 141 146 148 149 151 152 152 153 157 160 162 162 166 167 166 166 170 171 176 180 182 184 190 189 187 191 191 191 192 191 191 184 183 186 183 187 189 194 195 193 188 194 195 193 191 183 184 179 168 150 124 113 109 101  86  73  56  48  50  64  72  92 127 171 200
  77  73  68  62  59  60  64  64  65  67  69  60  50  45  39  45  58  64  74  89 105 114 125 137 139 143 144 146 149 153 154 154 157 156 158 160 163 163 164 166 165 165 165 166 169 172 176 179 178 182 183 185 189 189 190 190 188 185 177 178 186 184 185 186 185 190 190 187 191 195 198 198 197 194 193 190 173 150 131 118 108  97  85  70  52  43  48  62  74 102 137 165
  74  69  63  63  64  63  61  62  67  69  62  51  46  40  42  54  66  75  89 101 115 128 137 141 141 147 151 151 151 152 155 157 158 160 162 162 163 162 162 164 165 166 166 168 168 171 173 174 175 178 178 177 179 184 189 188 185 181 175 170 181 186 187 185 184 184 184 182 188 193 198 205 210 212 203 199 191 174 149 143 120 102  92  77  66  49  39  45  61  80 111 134
  68  62  60  63  63  59  57  61  66  65  51  43  37  37  49  66  74  91 106 118 129 137 143 147 150 153 154 154 154 154 156 159 160 162 164 163 166 163 162 162 163 167 169 169 170 168 166 170 173 176 177 176 178 180 179 185 184 185 185 175 177 182 182 180 182 182 182 179 178 183 193 194 200 203 206 209 205 187 164 168 154 121 104  88  75  65  53  44  46  66  94 123
  59  56  59  63  60  55  58  62  63  54  42  35  33  42  64  77  90 103 114 129 137 143 146 150 152 152 154 154 156 156 158 160 162 165 164 164 165 165 165 164 164 165 166 163 162 163 163 166 169 171 174 177 177 179 180 178 178 177 182 179 176 175 180 185 182 182 186 180 176 176 183 189 189 196 202 203 206 205 177 187 172 142 132 105  86  75  65  59  51  53  76 105
  52  55  58  57  54  56  59  60  54  42  35  33  42  63  78  91 105 120 134 142 144 150 150 152 154 155 156 158 160 161 161 162 164 163 162 163 164 164 162 162 162 161 163 162 166 166 163 164 165 167 170 171 171 175 177 175 176 178 179 177 177 175 177 176 170 167 172 177 178 177 184 191 189 186 188 194 198 200 185 194 194 174 169 142 108  85  71  66  65  58  63  82
  53  54  52  49  49  53  56  51  43  38  35  42  64  83  95 111 128 140 146 147 148 152 153 155 156 157 159 162 162 161 161 161 163 163 162 162 163 164 162 160 160 161 164 164 168 168 166 166 166 166 170 171 172 173 175 179 181 179 174 171 179 182 179 175 171 172 173 175 175 177 178 181 185 189 184 187 191 197 190 183 202 190 190 180 149 109  83  68  63  69  72  78
  52  49  45  44  47  51  48  42  39  39  48  64  84 103 118 130 141 146 149 149 151 155 157 159 160 160 162 161 161 161 161 162 163 163 164 164 164 163 161 161 164 165 165 164 165 165 166 165 168 168 169 171 172 173 177 177 180 182 181 183 186 186 180 174 171 174 174 178 178 177 178 180 182 188 187 188 189 197 194 174 201 194 197 190 173 135 103  75  59  60  69  76
  47  40  37  40  43  43  37  36  45  58  76  95 111 126 135 140 145 147 149 151 154 156 158 160 162 162 163 161 159 163 166 168 167 165 166 164 164 163 160 163 163 165 166 165 164 166 166 166 167 170 173 173 174 175 175 174 177 179 182 182 181 181 180 184 184 188 187 191 187 181 177 179 183 188 189 191 193 196 195 181 183 195 201 200 184 154 122  89  65  59  63  73
  36  32  34  37  37  34  36  48  65  82 105 119 129 136 142 146 146 148 149 152 155 157 159 162 162 162 164 163 162 169 170 169 166 163 162 159 161 162 161 162 162 165 165 167 169 170 169 170 170 173 174 173 174 175 179 182 181 182 183 188 189 187 188 194 198 200 197 196 190 189 185 179 179 184 187 189 194 197 195 190 171 191 194 201 189 170 137 107  68  60  64  69
  28  30  34  33  33  35  45  66  82 102 120 129 136 139 144 148 151 152 153 155 157 161 162 164 164 163 164 164 165 164 163 164 163 162 160 157 156 158 162 164 168 171 169 169 171 173 174 173 172 171 171 171 175 177 182 186 186 188 187 193 203 203 200 207 207 203 200 196 199 205 201 192 181 179 184 185 187 188 189 190 167 184 192 197 195 185 151 124  82  56  62  68
  27  34  39  37  37  41  58  79  99 117 128 134 140 142 147 152 154 156 157 159 161 162 163 165 164 162 160 158 155 155 157 159 159 160 157 157 155 159 165 170 173 175 173 173 175 175 176 174 172 172 173 173 174 177 183 188 190 197 204 208 209 224 218 211 210 215 217 212 208 206 204 197 191 179 178 182 183 183 185 188 180 172 194 191 193 190 168 134  96  56  57  67
  34  35  34  35  41  52  72  90 107 120 128 135 142 146 150 154 156 157 158 161 164 163 166 166 165 162 160 157 153 153 156 159 160 159 157 159 161 165 169 171 173 176 179 178 178 178 180 178 178 178 177 178 184 187 191 192 199 205 207 215 214 215 220 220 218 222 218 218 222 223 215 210 201 189 184 181 180 182 182 184 186 170 187 189 187 184 178 148 107  59  56  67
  26  26  30  38  50  65  83  98 109 122 130 139 145 149 152 154 156 159 160 164 167 167 168 168 165 163 161 158 156 156 157 159 161 158 159 161 163 168 172 174 178 181 183 185 184 183 184 185 185 183 181 181 185 187 192 195 203 205 203 208 213 211 211 216 220 220 218 218 214 211 210 209 204 198 190 186 181 177 176 178 180 176 168 186 189 182 174 152 114  63  50  62
  22  26  34  44  57  75  93 106 119 128 135 142 148 152 154 156 158 162 165 167 170 170 169 167 167 167 164 161 159 159 158 158 160 160 162 164 167 171 173 177 180 183 183 184 189 189 187 189 190 185 181 179 182 186 189 192 194 193 197 205 204 209 210 216 210 209 211 215 211 208 206 203 199 195 193 191 184 177 171 172 178 179 165 166 182 182 171 150 120  69  47  61
  24  29  39  50  64  79 102 115 123 134 142 147 151 157 158 160 159 162 167 168 170 170 169 168 167 167 165 163 162 161 160 160 162 165 168 170 172 173 175 176 180 182 181 182 185 187 183 182 188 186 182 180 181 183 186 186 187 187 179 186 191 194 202 204 200 199 199 205 203 200 203 204 201 199 196 194 189 185 179 170 170 178 175 157 169 175 172 154 127  81  47  58
  23  35  46  57  64  81 106 122 133 142 148 152 154 158 160 163 162 164 167 167 169 169 169 167 165 165 163 163 162 161 163 164 167 169 168 169 169 170 173 173 176 177 178 178 179 182 186 182 183 187 186 182 181 182 181 180 181 187 184 176 179 185 189 186 187 189 191 193 196 194 194 200 198 200 200 200 198 194 190 187 174 172 177 171 167 169 171 155 134  90  48  53
  27  42  53  56  67  89 113 128 139 146 149 153 155 159 163 163 163 165 167 168 168 166 167 166 164 163 161 161 162 161 161 166 167 167 166 167 168 169 172 172 172 173 173 175 175 175 174 177 179 176 177 175 176 177 174 174 175 177 177 174 173 172 173 172 174 175 178 176 178 178 182 189 189 191 191 192 196 200 201 201 193 177 175 176 170 167 168 161 140  96  51  52
  36  50  55  56  72  96 119 136 143 147 151 153 156 159 163 164 166 167 168 167 166 166 165 163 162 160 161 162 162 162 161 164 163 165 165 165 167 169 169 169 170 170 169 170 170 171 172 172 173 171 170 170 171 170 168 168 169 170 166 165 165 163 161 161 162 164 164 161 164 167 168 171 173 175 180 185 190 197 198 200 202 200 183 174 172 170 164 158 139 105  55  54
  43  51  52  58  78 107 130 141 146 149 152 155 159 159 163 164 164 165 164 161 161 160 161 160 162 162 160 162 162 162 161 161 161 160 161 163 165 167 166 166 166 164 165 166 167 169 172 169 167 166 166 166 164 162 162 161 160 160 162 158 154 155 154 154 156 154 152 153 153 152 151 153 156 152 157 163 175 183 183 194 198 206 196 179 173 172 168 158 135 109  60  54
  42  47  51  61  88 114 134 142 146 149 153 158 161 159 161 162 162 162 161 158 154 153 157 157 160 161 161 161 160 163 163 162 162 163 163 165 164 166 165 163 165 166 168 169 168 166 165 164 162 162 164 163 160 159 160 158 156 157 155 153 151 150 150 148 146 143 137 136 131 123 123 125 127 127 129 136 144 153 166 173 182 197 206 194 180 173 165 159 143 112  65  55
  32  40  47  64  95 122 137 143 148 151 154 160 161 161 160 162 161 160 159 158 156 155 157 157 159 160 158 160 159 161 164 166 168 169 169 169 170 169 168 167 167 166 168 169 167 164 162 162 162 162 161 158 158 159 156 154 155 154 152 151 148 146 143 136 133 124 111 100  97  98 103 106 106 114 118 119 125 128 131 147 156 167 183 191 187 177 167 161 147 124  68  57
  29  39  47  65  99 126 139 144 150 153 155 156 160 163 164 162 159 155 156 156 156 156 155 154 153 153 156 157 160 165 168 168 170 171 170 170 172 172 168 164 164 164 168 168 164 162 161 162 163 163 161 160 158 158 156 156 157 152 151 149 144 137 129 119 105  92  85  84  88  87  84  86  92  95 102 109 113 117 121 131 135 135 141 152 163 171 166 161 146 128  75  54
  28  40  47  63  99 131 138 141 148 151 152 155 157 163 162 160 158 158 158 156 155 156 151 140 135 137 141 145 154 158 157 154 151 156 154 151 155 156 153 151 152 154 162 166 162 160 159 161 161 162 164 162 159 155 156 158 155 152 147 140 132 125 116 103  91  85  87  88  89  92  94  92  92 103 111 110 110 114 117 119 122 128 138 151 158 157 166 166 156 135  74  55
  26  40  46  62 105 133 137 141 149 151 152 154 155 159 159 155 154 153 154 156 157 153 138 124 124 121 123 130 133 130 128 127 129 123 115 106 108 115 127 125 123 132 148 155 154 155 158 159 162 164 166 162 159 154 155 157 154 148 142 134 126 117 106  97  90  93  98 100 107 114 114 114 118 121 121 120 121 121 119 119 121 120 125 140 157 164 165 168 162 149  78  56
  20  38  46  60 104 132 138 141 147 150 152 154 156 158 157 154 152 151 153 154 147 132 120 118 116 115 115 117 122 127 128 124 116 107 107 106 107 112 115 115 112 115 130 136 143 151 150 156 163 167 166 162 160 157 156 152 148 143 137 132 121 110 103 103 104 106 116 119 122 125 126 127 125 123 122 121 118 116 114 115 115 113 114 124 141 159 164 170 169 158  89  58
  17  33  43  59 102 133 139 143 146 149 151 153 154 157 154 153 150 146 142 131 117 118 121 124 127 123 125 128 126 126 121 117 112 109 106 104 105 110 114 110 111 115 121 129 138 142 146 159 166 167 167 163 162 157 151 146 142 135 131 125 120 113 112 116 121 122 120 121 123 123 123 121 118 116 113 108 107 106 104 106 107 110 110 116 132 155 164 168 172 156  96  60
  12  26  37  57 100 133 140 144 146 149 150 152 153 154 154 150 144 132 121 112 115 124 131 129 131 132 139 143 144 142 138 133 132 127 126 118 115 119 121 123 124 130 132 138 141 147 158 163 170 172 170 166 163 156 147 141 138 132 126 120 116 116 118 119 117 114 113 117 121 121 120 117 112 104  98  93  92  91  91  95  98 104 105 111 123 149 166 171 174 158 102  65
  11  21  32  56  97 127 138 145 147 149 150 153 153 149 146 139 132 125 122 124 137 148 153 157 160 165 164 160 162 158 153 152 148 147 148 146 140 139 139 141 145 149 151 151 154 159 166 169 175 176 173 170 164 156 146 138 133 124 117 113 112 113 112 109 104 105 113 119 122 123 122 120 111 103  99  97  93  92  89  86  89  95 100 108 117 138 164 172 176 164 116  69
  10  17  28  56  92 123 140 145 147 149 149 152 152 146 140 134 135 137 138 147 154 158 163 164 165 170 172 167 165 161 157 154 152 147 143 139 136 133 135 138 143 148 152 154 160 162 167 173 178 180 177 172 165 156 145 136 126 117 108 106 105 101  98  98 102 105 110 118 123 123 120 115 109 104 105 106 104 104 102  90  88  92  99 108 118 134 160 175 179 172 131  72
  10  15  25  50  85 119 138 143 146 149 151 152 151 146 144 144 150 154 158 161 164 165 166 168 165 165 164 163 161 156 151 147 145 138 131 124 121 119 121 123 127 132 139 146 154 160 166 172 179 181 179 171 162 152 140 129 117 105  96  91  87  85  88  91  93 101 110 115 118 119 123 116 101  87  81  75  74  90 105 104  93  94 100 109 120 139 157 174 179 178 150  78
  12  16  22  44  81 116 135 142 146 150 151 152 152 148 147 150 156 159 160 161 163 163 161 160 160 159 156 155 150 140 134 126 119 112 108 102  93  89  81  82  91 105 117 126 136 149 163 168 175 178 178 171 160 150 135 123 113  96  85  80  78  80  85  89  93 105 114 115 115 110  93  77  53  43  48  56  56  64  78  90  91  93  98 107 121 144 159 170 178 179 158  88
  13  15  21  40  76 109 134 143 146 150 153 154 153 153 152 155 157 159 160 157 156 156 157 154 149 145 140 136 130 125 124 120 114 111 109 101  93  90  82  74  68  70  92 109 122 136 151 163 168 172 176 170 158 145 130 116 107  90  76  71  73  78  83  90  98 101 107 121 137 152 128  95  49  44  44  63  74  72  70  81  87  94 102 110 124 150 164 173 180 176 167 100
  13  13  19  40  75 102 131 140 146 150 153 154 153 156 154 157 158 157 157 154 153 151 146 136 133 135 136 139 142 138 130 120 106  89  76  71  58  62  74  74  76  76  80 101 120 131 141 154 161 166 171 165 155 144 128 114 104  82  70  68  71  74  78  79  79  96 127 145 161 172 134  95  59  39  53  77  81  76  71  78  89  98 109 118 132 154 168 176 183 179 170 105
  17  18  26  47  67  98 126 138 144 149 152 154 156 157 156 158 156 156 154 151 149 143 134 130 130 132 135 137 117  97  90  87  95  80  64  53  38  42  68  71  74  82  90  96 115 133 138 146 155 158 164 163 159 151 140 122 108  79  71  68  70  71  70  68  70  88 115 132 146 158 133  84  78  67  70  76  80  78  80  86  97 106 119 130 146 164 178 185 187 184 175 116
  21  26  38  51  66  94 125 140 144 147 152 155 157 158 156 156 156 153 150 147 142 139 132 128 125 116  99  80  80 105 123 145 164 147  85  71  41  40  73  72  65  70  99 120 129 134 139 143 151 153 157 161 162 161 158 134 114  84  76  75  73  63  59  59  62  71  99 116 128 133 130 104  76  73  71  78  82  85  90 102 113 123 133 145 163 174 186 192 191 187 180 124
  37  37  45  54  68 100 129 142 147 151 154 154 156 160 158 158 155 149 144 140 134 126 120 112  92  72  84  83 108 148 163 180 190 136  85  75  49  55  79  64  60  65  93 113 142 149 143 141 147 149 154 161 166 178 198 175 131  92  78  76  74  68  66  67  70  73  80  86  89  92  93  90  80  79  79  81  84  91 102 113 126 137 148 160 172 177 191 194 192 186 180 134
  46  43  49  55  70 102 130 141 147 152 155 154 156 160 159 157 152 142 135 126 123 115 103  85  76  82 119 120 149 159 175 181 178 148  85  80  77  76  70  75  79  87 103 119 135 144 136 136 140 143 152 163 177 192 212 214 166 112  81  77  72  70  68  68  69  71  76  80  83  85  85  82  78  83  83  88  94 101 107 120 133 146 162 176 182 184 193 194 192 184 178 147
  64  55  54  57  71 100 133 142 149 152 154 154 154 159 161 157 152 143 132 124 119 110  96  89  90 104 111 127 145 161 171 166 161 154 115  85  82  88  90  91  91  96 108 114 120 128 129 132 136 142 152 162 179 197 221 233 192 149  91  78  71  66  64  64  65  66  67  70  74  80  83  87  91  97 101 102 103 106 112 127 147 160 174 188 196 194 198 194 190 185 180 155
  79  70  68  69  75 101 130 142 147 150 153 153 154 160 160 157 151 141 133 129 122 116 113 109 114 118 115 115 117 123 120 119 117 113 108 107 104 101  97  94  94 100 105 105 113 118 119 126 132 140 152 160 173 189 219 243 215 178 117  83  73  66  64  65  66  69  72  72  75  81  86  90  95  99 102 104 107 114 126 142 164 178 188 196 202 202 197 192 186 183 176 152
  81  88  78  70  74 100 131 140 147 152 154 154 156 158 157 156 151 142 138 136 133 128 126 127 131 130 130 128 135 133 132 123 122 117 113 108 106 103 100  98  99 103 105 108 113 114 116 129 136 145 153 157 166 182 207 240 230 187 150 104  84  76  70  67  69  71  73  76  80  86  91  95  97 102 105 109 115 126 142 166 178 186 195 199 202 201 194 190 185 181 174 158
  75  88  81  75  76 100 130 142 148 153 154 154 155 157 157 153 150 145 143 143 140 137 136 137 142 144 147 149 154 152 150 143 139 134 124 115 107 105 106 107 107 108 110 114 119 122 131 138 140 147 151 155 160 178 203 231 230 202 175 129 107  92  85  78  77  76  75  79  82  86  91  97  99 104 107 111 120 135 149 165 179 190 194 195 195 194 187 183 184 180 172 165
  81  80  84  81  81 100 129 142 150 154 154 154 154 155 155 153 150 148 148 147 144 142 143 145 149 153 154 155 157 155 153 148 144 135 127 122 119 117 115 114 115 117 117 125 134 136 142 143 145 149 150 151 158 178 202 232 237 212 189 154 124 108 100  96  92  88  86  87  88  89  91  96 100 104 108 112 123 137 152 166 177 185 188 189 189 187 183 179 176 175 171 161
  92  89  95  99  98 110 129 142 151 154 155 154 152 152 153 154 151 149 148 147 146 147 151 154 157 159 159 160 160 156 152 145 139 136 134 129 128 125 125 126 128 127 132 143 148 145 149 149 147 148 148 148 159 180 200 229 242 225 201 176 141 121 112 107 103  98  95  94  93  93  95  97 101 107 111 116 127 138 149 159 170 176 177 179 181 178 172 173 170 168 167 156
 105  99 112 116 112 115 130 142 151 154 154 153 150 150 154 155 155 152 151 150 150 152 154 155 155 155 154 153 156 154 152 150 149 144 139 136 134 131 132 132 133 139 148 153 154 153 152 152 150 147 145 149 160 177 198 222 241 229 209 191 169 135 122 115 109 104 100 101 102 101 101 103 106 111 114 120 129 139 146 154 159 163 163 164 164 166 166 166 166 163 157 153
 116 108 117 123 121 121 128 139 150 154 155 153 151 154 157 158 158 155 155 154 153 152 153 154 153 153 154 153 154 155 154 153 150 147 144 139 138 138 140 139 146 153 158 159 156 153 152 152 148 145 145 148 161 177 197 218 241 235 216 204 185 161 134 122 114 109 105 105 106 106 107 109 112 116 120 125 132 137 141 144 147 147 149 152 154 155 156 158 159 158 152 154
 118 123 133 132 126 125 128 136 148 153 154 152 152 156 159 160 159 159 160 157 154 154 154 155 153 152 154 157 157 157 154 155 154 149 145 144 145 145 149 153 156 160 162 161 158 156 155 151 148 145 145 148 163 178 191 214 237 243 224 210 193 179 152 129 119 113 108 106 108 109 110 112 118 124 131 137 142 146 146 143 142 142 144 147 148 147 149 152 153 153 147 148
 114 130 139 136 130 130 130 135 145 151 154 152 152 156 161 162 161 161 163 158 156 157 159 161 160 158 160 162 160 159 156 159 158 154 151 151 149 153 158 160 159 161 162 162 159 156 154 150 146 145 146 150 164 183 190 209 232 244 232 212 197 186 165 139 126 116 111 110 109 108 110 114 121 127 133 140 147 151 150 148 146 145 145 146 146 145 143 145 147 147 141 135
 114 137 145 145 139 137 134 136 142 149 153 152 153 158 160 161 164 164 166 166 166 167 168 170 168 171 171 170 169 168 166 162 161 155 155 156 157 160 164 164 163 165 163 161 159 156 152 146 145 145 147 152 166 180 189 206 228 241 238 212 199 186 174 149 128 119 114 111 109 109 111 117 123 127 131 135 143 147 148 147 145 145 145 144 146 143 139 138 141 143 136 127
 108 131 148 152 145 138 136 137 140 147 151 151 154 160 161 161 165 169 172 173 176 175 174 176 178 181 182 180 181 176 172 166 163 161 161 161 163 163 163 165 165 165 164 163 157 156 150 141 142 145 150 156 166 181 187 196 209 226 229 210 201 189 178 157 128 119 115 111 110 110 113 119 123 128 130 133 138 143 143 141 140 139 139 139 140 135 132 133 134 134 127 116
 100 113 144 156 147 139 138 137 138 144 147 152 156 160 163 165 167 170 174 176 179 179 180 182 183 185 183 179 177 175 171 169 167 166 164 163 165 164 162 165 164 167 168 167 159 155 146 138 138 142 149 157 170 177 181 186 199 210 215 204 199 191 186 182 139 117 114 108 108 111 115 119 123 128 131 133 136 138 138 136 133 131 132 131 130 128 127 127 127 128 123 108
  83  87 123 159 153 144 140 138 139 143 147 150 154 157 161 166 169 172 174 176 178 180 181 180 179 179 177 176 176 174 171 171 170 169 166 163 167 167 166 167 168 171 172 169 166 155 139 133 134 140 149 161 170 175 177 180 185 191 196 196 194 192 191 201 188 130 111 107 108 111 116 121 124 127 129 132 134 133 132 130 128 127 124 124 122 122 123 122 122 124 118 104
  80  72  92 164 161 145 140 138 139 142 146 149 150 150 158 163 168 172 173 175 178 179 178 178 178 179 178 178 178 177 175 172 170 171 172 167 166 167 169 170 171 172 175 174 167 146 131 128 135 141 153 163 170 174 175 177 180 182 183 184 186 191 194 204 204 186 121 108 110 112 117 121 124 129 131 134 135 131 129 128 126 124 119 119 118 118 117 115 118 121 116 108
 103  84  90 158 166 150 141 141 140 141 143 146 146 149 160 164 167 170 171 172 175 177 177 180 180 181 182 179 179 179 176 173 173 176 171 168 169 170 168 169 168 166 175 178 160 139 134 136 143 150 159 167 175 179 177 176 177 176 175 172 176 179 185 195 194 194 162 108 108 111 116 121 127 133 134 134 135 132 128 125 124 122 116 114 115 115 114 114 116 120 118 112
 130 125 126 154 163 156 143 139 140 139 142 143 146 152 159 164 166 169 169 171 175 178 180 181 183 184 183 183 179 176 175 176 176 177 171 171 172 174 173 170 168 166 175 174 153 142 143 147 152 159 167 174 183 186 185 178 176 173 165 157 153 150 154 163 161 158 162 117 108 112 117 124 130 134 134 133 132 130 126 123 122 119 115 114 113 113 113 113 116 118 113 111
 153 156 154 154 158 155 144 141 141 140 140 142 145 153 159 161 163 164 168 169 176 178 178 181 182 183 183 183 181 180 180 179 179 180 177 176 175 172 171 172 170 170 171 167 154 153 155 158 163 168 170 174 180 185 187 183 176 170 158 144 131 123 121 126 121 119 130 119 112 117 122 128 133 133 131 130 130 128 125 122 121 117 115 114 113 110 111 113 115 119  96  86
 148 158 157 157 159 157 147 139 139 140 140 142 146 151 158 160 159 159 165 172 177 178 178 178 179 180 181 181 184 184 184 185 184 180 179 181 176 170 170 170 170 170 170 165 156 159 161 166 165 167 164 164 164 174 179 176 169 159 151 135 121 112 100  93 102 112 117 121 120 122 126 130 133 132 131 130 128 125 121 121 120 117 114 113 112 107 108 111 114 116  59  35
 141 145 153 157 162 163 151 140 139 139 140 144 146 149 155 158 155 155 161 169 174 177 177 176 178 178 180 183 185 183 182 184 182 181 178 178 174 169 168 168 169 169 169 163 157 159 153 146 129 121 134 150 158 163 169 168 160 148 138 124 110  87  82  97 109 113 119 128 131 131 130 132 133 134 134 134 130 124 120 119 117 114 113 113 110 106 107 110 115 112  36  32
 132 134 148 159 163 163 156 141 139 140 140 143 146 149 153 158 161 160 162 167 172 176 176 173 173 171 175 179 182 181 181 185 183 182 181 177 169 166 166 168 168 170 169 165 154 152 141 118 100  92  87 108 141 153 161 156 149 139 127 112  92  87  94 103 110 121 134 141 143 144 139 136 136 136 135 134 132 128 123 120 116 113 112 112 110 107 108 110 118 109  37  40
 112 136 147 159 164 165 158 138 137 138 141 143 146 148 152 156 161 163 165 165 167 171 174 174 171 172 173 175 179 180 181 184 181 183 179 174 170 167 167 168 168 169 169 168 159 150 142 135 137 143 141 142 146 148 155 149 139 127 114 104  97  92  93  97 112 142 148 153 152 151 149 144 141 141 139 135 133 131 123 122 118 113 111 110 110 110 110 113 121 104  28  42
  70 129 145 155 160 160 152 125 130 137 138 144 148 148 153 154 158 161 163 163 165 165 166 170 172 174 176 173 176 177 180 180 178 177 174 174 173 171 171 171 170 170 168 167 165 155 141 137 137 144 150 153 152 149 154 150 138 125 112 108 106 102  99 105 123 159 161 162 163 163 158 153 147 142 139 138 134 130 124 120 116 113 110 110 110 109 110 114 124  94  29  38
  37  94 136 143 148 148 132  90  94 131 136 142 151 150 153 154 158 161 162 163 166 166 166 170 171 173 174 173 174 176 179 179 177 176 173 173 176 174 173 173 171 168 166 165 160 158 153 147 149 148 151 160 164 168 162 154 143 131 121 121 115 111 109 110 132 167 171 173 171 172 169 164 156 146 141 137 132 129 124 121 116 111 109 109 108 109 111 114 124  84  28  31
  27  30  89 119 126 117  80  47  58 116 133 138 148 151 154 155 158 161 162 163 164 165 166 168 169 172 174 173 174 177 179 179 176 174 170 164 177 176 172 170 170 170 167 164 161 163 164 162 162 162 165 171 177 178 170 160 151 139 136 136 132 123 118 119 144 170 172 173 171 172 172 169 162 154 147 139 132 128 122 119 116 113 109 109 109 111 112 113 123  77  25  32
  19  13  22  40  45  40  37  40  46  89 131 138 146 152 155 158 159 160 163 163 162 164 167 167 167 171 173 174 175 176 178 179 173 175 176 170 176 177 172 171 170 168 165 162 162 164 167 168 169 172 175 177 182 181 170 157 152 145 149 152 146 136 128 130 157 172 173 171 170 171 171 168 163 159 151 140 132 126 124 121 116 111 110 109 110 111 112 116 123  69  22  30
  14  10  13  17  21  25  29  35  40  61 124 135 143 151 156 159 160 160 163 165 164 165 165 167 169 170 171 174 175 175 178 180 176 175 177 177 176 174 172 172 170 167 165 163 165 167 169 170 172 174 177 180 184 179 163 152 151 150 156 161 155 144 135 143 167 175 177 171 170 168 166 165 161 157 150 141 132 126 124 120 115 110 109 110 111 111 112 115 121  57  22  27
  12  12  15  15  16  18  25  34  36  43 103 132 145 152 157 162 163 161 161 166 168 167 166 168 171 171 170 172 174 174 176 178 179 177 176 177 177 176 174 172 171 170 166 170 172 172 172 175 177 176 174 177 177 169 156 147 149 150 158 164 159 150 143 151 168 171 174 172 167 164 160 156 155 153 149 141 131 125 122 117 114 110 109 111 111 112 114 118 121  49  16  21
   8  10  13  13  13  16  23  27  32  35  75 127 143 152 159 162 162 162 163 166 167 169 170 169 171 169 168 169 170 173 174 178 178 177 174 175 176 175 172 169 171 175 175 178 180 176 173 176 178 177 174 171 168 160 148 143 142 145 152 159 158 149 140 141 146 156 159 157 153 150 149 145 146 148 147 141 131 124 119 116 112 110 110 111 112 111 113 118 117  48  16  17
   9  10  11  11  13  16  18  21  34  35  49 121 142 152 159 162 162 164 165 168 168 169 171 169 170 168 165 166 168 170 172 176 175 175 174 174 174 171 168 170 177 176 178 180 180 175 173 172 173 176 175 170 164 156 149 143 140 140 144 146 140 132 123 121 121 121 124 128 128 127 128 126 132 135 138 136 128 122 118 114 110 109 110 112 112 110 110 116 107  51  20  15
   7   8  10  11  13  16  16  20  36  33  42 105 142 151 157 161 163 162 164 169 170 169 170 170 169 169 168 166 169 169 171 176 174 173 173 174 172 163 168 174 179 178 178 179 178 176 173 172 173 171 165 160 151 147 147 146 146 140 135 127 119 110 106 106 103  99  96  98 101 105 108 112 120 126 128 130 126 120 116 109 107 109 111 113 111 111 112 114  90  41  28  18
   6   7   8  11  13  14  12  22  30  28  32  79 141 150 160 163 164 164 165 167 172 172 171 172 173 171 172 168 169 169 168 172 172 170 172 175 172 169 174 177 182 182 181 176 176 173 168 163 153 146 140 138 136 134 132 132 132 127 118 111 103  97  94  91  86  82  73  70  77  86  95 107 114 119 121 123 121 120 114 103 105 108 107 110 110 111 112 114  74  32  42  19
   5   7   7   9  10   9  13  21  28  26  24  54 134 148 157 163 166 168 170 172 175 175 173 175 176 172 170 170 170 169 165 169 171 170 172 174 173 174 177 180 181 181 175 168 163 152 136 123 117 118 119 119 119 116 114 117 119 113 104  95  89  87  85  83  79  76  73  72  68  69  79  96 108 113 115 116 116 116 111 102 104 106 105 107 110 111 109 110  56  26  49  34
   7   7   7   7  10  10  15  19  28  23  19  36 124 146 155 163 168 170 172 172 173 174 176 175 175 174 169 168 169 170 170 171 171 170 170 172 173 176 178 178 174 167 157 145 131 114 105 104 104 105 104 103 104 103  99  99  99  94  92  90  93  96  95  93  90  85  82  82  79  80  87  97 107 112 110 111 112 111 108 105 105 105 105 108 110 108 106 100  41  29  35  52
   6   6   7   7   9  12  13  19  32  20  17  27 105 144 154 163 167 170 169 170 172 174 175 174 173 176 171 169 168 168 168 169 171 172 170 173 175 177 177 171 161 142 127 113 107 104 108 109 109 112 114 112 109 110 105 103 102  99  99  98  99  99  97  95  93  89  88  88  90  93  98 104 107 110 110 110 110 108 104 104 105 105 105 107 109 107 105  84  26  28  25  53
   7   7   7   6   7   9  10  18  26  17  17  22  78 141 152 160 166 169 169 169 170 175 176 174 173 174 170 168 170 170 168 170 171 174 173 173 173 174 171 160 149 134 130 121 118 117 117 119 119 118 117 118 115 114 111 110 108 107 107 104 103 102 100  99  98  96  94  93  96 100 104 106 107 109 109 110 110 107 102 102 104 104 104 106 107 103  98  58  21  26  20  32
   7   7   7   6   7   7   7  13  18  15  14  21  52 135 149 158 164 168 170 170 172 173 176 176 175 175 172 171 171 172 170 170 171 174 173 172 171 171 167 158 153 154 158 153 148 141 136 134 133 132 129 126 124 123 122 121 117 111 108 107 108 106 105 104 102 100 101 103 105 106 107 107 107 108 109 110 110 107 103 103 104 104 106 107 103  99  87  33  21  32  37  30
   7   6   7   6   6   7   7  10  12  12  14  19  31 119 146 156 162 166 168 168 165 167 173 176 176 175 172 168 169 172 171 169 166 170 173 170 163 160 163 165 165 166 167 164 157 152 148 145 140 136 133 129 127 124 121 120 115 111 110 110 113 115 116 118 114 118 116 114 111 109 108 106 105 108 109 108 108 107 105 105 106 106 107 104  99  93  67  28  21  31  28  26
   9   7   6   7   8   7   8   8  11  11  13  19  31  94 140 152 160 163 162 161 160 159 167 173 175 172 171 170 170 171 169 163 160 166 170 167 165 164 167 170 172 169 169 168 166 163 163 157 154 147 143 142 142 136 130 126 124 121 120 123 129 135 134 132 129 126 123 117 112 111 109 105 106 107 110 110 110 108 108 107 107 107 104  99  97  83  50  22  19  30  28  30
  10   8   7   8   8   6   6   8  10  10  13  18  27  76 126 146 156 159 160 161 164 163 166 172 174 170 171 171 170 169 159 154 159 164 168 167 168 169 170 170 172 171 171 170 169 169 168 165 165 161 157 154 152 147 138 133 131 128 127 131 134 138 137 134 131 127 122 115 111 110 106 105 106 108 109 109 109 108 110 110 108 105 103  98  90  56  39  17  21  36  34  34
  11   9   7   8   8   9   7   8  10  11  13  17  22  60 112 137 149 157 159 161 164 165 169 169 169 170 169 168 167 161 141 142 157 162 163 165 166 168 170 172 170 169 168 170 172 170 170 168 166 163 162 157 154 150 145 140 137 135 132 133 135 138 138 134 130 128 122 116 113 110 107 107 109 111 110 110 110 110 110 110 107 102  98  92  76  52  37  18  25  43  42  38
  11  12   9  10  10   8   7   8  10  12  15  19  23  46 100 127 144 152 154 156 160 161 163 165 167 169 169 168 167 162 148 151 160 163 164 163 164 166 168 170 170 170 168 170 170 168 170 171 171 167 162 159 156 153 146 140 138 137 135 135 136 136 134 132 129 125 123 120 116 112 110 111 112 114 113 113 112 111 111 108 103  98  92  73  55  50  37  23  38  55  51  35
  11  13  14   8   9   8   7   7   8  10  14  19  25  38  79 117 135 146 151 154 154 152 149 160 165 167 166 165 165 164 162 160 162 164 164 163 164 162 164 168 169 170 170 169 170 169 171 173 172 169 164 159 155 152 146 142 139 138 136 136 135 134 132 131 130 127 125 121 117 114 114 114 116 117 117 115 113 111 108 105 100  92  85  53  46  46  36  33  52  64  55  38
   7  11  14  12  15  13   9   8   9   9  15  19  24  35  65 106 126 139 146 148 149 143 133 146 160 162 163 165 164 163 163 162 162 162 164 165 165 164 166 170 169 168 170 170 171 172 174 173 171 167 164 161 156 151 147 141 138 137 136 137 135 132 132 132 130 128 126 123 121 119 118 120 122 122 122 119 114 110 106  99  92  88  84  44  44  48  46  40  51  62  59  41
   6   7  11  16  20  20  17  14  12  14  18  21  25  37  60  97 120 130 136 139 141 140 138 144 153 157 160 163 162 161 161 161 160 159 162 166 166 167 169 171 171 170 173 174 173 173 175 175 172 167 161 158 150 146 143 136 129 132 133 134 135 134 132 133 133 131 131 130 128 127 127 129 133 133 128 122 114 108 101  94  87  89  81  39  38  41  49  42  45  55  62  45
   4   6   9  14  20  25  24  22  16  15  17  18  25  38  57  87 116 133 133 134 137 136 136 139 147 151 158 162 162 160 160 160 157 159 161 165 167 166 169 171 169 169 172 172 173 173 174 174 171 166 161 156 148 142 137 132 126 130 131 136 139 138 137 137 137 135 136 136 136 137 139 142 145 140 130 119 109 102  94  85  86  93  78  36  33  36  41  37  39  49  65  46
   5   5   7  12  19  26  30  27  22  16  16  16  24  36  53  84 109 136 144 133 130 131 132 135 141 148 152 157 160 159 158 157 156 159 160 164 165 165 168 170 169 167 169 172 172 172 172 172 170 167 165 162 156 149 142 138 135 133 132 137 142 142 138 136 138 139 140 141 146 150 151 152 150 143 130 117 104  95  87  84  90  95  73  35  31  32  36  30  30  39  48  38
   5   4   6   6  12  22  32  31  30  24  17  16  24  37  53  81 105 134 150 145 135 131 130 131 135 141 144 150 154 154 154 154 156 157 160 164 164 164 167 169 169 169 169 170 169 168 168 168 168 167 168 166 160 154 148 144 140 138 138 138 144 146 143 140 140 144 144 146 149 153 153 150 147 140 126 110  98  89  86  91  97  99  71  35  29  27  34  27  27  33  36  38
   4   6   6   5   8  15  25  33  33  29  21  17  20  38  53  78  99 128 146 149 147 138 131 128 129 133 137 141 146 149 150 153 156 157 157 161 164 164 164 167 169 170 168 168 170 169 170 167 164 165 169 167 163 158 152 148 144 138 138 141 148 153 153 149 145 145 145 146 146 144 144 144 141 131 116 100  90  88  89  94 102 102  69  37  26  26  30  25  26  30  32  40
   6   7   6   6   6   9  16  27  36  33  27  22  20  33  50  75  96 123 143 150 153 149 141 133 129 129 131 132 136 139 141 147 151 154 155 159 163 163 163 165 167 169 169 170 172 173 172 169 164 165 170 166 164 160 154 152 148 144 143 147 153 159 159 152 145 144 144 142 138 135 134 134 129 118 102  90  88  89  93  99 105 100  62  38  24  25  26  23  23  25  28  31
   5   5   5   4   5   7  11  22  30  36  33  26  23  28  47  70  93 119 143 152 154 153 150 143 135 130 131 129 128 132 133 138 145 150 153 156 160 161 163 163 164 168 170 172 173 174 172 172 171 173 170 167 167 157 155 152 148 145 147 153 159 161 160 154 144 139 137 133 129 125 123 121 115 106  92  88  92  94  99 104 109  98  58  36  22  23  24  23  22  24  22  22
   5   4   6   6   5   5   9  14  20  32  41  33  25  27  42  64  87 114 142 151 153 155 155 154 148 135 134 133 131 131 130 132 139 144 148 151 155 157 160 159 160 165 168 171 175 176 180 178 178 176 174 167 165 160 159 155 151 147 148 154 158 159 157 153 143 138 133 127 121 114 113 110 102  93  89  91  96 100 105 110 118  96  50  33  23  22  24  22  23  25  19  20
   4   5   7   6   6   6   7   9  14  23  36  41  29  25  38  58  79 104 139 149 155 158 157 158 157 148 137 135 134 133 132 133 136 138 142 145 148 152 157 158 158 163 166 168 173 175 181 181 181 178 175 169 164 162 159 157 155 152 151 153 154 155 152 147 140 134 127 121 116 111 108 100  93  89  90  95 100 105 108 114 119  87  42  32  24  23  22  24  26  26  19  16
   5   6   6   5   5   5   6  10  15  17  27  40  35  23  32  54  76 102 136 148 157 160 160 160 160 157 148 138 136 136 137 136 136 136 139 140 142 146 154 156 157 159 161 164 169 174 177 179 176 174 172 169 165 162 161 157 155 154 152 152 151 150 145 142 137 126 119 114 109 104  98  92  90  92  97 104 107 109 111 120 116  80  44  34  28  29  24  25  27  29  20  16
   5   7   7   6   5   5   8  12  16  16  23  36  36  25  27  50  75 102 129 144 157 161 162 163 163 161 156 148 141 138 138 137 136 135 135 133 134 140 144 149 153 155 158 160 163 168 170 171 169 167 168 167 162 158 156 155 151 147 146 145 146 143 139 135 129 121 112 107 103  96  92  91  95 100 107 112 114 112 117 122 112  71  43  34  30  38  28  23  29  34  26  15
   6   7   7   5   5   7   9  15  17  16  21  34  31  28  26  46  72  97 128 142 154 159 162 163 166 165 161 154 147 141 138 134 136 133 131 132 131 132 135 139 143 149 152 155 158 158 159 160 162 162 162 160 154 154 148 146 144 140 137 137 136 134 129 122 118 113 105  99  96  92  95  95 102 108 112 115 117 118 121 120 108  68  45  37  29  35  35  25  30  34  32  19
   7   7   7   6   7   7  12  15  16  16  23  35  26  24  24  44  65 101 128 144 153 156 159 162 164 165 164 162 156 150 147 141 138 136 131 130 130 130 130 133 138 140 140 144 147 147 145 147 152 151 150 146 141 142 140 136 133 127 126 125 121 119 114 110 105 103 100  99  97  96  97 102 110 117 119 119 119 121 122 120 108  63  45  40  28  22  29  26  30  35  39  27
