P2
92 112
255
 182 119  92  77  65  56  50  26  22  25  35  48  57  53  38  30  24  20  18  20  25  31  37  41  43  44  40  39  42  45  49  50  50  53  60  78  88  79  69  77  75  72  80  81  82  91 113 115 126 146 159 161 164 135  91  94  93  80  81  79  83  93 110 122 132 140 143 134 125 121 101  71  56  54  52  50  51  45  39  40  35  31  31  32  33  33  32  32  34  34  33  33
 170 120  89  72  63  54  35  23  24  26  35  45  55  54  39  31  23  18  19  20  30  34  39  40  41  43  42  44  46  46  50  52  53  51  54  57  67  73  67  66  70  75  75  78  91 110 114 123 148 153 148 154 149 133 110  95  94  81  79  73  71  77  85  92  98 107 112 115 119 135 145 135 119  79  65  62  53  49  47  40  36  32  32  32  33  34  33  35  38  36  34  35
 184 118  77  72  62  39  26  22  21  24  32  43  53  51  39  31  22  21  21  24  30  33  40  41  42  44  47  47  47  51  55  56  55  51  53  53  50  59  67  67  65  69  89  90  86  86 116 124 138 146 144 132 131 123 111 102  93  88  84  76  71  76  94 107 108 106 105 106 108 113 124 134 156 166 144 103  83  66  51  47  36  35  33  33  32  34  36  37  40  39  45  44
 178 111  73  67  44  27  23  18  18  20  28  39  51  51  42  32  27  23  24  26  30  31  35  43  51  48  48  49  50  54  51  48  46  46  48  55  67  75  78  75  71  81  88  95 100 102 105 120 130 125 112 106 109 113 119 129 127 103  93  82  76  75  73  73  69  68  69  76  84  97 107 114 122 136 142 132 113  90  68  53  44  35  35  35  35  34  36  34  47  77  65  55
 156 124  72  47  33  27  28  24  23  22  25  36  46  49  43  32  24  25  29  26  26  30  39  44  48  46  47  45  43  43  41  38  34  36  37  35  36  41  49  62  69  72  74  80  86  94  99  98 101 100  99 100 116 123 132 151 174 136 116  96  83  76  70  65  61  57  56  62  69  83 101 120 132 126 125 119 116 110  95  75  59  48  39  38  35  33  32  30 117 223 213 186
 162 103  49  40  39  37  34  28  26  27  28  33  40  47  43  32  26  26  26  23  28  37  43  41  43  46  44  39  36  34  32  30  29  32  31  32  32  33  37  41  46  53  57  58  61  71  77  79  86  95  98 105 124 142 154 176 212 186 160 133 110  98  90  72  65  60  57  58  59  66  75  86 104 111 114 115 109 107 103 100  81  65  55  42  34  30  29  29 110 245 252 251
 103  63  41  48  52  44  37  32  28  27  28  30  35  42  41  32  28  24  24  29  37  38  38  39  42  42  38  35  33  30  27  25  26  27  27  29  33  36  38  40  45  47  55  56  58  69  78  85  92 100 113 126 144 170 196 214 232 220 201 181 141 126 115 103  95  79  67  58  53  51  56  60  69  91 105 111 107 104 106 105  98  76  57  47  37  33  32  33 118 242 249 252
  75  64  47  60  54  43  39  34  27  27  29  30  33  39  38  32  28  26  30  38  38  34  34  37  39  37  33  31  27  23  20  22  24  26  28  32  37  39  44  49  58  64  69  74  79  85  96 103 110 124 143 159 183 219 235 245 250 252 243 220 203 174 153 142 131 117 101  85  72  61  53  52  54  62  72  90 109 106  99 100  98  91  77  49  47  43  37  47 174 222 232 252
  95  81  59  59  47  42  39  35  26  26  28  29  32  35  35  31  33  38  39  38  35  36  36  35  32  31  29  26  23  20  22  26  28  34  39  48  59  65  69  74  82  86  88  93 106 115 125 137 149 159 178 205 234 250 252 253 254 255 253 245 238 222 198 186 181 167 150 136 114  99  88  75  65  58  58  57  67  90 102 104  96  90  89  83  63  52  43 101 231 242 249 252
  94  86  62  51  40  40  43  46  41  35  27  26  30  33  36  34  39  42  42  42  40  39  37  33  29  27  25  23  23  22  29  37  45  54  62  72  82  88  97 106 114 119 126 131 144 161 175 186 193 203 218 243 252 254 254 255 255 255 255 254 250 247 224 215 220 210 199 184 159 139 125 106  91  83  76  63  59  58  71  99  99  88  83  85  90  63  51 171 252 254 254 252
  93  79  59  45  38  40  45  49  43  37  26  24  31  36  39  40  43  45  45  42  39  36  32  28  26  24  22  20  24  32  42  56  65  77  92 101 108 118 129 137 148 160 171 180 196 210 212 219 228 240 248 253 254 255 255 255 255 255 255 255 255 253 249 243 241 237 228 215 206 187 161 141 122 106 101  89  70  61  53  65  93  91  80  77  90  91  80 186 242 253 254 254
 114  81  58  41  38  42  47  47  42  37  28  26  34  40  42  45  47  49  46  39  35  32  28  25  24  23  24  26  38  54  67  78  90 104 119 128 139 152 160 176 188 202 208 211 217 220 222 230 239 248 250 252 254 255 255 255 255 255 255 255 255 255 254 254 253 253 251 247 241 230 208 172 141 128 110 107  83  77  65  51  69  88  82  79  83  95  99 148 203 238 253 253
 133  81  57  39  39  44  44  39  34  35  33  31  37  41  42  46  48  49  40  36  33  30  25  23  22  25  33  44  60  74  83  96 110 119 134 144 154 166 176 191 201 208 213 212 215 221 223 231 235 242 241 252 252 254 255 255 255 255 255 255 255 255 255 255 255 255 255 254 253 251 244 218 181 147 126 113 100  85  81  69  58  70  77  76  81  90  98 119 158 208 250 253
 116  76  52  39  40  45  46  36  31  32  32  33  36  41  45  49  49  40  33  32  29  25  21  23  26  37  49  61  76  90 102 115 128 136 141 148 159 170 177 187 192 203 204 208 211 216 218 222 228 236 234 242 250 249 252 254 254 255 255 255 255 255 255 255 255 255 255 255 254 253 251 239 224 190 157 133 115 104  89  80  76  65  63  68  74  84  92 100 128 175 234 251
  87  81  52  39  38  42  50  44  37  36  33  30  35  43  49  50  41  35  31  26  24  23  26  29  40  55  66  83  94 106 119 125 131 141 148 155 158 163 163 170 173 185 186 188 196 203 206 202 211 222 230 232 243 246 250 252 253 253 254 254 255 255 255 255 255 255 255 254 252 245 242 241 237 223 196 164 132 122 111  88  82  79  62  55  64  76  87  97 101 137 188 239
  87  85  58  40  34  29  32  31  28  31  29  29  39  47  49  43  35  30  26  24  22  27  33  44  59  72  85  96 103 111 120 125 130 136 141 143 151 158 159 161 164 173 177 173 172 180 184 190 201 203 219 221 230 244 247 244 248 248 251 252 254 253 251 252 251 250 253 254 253 248 239 227 233 233 221 188 153 133 124 108  92  82  80  61  53  66  84  93  98 105 139 194
  87  85  60  38  32  27  20  15  19  26  21  34  46  48  45  36  30  23  25  23  23  38  48  63  74  84  93 101 107 114 122 126 130 132 135 144 151 158 159 162 161 167 173 172 174 172 171 184 196 199 204 209 215 229 231 243 241 236 237 236 242 247 245 242 246 248 252 253 251 247 242 229 236 246 240 221 196 165 143 130 109  93  83  81  57  53  71  90  95  97 102 143
  93  81  46  34  35  39  26  16  22  21  26  43  49  48  37  29  26  22  22  22  38  53  63  72  80  85  94 102 107 111 118 124 123 124 128 133 140 144 153 159 155 158 159 158 159 162 163 168 181 192 203 211 217 219 223 231 238 245 239 228 217 242 246 246 248 246 245 245 246 250 249 241 238 239 238 233 234 215 184 160 121 110  93  80  75  58  58  75  93  97  98 107
  80  72  45  35  35  37  31  20  24  27  42  47  45  38  29  24  21  23  23  29  51  64  73  79  86  89  98 102 104 104 109 114 115 118 120 121 125 129 142 149 150 150 154 157 160 168 157 159 170 177 182 206 211 218 226 226 232 229 243 243 229 232 242 243 238 243 242 237 243 245 245 243 241 239 237 244 248 244 223 201 173 125 113  89  77  75  58  56  81  92  94  98
  82  69  45  39  37  31  27  24  26  36  46  44  40  34  27  22  20  23  32  50  64  73  82  87  94  98  97  96  99 103 105 108 111 113 114 116 123 124 125 132 137 145 151 162 164 169 170 167 167 170 169 175 185 205 213 213 214 225 230 237 244 232 232 241 243 239 241 237 241 238 235 237 242 246 247 250 250 245 243 231 211 180 142 117  87  77  69  52  58  86  86  96
  51  50  49  42  33  28  28  29  35  44  46  40  34  25  20  20  23  32  49  66  73  79  85  93  98  99  98 100 100 103 105 109 108 111 110 107 113 116 121 129 136 141 147 150 152 150 161 165 171 170 170 178 186 194 211 219 220 215 204 203 218 230 232 232 229 233 231 238 245 245 240 235 232 233 243 248 249 248 244 240 230 218 181 157 125  85  75  62  48  59  87  86
  53  47  41  36  31  25  28  32  39  42  43  34  25  20  21  23  32  47  63  73  78  85  90  93  99 102 103 102 101 101 102 104 102 105 106 106 115 125 129 130 136 140 146 150 156 156 157 161 169 176 175 182 188 193 197 205 219 227 232 228 233 237 234 233 235 236 232 236 238 239 237 240 238 235 234 242 243 246 249 242 233 224 211 178 160 126  88  72  59  50  70  84
  39  48  44  35  27  25  30  32  40  42  39  28  19  21  24  30  44  59  70  75  83  90  96 100 102 106 102  99  97  98  99 100 103 109 113 112 119 131 136 141 146 150 157 166 173 169 168 175 181 183 184 192 188 199 202 209 221 225 232 227 223 231 230 222 214 217 225 232 232 236 244 236 230 234 238 237 237 238 241 244 242 234 221 210 172 152 127  95  67  55  54  75
  40  46  44  31  25  25  29  38  42  39  32  24  22  22  30  41  58  68  73  77  83  91  96 100 103 104 100  96  98 105 110 115 119 121 123 121 127 140 150 158 169 164 168 176 180 176 178 182 182 179 179 190 199 203 216 222 227 228 234 241 237 236 242 247 246 241 236 240 244 241 243 241 232 229 233 229 225 231 236 236 243 242 235 227 207 174 158 133 100  69  54  53
  49  50  46  33  28  31  34  40  40  34  28  22  19  26  39  56  68  72  74  74  81  88  92  99 102 105 105 105 113 123 129 129 136 138 143 147 152 162 166 173 182 178 178 186 187 184 180 181 184 188 188 192 198 206 217 226 234 242 244 250 251 249 252 253 254 254 254 254 252 250 243 242 240 233 236 232 229 222 224 230 235 240 241 240 234 221 177 151 129 102  69  50
  61  57  53  40  37  39  42  41  35  28  20  18  21  37  54  65  69  71  73  76  80  85  89  95 102 108 112 114 118 122 128 136 144 151 160 162 165 176 184 189 196 199 196 196 197 204 202 202 198 200 203 213 219 221 229 237 244 251 251 250 253 254 254 255 255 255 255 253 252 252 248 244 243 237 236 235 233 231 227 229 228 235 244 245 243 240 221 178 146 121  93  74
  72  72  64  49  43  44  44  37  27  20  18  22  36  52  62  69  71  71  73  74  78  81  84  90  99 108 115 120 124 131 139 148 157 162 169 175 177 181 190 193 198 204 212 216 211 211 217 214 205 201 213 213 221 226 234 238 239 251 254 254 254 255 255 255 255 255 255 255 254 254 253 252 249 243 240 237 233 231 233 231 226 229 242 244 247 243 239 222 183 144 115  92
  89  80  66  49  46  42  37  29  21  20  22  30  47  59  67  72  71  72  73  73  74  78  83  89  98 105 118 127 138 146 151 158 165 166 166 170 177 180 191 199 199 200 202 213 214 212 224 222 213 201 205 211 218 225 231 229 232 248 253 254 254 254 254 255 255 255 255 255 255 255 255 254 252 246 241 236 233 231 230 228 228 227 233 239 244 245 243 234 212 180 134 113
  76  70  54  48  46  39  31  23  22  22  28  39  54  64  70  72  72  72  72  72  72  75  81  89  97 109 121 134 146 153 154 157 159 165 168 165 168 171 176 189 190 192 197 209 211 210 216 215 212 206 204 208 210 212 224 226 205 219 243 249 252 253 254 255 255 255 255 255 255 255 255 254 253 250 242 237 232 228 225 223 223 227 229 233 236 241 243 241 226 197 156 129
  60  58  53  50  44  33  23  20  24  27  38  51  64  70  73  73  73  72  71  72  71  75  81  90 101 114 124 132 137 143 145 147 148 152 161 160 157 157 160 166 175 182 189 192 196 202 204 199 196 194 200 205 194 203 202 220 219 209 222 232 238 246 252 254 254 255 255 255 255 255 255 255 254 252 249 244 238 231 225 221 221 224 228 229 231 236 237 236 234 217 179 144
 104  87  70  60  44  27  23  22  25  32  44  61  70  73  73  72  72  73  72  71  73  77  84  94 106 117 123 128 131 136 136 136 138 142 146 146 143 141 143 141 153 160 167 182 182 181 179 179 171 167 172 179 174 187 186 193 194 191 195 198 211 220 231 245 248 251 254 255 254 254 255 255 253 253 250 244 244 235 229 227 221 221 223 227 230 230 230 234 233 225 196 160
 114 108  79  69  37  23  25  24  27  34  47  63  70  73  73  70  70  71  72  72  76  82  93 102 110 119 124 124 123 127 127 120 122 124 126 128 126 123 125 123 130 142 147 153 154 156 155 154 149 143 145 149 151 156 154 156 158 160 168 167 174 191 200 211 222 222 231 240 246 247 253 254 255 254 252 250 247 240 235 229 224 222 224 226 226 225 221 225 228 227 209 172
  58  62  53  42  25  24  26  25  30  40  54  64  70  73  72  70  68  70  71  72  81  91  99 105 110 116 117 114 111 107 103 106 104 104 101 102 104 108 107 105 109 116 120 125 125 129 135 134 130 125 128 129 133 133 133 131 128 124 136 138 146 153 163 168 176 189 196 208 218 227 238 243 250 250 249 249 250 247 242 234 226 224 225 221 220 220 222 220 217 219 213 180
  67  57  53  40  24  26  26  26  31  44  59  67  70  70  70  70  69  69  69  73  86  95  98 100  99  99 102  97  91  85  85  87  87  92  95  91  89  90  92  88  91  98 100 105 109 109 115 118 115 114 111 113 122 119 120 113 110 109 110 114 118 120 125 131 138 149 164 167 174 191 207 214 221 234 240 247 250 250 249 244 237 227 222 218 216 212 218 219 216 210 210 188
  98  80  68  33  26  28  24  23  32  48  62  69  70  70  68  68  69  69  72  79  84  86  89  91  88  82  79  73  75  77  74  74  78  79  76  77  78  80  78  77  78  81  84  87  92  96 100 101  99  98  93  88  98 103 102 103  98  94  92  91  93  97  95  96  98 109 117 126 130 141 149 167 171 193 216 227 234 247 249 247 245 233 222 218 216 208 213 216 213 209 203 190
  95  85  66  27  27  25  20  22  34  51  63  69  69  68  69  68  68  72  77  79  77  75  76  73  70  63  58  56  61  64  62  61  62  61  58  56  58  61  64  67  68  72  75  77  79  82  84  85  83  81  83  82  85  88  86  86  88  83  81  79  77  73  69  67  65  68  75  85  98 111 119 129 139 154 174 201 218 234 235 246 246 241 234 224 215 216 211 215 210 207 203 195
  79  72  50  25  25  24  19  22  38  55  66  68  69  69  67  68  70  73  73  72  75  70  65  58  56  56  52  48  45  45  45  44  41  42  43  44  45  46  50  57  61  63  69  72  75  75  76  77  76  77  80  80  79  81  81  80  77  73  71  67  65  59  57  56  57  62  62  63  69  80  95 109 115 133 142 157 168 182 210 226 236 242 242 230 220 215 209 208 205 206 200 188
  68  61  37  23  24  22  17  21  40  55  64  69  70  68  68  67  70  68  66  64  62  61  54  48  50  51  46  42  40  37  36  36  34  35  37  36  36  38  39  44  49  52  58  63  68  71  71  73  74  77  78  77  77  78  77  76  73  70  68  63  60  57  54  53  55  55  54  55  57  60  63  76  87 101 115 125 144 156 167 197 210 224 237 233 224 210 206 204 205 204 203 188
  59  53  32  24  24  21  18  22  42  57  64  66  67  67  66  67  65  58  54  54  53  51  48  46  47  48  46  43  40  41  40  39  35  33  33  34  37  39  38  42  45  47  55  60  63  67  69  72  73  76  77  73  75  75  73  72  70  69  66  65  61  58  58  58  57  57  57  55  57  58  60  66  73  77  79  91 104 117 139 161 172 187 214 230 226 215 208 205 202 203 197 186
  56  48  30  19  22  19  17  24  43  55  64  66  67  67  67  63  57  54  53  52  53  52  50  50  51  50  49  46  46  47  46  44  41  39  39  39  39  39  42  45  45  47  50  53  57  62  66  68  69  72  75  74  76  74  73  71  70  67  65  64  64  63  64  64  63  63  65  61  59  61  64  67  70  71  74  80  87  93 104 123 139 164 177 193 216 221 213 204 195 197 195 186
  53  47  30  17  19  20  16  22  44  56  63  65  65  65  63  58  54  51  49  47  48  50  50  51  49  50  48  46  46  46  43  41  40  40  41  42  41  43  44  43  45  48  49  51  54  58  63  66  68  73  75  77  78  77  75  73  73  72  70  67  65  66  66  66  65  63  63  63  60  62  64  65  66  70  73  75  78  82  92 101 115 135 160 186 197 206 209 202 195 193 190 184
  50  42  30  16  16  16  16  27  48  58  63  65  63  60  55  50  47  46  48  50  55  57  56  52  50  49  46  42  39  38  38  35  34  36  35  34  37  39  40  43  43  44  47  50  54  56  60  64  67  73  78  80  81  82  80  77  74  72  72  69  67  63  59  59  59  57  54  54  55  56  59  62  65  73  81  90  93  97 101 111 112 112 125 153 186 195 198 198 188 187 185 179
  47  41  30  18  16  17  17  28  48  58  63  64  55  51  48  49  51  53  53  53  53  52  49  49  50  49  47  44  41  39  39  35  33  35  32  30  31  32  34  47  71  48  44  48  53  56  61  64  67  73  77  79  81  83  82  77  69  64  57  51  52  51  46  48  52  56  55  55  52  51  55  57  62  65  69  78  89 111 134 178 177 154 136 138 153 184 187 187 185 178 181 177
  47  42  31  18  16  17  17  27  50  60  58  51  56  61  63  60  57  55  54  53  49  45  43  47  52  52  50  45  43  40  39  38  36  34  31  29  27  29  32  36  48  46  39  43  48  53  58  64  72  79  85  82  80  80  77  69  61  54  54  53  51  44  41  39  38  42  43  46  48  54  57  67  73  77  74  73  68  71  71  73  79  87 103 112 114 135 173 186 182 180 178 178
  48  44  31  17  16  20  23  33  47  53  51  57  65  65  65  61  55  53  50  47  44  45  50  55  54  50  42  37  35  31  29  32  33  36  35  31  27  26  29  34  35  39  39  40  40  45  50  58  67  73  80  73  69  69  74  68  63  60  58  51  44  35  32  32  38  40  41  42  42  43  48  59  67  78  85  86  88  86  76  68  73  77  84  91  92  86  92 130 176 184 187 183
  45  44  32  18  15  23  37  40  42  41  44  59  66  64  62  59  54  50  46  42  47  52  53  51  46  41  39  35  31  24  22  25  27  29  33  33  32  29  27  27  29  32  34  33  32  32  39  51  55  63  69  59  46  41  51  64  59  57  52  47  39  33  33  36  40  43  43  39  34  37  41  47  53  62  75  86  98 102 101  82  71  72  75  86  93  94  90  77 128 185 188 185
  41  40  34  19  16  33  40  40  41  38  45  63  65  64  60  57  51  48  45  45  51  51  47  46  45  43  42  38  33  24  22  27  32  33  31  33  33  31  30  29  30  32  33  31  32  36  53  67  79  87 110 111  74  60  54  52  60  57  51  46  42  43  44  43  40  41  41  35  32  34  37  41  53  61  68  72  79  91 101 101  88  77  76  80  86  91  96  87  71 103 108 109
  41  38  30  17  20  35  40  40  43  38  46  62  61  59  58  56  51  48  48  47  44  41  42  46  48  48  44  40  34  25  25  31  34  34  35  38  34  29  30  31  32  32  34  32  33  39  69 109 155 176 132 112  90  64  60  55  63  56  49  45  41  41  41  41  40  38  37  33  30  28  34  45  54  64  73  73  71  73  83  92  98  93  84  83  85  89  96  96  69  78  79  75
  42  38  28  16  20  33  37  37  42  39  47  59  58  56  55  53  51  52  50  43  37  40  46  49  52  53  47  41  33  26  23  30  36  33  37  40  37  31  28  31  34  36  36  32  32  51 123 196 234 251 236 149  95  62  54  50  57  52  47  46  40  38  39  43  44  40  38  32  27  29  36  51  62  71  81  79  74  69  69  76  86  97  94  90  89  91  97  96  65  81  96  82
  40  38  27  14  17  26  29  31  42  41  47  56  56  54  50  49  48  46  42  39  39  41  47  55  58  58  52  45  38  32  30  34  36  38  41  40  37  33  31  31  36  41  38  31  34  78 149 203 241 252 252 220 115  55  51  51  57  59  55  47  39  38  44  51  53  50  45  46  40  38  41  56  68  83  89  87  83  76  67  68  72  87  92  93  91  92  99  99  64  82 100  86
  43  38  25  15  16  23  29  33  52  47  47  54  53  49  48  47  45  42  41  40  40  40  47  55  57  57  54  50  42  37  36  40  42  44  44  41  39  36  33  33  38  43  35  28  42  89 142 195 241 253 252 239 169  61  43  51  63  65  57  50  41  39  45  51  54  55  51  48  45  42  46  56  76  86  88  87  85  79  72  70  73  82  86  89  91  95  99  97  65  86 113 110
  41  37  23  15  16  21  24  30  44  41  41  48  51  48  46  44  41  42  45  42  42  44  46  50  52  52  53  52  46  42  42  45  46  43  41  40  37  34  33  34  36  39  32  30  56  93 146 198 240 252 251 239 214  98  42  49  61  62  58  51  45  42  43  46  49  50  49  47  44  44  50  61  68  72  73  73  74  74  75  79  86  92  93  93  94  99 105 101  81 161 180 185
  42  38  25  15  16  21  21  20  33  37  39  45  48  48  45  42  44  46  47  46  47  47  46  46  47  47  44  46  45  42  43  43  40  38  35  34  33  32  32  32  35  37  31  43  68 104 163 209 244 253 251 235 225 156  58  49  55  56  53  47  42  41  43  47  49  49  48  49  49  50  54  60  61  66  68  72  73  74  81  92 103 107 107 103 102 107 116 110  89 171 176 181
  41  36  27  16  16  16  19  23  39  41  38  44  50  49  46  46  47  48  48  48  50  51  53  52  52  49  46  48  46  42  41  40  38  37  35  34  33  33  32  33  36  34  36  57  76 129 180 223 250 254 252 242 231 202  93  54  57  56  53  47  43  44  47  49  51  51  51  55  56  57  62  63  65  71  72  73  76  81  88 100 110 113 118 120 121 124 126 105 104 176 181 183
  42  35  25  14  12  11  17  35  54  52  39  41  49  50  49  48  47  47  50  51  54  55  57  55  54  52  49  48  47  44  42  39  38  37  38  38  37  37  34  33  34  35  49  68 103 158 196 232 251 253 252 249 237 224 146  69  57  58  56  50  49  49  50  53  53  51  51  58  56  59  65  65  67  73  74  74  76  82  88 101 116 119 123 127 133 138 140  98 140 193 193 188
  41  35  30  33  35  25  22  44  62  64  50  47  59  56  54  52  48  47  51  52  53  54  55  54  54  53  50  48  47  46  43  40  40  41  40  39  40  40  39  35  29  36  57  80 130 164 209 240 253 254 253 251 236 229 190 101  51  61  62  56  54  54  56  56  53  54  56  58  57  58  62  65  66  68  70  73  75  80  85 100 113 123 131 142 154 161 141 104 188 213 213 208
  39  35  49  61  56  47  36  51  64  65  64  58  60  79  83  79  66  60  57  55  55  54  52  51  51  52  51  51  50  49  46  45  45  45  41  38  40  39  37  33  33  47  66 102 154 177 213 243 252 253 252 251 240 235 215 137  72  54  60  65  65  59  57  58  58  56  56  58  61  60  62  65  67  69  71  76  79  81  88 106 126 144 158 169 171 139 100 156 223 224 221 214
  39  38  45  56  59  53  45  56  66  68  68  67  67  61  57  52  49  48  51  49  49  47  46  46  46  49  49  48  45  44  42  39  38  33  33  30  33  34  36  38  42  53  81 127 165 187 213 244 253 254 252 249 244 234 224 171 101  76  86  91 118 127 111  97  86  75  66  63  66  68  68  70  73  77  80  87  96 102 109 126 137 144 135 122 110 124 186 229 227 227 225 210
  36  37  39  42  56  54  43  58  68  69  69  67  70  68  65  61  58  55  50  47  47  45  45  41  42  38  39  36  38  38  36  36  36  37  40  42  42  41  39  41  50  65 106 143 166 175 205 240 253 253 251 247 242 234 227 204 128  93 106 155 141 110  96  91  93  91  84  75  75  76  75  74  72  78  82  81  88  92 103 118 141 160 186 213 237 242 238 234 226 226 221 205
  35  34  39  35  51  56  43  59  69  67  66  66  68  71  69  65  61  59  58  55  52  51  51  51  48  48  47  44  41  42  43  44  45  44  45  43  44  43  41  45  52  76 116 136 154 166 189 224 251 253 250 243 238 229 223 215 154 102 102 130 173 164 133 113 104  93  85  80  72  72  76  81  86  95 106 125 153 182 201 226 236 233 240 243 243 239 236 231 221 216 210 191
  32  30  34  30  45  56  50  61  70  67  67  68  68  71  69  65  63  63  63  59  58  56  54  53  53  50  47  46  45  45  46  48  48  47  42  41  44  44  44  46  52  83 109 121 136 149 161 188 228 243 237 233 231 225 213 210 178 116 101 103 132 175 183 155 137 125 115 105  94  92  93  95 102 115 125 147 167 185 199 217 223 227 229 227 228 227 223 220 216 207 197 164
  29  28  35  30  44  54  54  62  67  67  68  67  69  71  67  66  67  69  68  65  63  60  58  56  54  50  50  49  50  49  49  49  48  47  45  45  45  44  45  47  59  78  93 103 114 124 138 153 184 214 224 227 226 222 215 210 192 131 102 102 113 144 169 183 174 149 140 131 122 116 113 112 112 117 124 142 157 175 189 195 204 203 214 213 216 216 214 209 207 196 177 156
  28  27  34  34  52  54  53  61  65  67  66  66  69  67  67  68  69  69  68  66  65  63  59  58  55  54  55  53  53  51  49  49  50  49  48  47  47  46  46  57  73  72  77  82  90  95 104 120 140 164 193 214 223 222 223 225 217 154 106 103 110 130 149 165 180 189 172 164 154 150 147 150 141 138 131 135 141 149 157 165 171 176 182 192 196 191 196 196 193 178 157 152
  26  28  39  48  57  53  52  59  64  66  66  66  66  66  66  66  67  67  67  67  64  62  61  60  58  56  57  57  55  52  51  51  50  49  48  49  49  48  66  99  72  63  65  69  73  77  83  91 103 120 143 169 192 214 230 236 239 216 130 106 112 127 147 159 164 171 186 194 190 183 178 172 172 169 162 157 153 142 141 146 149 153 161 168 173 178 177 179 172 155 153 158
  25  31  50  59  57  48  51  59  64  66  66  65  65  66  65  64  65  66  68  68  65  65  66  64  61  59  58  58  56  52  53  53  52  51  50  49  51  62 103  83  63  58  57  59  64  68  71  75  83  96 109 121 141 175 205 225 236 239 206 115 112 121 141 154 162 165 167 176 189 192 195 187 179 177 168 164 159 152 148 146 145 148 151 154 160 161 165 165 156 147 150 160
  24  36  58  59  49  41  49  60  64  65  65  65  65  64  62  60  63  67  68  71  69  66  64  63  60  60  60  57  56  52  52  52  51  51  49  50  55  81  79  65  58  52  51  54  59  63  67  70  77  84  93  98 109 122 140 169 184 200 214 168 108 112 124 138 149 160 158 166 170 176 180 182 181 174 165 162 159 157 157 154 149 148 146 146 146 147 149 154 144 141 147 159
  23  40  59  54  45  48  58  62  64  64  63  62  64  62  60  62  64  67  72  72  69  64  61  59  57  57  58  57  55  53  51  50  52  49  46  48  56  64  59  56  49  45  49  52  56  58  61  65  71  77  84  92  95  97  98 106 114 126 158 186 114 108 116 129 138 144 151 155 158 162 165 164 164 172 170 161 154 156 154 153 146 145 148 144 139 141 139 138 138 140 146 155
  22  44  56  49  51  62  63  61  61  62  64  64  63  63  59  62  63  67  71  68  63  61  60  58  57  58  57  54  53  53  53  52  51  48  46  47  51  53  50  42  32  29  35  45  53  56  59  62  66  73  78  69  54  42  34  40  57  79 105 152 127 105 109 123 134 137 141 144 144 146 150 151 151 154 159 161 145 140 136 133 136 140 145 142 134 129 127 129 134 138 146 148
  25  48  49  44  57  65  62  61  62  61  63  64  60  59  58  61  64  65  65  63  61  60  59  59  59  56  56  55  55  54  53  52  49  50  46  43  48  48  41  31  18  13  13  23  42  53  57  61  66  74  67  38  21  17  16  23  39  63  84 123 122 102 103 113 125 131 131 131 133 138 138 140 144 139 140 149 140 126 122 123 125 128 130 130 128 125 120 124 128 138 146 146
  28  50  44  37  54  65  65  62  62  61  62  64  59  57  59  59  61  62  60  57  59  60  57  56  57  56  56  56  56  55  52  52  49  47  43  43  46  45  38  30  20  14  13  23  39  51  54  59  68  75  70  51  30  21  21  27  39  56  78 107 111  99  97 101 113 124 128 126 128 130 129 131 136 134 128 131 129 119 112 112 112 114 112 117 117 118 118 121 127 137 146 146
  35  48  41  38  45  63  65  62  62  62  62  60  57  57  58  59  59  58  57  55  57  58  57  54  55  56  55  54  55  55  52  52  50  48  45  45  47  43  39  34  29  24  25  33  40  48  51  54  65  73  72  65  57  48  44  43  49  61  78  97  99  97  97  99 106 117 123 122 122 123 123 124 126 126 119 119 117 111 106 105 104 103 105 109 112 114 116 119 125 133 141 143
  38  45  39  36  39  60  62  60  60  60  59  58  55  55  55  57  56  57  55  53  55  56  55  55  56  56  54  54  54  52  51  50  49  47  47  48  46  41  38  37  35  33  37  40  41  44  47  54  62  70  73  71  69  65  61  58  58  68  85  99  99 100 100 100 102 110 118 122 122 121 117 118 117 117 114 111 109 106 102  99  98  98 100 105 107 113 115 118 123 130 137 139
  38  46  42  37  39  59  59  59  60  59  58  59  57  55  55  55  55  53  53  52  53  54  54  54  55  54  55  52  53  52  52  52  52  48  49  50  49  45  39  36  35  35  39  43  46  48  49  56  62  69  75  76  75  71  68  64  67  78  95 109 106 104 104 103 103 109 114 119 122 122 121 119 115 112 112 109 105 102  96  95  97  97 100 103 105 107 108 113 123 130 135 137
  40  54  47  40  40  54  54  58  61  60  61  59  58  55  54  52  52  52  53  53  53  53  53  52  51  52  54  51  51  52  52  51  52  51  51  49  49  47  43  40  38  41  45  48  50  52  52  57  62  70  75  80  82  82  83  83  86  97 114 122 116 110 107 107 109 111 116 118 119 120 121 123 115 113 111 109 103  98  95  94  95  97  99 102 105 106 106 113 121 128 133 139
  34  54  58  53  53  56  50  54  59  62  60  57  57  55  54  53  52  53  54  54  53  54  54  53  53  53  54  52  53  54  51  51  49  49  51  53  50  48  47  48  46  46  49  50  52  53  54  57  59  65  70  78  84  88  91  94  98 112 130 133 127 120 114 112 112 113 119 124 125 122 122 127 126 119 111 107 104  99  96  93  96  98  97  99 104 107 108 114 121 127 134 137
  17  40  61  62  60  55  46  49  57  61  60  58  57  56  54  53  53  50  52  53  52  52  51  53  53  52  52  48  50  51  51  52  52  53  52  52  52  50  49  50  50  50  51  52  53  55  54  54  57  59  66  74  80  86  91  96 107 129 148 142 136 129 121 117 116 117 122 130 134 135 130 126 129 129 118 110 106 101  96  95  97  97  97  97 100 106 112 115 120 126 135 139
  13  23  50  57  56  51  46  45  55  61  61  60  57  56  54  52  51  50  51  53  52  53  54  54  54  53  53  52  50  49  52  55  54  55  53  52  54  54  52  53  54  53  53  56  59  60  56  55  56  57  60  68  76  83  91 101 118 153 165 149 140 133 126 123 121 120 124 133 137 138 138 131 131 132 127 118 110 105  99  98  97  97  96  96  96 104 110 115 119 126 133 142
  12  16  43  53  55  52  47  45  50  58  60  59  56  55  54  52  49  50  49  49  51  52  55  53  54  54  54  54  53  52  55  55  56  54  52  54  55  54  53  56  55  55  54  57  63  61  58  56  54  53  57  65  74  84  93 110 141 172 182 163 146 136 130 126 124 123 124 134 142 142 140 137 133 133 130 123 115 110 103  97  96  96  97  92  91 101 107 113 118 125 134 142
   9  13  35  52  56  54  48  44  45  54  60  59  56  56  54  52  51  50  51  50  53  55  56  53  54  55  55  54  54  56  58  57  56  56  57  57  55  55  54  56  54  53  55  56  59  61  59  58  55  52  57  63  73  82  97 123 163 179 187 175 153 138 131 126 124 126 125 136 150 148 144 139 136 134 130 123 115 112 107  99  97  97  97  94  97 104 108 113 119 125 137 144
   9  12  27  53  56  54  49  43  44  53  58  58  55  56  56  54  53  53  51  51  54  56  55  54  56  55  54  53  52  54  56  57  57  56  56  55  54  54  54  55  54  53  52  53  53  58  58  59  58  56  58  63  68  73  83 104 138 163 176 177 161 142 132 124 121 122 122 133 146 152 149 142 137 131 129 121 115 112 108 102  99  98  97  99 101 104 107 111 119 127 139 145
  10  11  22  51  55  54  48  41  43  53  59  57  54  54  55  55  55  55  53  52  52  55  57  57  57  58  56  54  53  53  54  56  55  53  54  52  54  53  52  50  48  46  45  46  47  50  53  55  57  56  59  61  60  62  65  74  93 115 134 151 156 138 128 122 117 118 119 126 137 147 149 146 138 132 126 120 114 111 109 106 101  97  97  99 101 103 105 109 118 130 143 149
  10  13  18  42  51  49  44  38  37  53  60  57  54  54  53  52  54  54  52  49  52  53  57  56  56  56  56  55  52  52  53  53  51  51  53  51  51  50  46  43  42  40  40  40  41  42  44  47  48  50  55  53  53  53  55  60  63  67  82  98 118 120 118 114 110 111 114 120 130 140 143 144 138 135 131 121 114 110 108 106 103  99  97  97 100 102 106 111 120 131 145 148
  10  11  12  29  44  42  38  34  32  48  59  58  55  55  54  52  53  53  52  51  53  56  57  57  56  56  57  55  53  53  54  54  51  50  50  46  44  41  36  36  36  35  36  35  36  37  39  42  43  45  47  46  47  48  48  49  50  51  53  59  70  85  94  98  99 104 108 113 127 141 142 139 134 132 130 121 115 112 109 107 104 102 100 100 102 103 107 113 124 136 147 142
  10  11  10  13  26  32  30  26  25  47  59  58  57  56  56  55  54  54  53  51  52  55  56  56  56  55  56  54  53  51  52  51  48  45  43  39  35  32  30  29  29  28  29  30  31  31  32  37  38  38  39  38  37  38  37  39  40  42  45  45  50  59  68  77  81  90  98 103 114 132 140 135 132 130 125 122 117 114 110 106 105 103 101 102 103 103 107 112 123 136 147 134
  11  12  11   8  10  14  13  12  16  45  58  57  55  57  56  55  54  52  54  53  54  56  57  57  55  55  55  54  52  50  49  47  43  37  34  28  26  23  20  24  27  26  25  25  28  27  28  28  29  30  32  33  33  32  35  35  35  38  39  37  39  42  51  59  65  73  84  92 102 114 130 130 130 126 118 115 114 113 110 108 107 104 103 104 104 107 108 114 124 137 149 109
  11  12  11   8   9   8   8   8  12  41  59  57  56  57  58  56  53  52  55  55  53  56  58  58  57  56  54  52  50  48  45  41  36  29  23  19  19  22  23  27  32  32  32  32  32  32  32  34  34  34  37  39  40  39  42  44  46  48  48  50  49  43  42  45  51  60  73  82  93 104 116 124 126 123 116 114 113 113 110 108 108 105 104 105 107 108 110 114 124 140 148  81
  10  12  10   9   8   7   8   8  11  38  59  59  58  57  58  57  56  54  54  52  53  53  55  56  57  54  52  51  48  46  42  37  31  29  26  25  28  30  29  31  34  34  36  37  37  37  39  38  38  40  43  44  45  43  45  48  52  55  56  58  61  59  52  46  46  53  66  72  82  95 106 113 118 120 115 113 110 112 112 107 106 104 105 105 107 109 111 117 126 140 146  65
  10  11   9   8   7   5   5   6  10  32  58  59  57  58  58  57  57  56  55  53  52  55  54  55  56  54  52  49  46  44  41  38  38  38  36  37  36  36  37  36  38  38  39  39  39  40  40  42  40  42  46  47  47  45  47  52  55  58  62  63  65  69  71  71  67  63  68  73  79  87  96 104 110 113 112 108 102 106 112 108 106 106 105 105 107 112 114 117 123 138 145  56
  11  11   8   8   7   5   6   7   9  27  56  59  58  55  55  56  55  54  53  52  54  54  54  54  54  53  51  49  45  42  41  42  44  44  41  40  40  39  39  39  39  39  40  39  40  41  40  41  40  42  44  46  48  49  50  54  56  59  63  68  67  70  75  79  78  75  75  75  80  85  92  98 103 109 108 103  95 101 110 110 108 106 105 107 109 110 113 119 123 134 142  44
  11   9   7   8   9   6   5   6  10  26  55  58  57  56  56  56  57  55  55  55  54  54  53  54  52  51  52  48  46  47  47  47  46  46  45  41  42  43  41  42  41  43  43  43  45  43  43  41  40  43  44  44  49  50  53  54  57  59  65  68  71  74  76  76  77  79  78  78  80  82  88  93  97 103 106 104  99 105 110 110 107 108 107 107 110 108 110 119 128 134 133  34
  11   8   7   8   7   7   6   7  10  21  50  58  59  59  56  55  55  55  56  56  54  54  52  51  49  49  49  48  46  47  48  49  48  48  49  48  46  46  46  47  47  48  48  48  49  49  47  45  45  46  47  48  52  54  56  57  62  64  69  74  77  77  78  78  78  79  78  80  80  82  86  92  96  99 102 104 103 107 108 109 106 105 106 106 110 105 109 118 128 134 123  28
  10   8   7   7   7   5   5   7   9  15  44  58  58  56  55  55  55  54  55  55  52  52  51  50  51  52  50  48  47  47  48  49  49  47  47  47  49  49  48  49  48  48  50  50  50  50  49  49  48  49  50  51  56  57  60  61  64  64  69  74  77  76  79  81  82  80  80  79  80  83  88  91  96  97 100 103 104 104 104 104 102  99 103 106 107 108 111 115 123 130 102  23
   9   7   7   6   6   5   5   6   7  12  39  56  53  53  54  55  54  52  53  54  54  53  49  48  52  50  49  48  47  47  48  51  50  48  48  48  48  51  50  49  46  48  51  52  51  51  49  49  49  50  53  54  57  61  62  66  68  68  70  74  77  80  80  81  83  82  82  83  84  86  88  92  95  97  97  98 100 101 102 102 100  98 100 104 106 109 114 115 117 123  88  18
   9   7   7   6   7   7   6   6   7   9  25  51  52  52  50  51  53  52  54  54  54  52  46  45  50  49  48  48  48  48  48  51  49  51  49  48  48  49  49  49  47  48  49  52  52  49  48  49  49  52  53  54  58  61  64  67  69  71  73  78  80  80  81  82  85  84  86  84  86  89  92  94  97  99  98 100 103 103 101 102 103 100 101 103 106 110 113 113 118 118  57  18
   8   7   8   8   6   6   6   6   5   7  16  44  52  51  48  51  50  49  51  53  53  50  44  45  49  49  48  48  48  49  49  50  48  50  50  49  49  52  50  49  49  51  50  51  51  50  52  50  51  54  58  60  62  65  66  68  71  72  74  80  82  84  84  87  87  87  87  87  90  91  94  96  97  99  98 100 100 100  99 100 100  98 100 103 106 108 110 112 115  99  32  17
   7   6   7   6   5   5   4   4   5   6   9  30  49  50  49  51  49  48  50  53  53  53  47  47  51  50  50  48  48  51  50  48  48  49  51  52  51  51  52  51  53  53  52  52  53  54  52  54  55  56  58  60  62  64  69  72  74  78  80  85  90  92  90  90  90  89  89  90  90  94  96  98  99 102 103 102 101 100 100 102  99  99 102 105 106 105 107 110 110  77  20  16
   8   7   7   6   5   7   4   4   6   6   7  18  44  47  47  48  47  48  49  51  51  52  49  50  51  52  49  51  50  51  52  52  53  52  53  54  53  53  55  55  54  53  53  55  54  54  54  56  56  56  58  60  63  67  73  79  86  91  95  98 100 101 100  98  96  94  94  97  98  99 101 102 102 105 105 105 103 103 101 101  98 100 103 105 106 104 105 108 105  51  15  16
   8   8   7   4   4   5   4   5   5   5   4   9  30  43  46  45  45  47  47  48  48  51  50  49  48  51  51  53  54  54  54  54  55  54  54  53  55  57  57  58  57  54  56  56  56  58  58  58  58  59  61  62  64  71  80  91  97 105 111 112 112 110 110 107 105 102 100 103 105 105 105 106 105 107 108 109 106 104 100  99  99 100 101 101 102 104 105 103  82  26  17  17
   8   8   7   5   6   6   5   3   6   6   4   4  14  37  42  40  39  43  45  48  50  50  48  48  48  51  52  52  55  55  54  56  55  55  55  55  58  56  57  58  60  59  58  59  61  63  63  63  61  59  62  64  66  74  84  96 103 110 118 120 121 122 121 120 115 111 109 109 111 112 111 111 109 112 111 110 108 104 103 100 100  98  98  99  97  99 102  98  53  20  17  20
   7   7   6   7   6   6   5   4   4   7   6   4   6  22  37  37  34  38  42  44  45  48  48  47  49  51  53  52  54  56  56  55  54  55  55  56  56  55  55  56  58  58  59  61  62  63  64  64  64  62  63  66  69  74  84  98 104 109 117 123 126 127 129 137 136 129 124 123 118 118 118 116 115 113 112 111 111 107 103  99  99  97  96  94  93  97  98  79  30  18  17  20
   8   8   7   5   4   4   6   5   4   5   6   4   4   9  25  35  33  33  38  41  42  46  46  46  48  50  53  54  54  57  57  56  56  56  54  55  56  57  55  55  54  55  58  60  63  65  65  65  64  63  64  67  71  78  84  97 104 108 114 119 123 128 134 147 154 150 144 137 131 128 124 118 115 113 112 112 110 107 101  98  98  94  90  90  93  97  94  51  21  18  18  18
   9   8   7   6   4   5   6   3   2   4   5   4   5   6  10  25  31  31  35  37  40  42  44  45  47  49  49  51  51  55  57  58  57  57  55  56  56  56  55  55  55  55  57  59  61  63  65  67  64  62  64  70  72  78  83  92  99 105 112 114 118 124 131 142 151 153 148 137 132 126 122 117 115 111 110 109 106 103 100  97  94  91  89  90  93  93  87  34  20  16  18  17
   9   8   9   7   5   7   4   3   3   3   5   5   5   6   5  13  27  30  32  36  37  39  41  43  43  46  48  48  48  52  56  57  57  56  56  56  55  55  53  54  56  56  58  59  60  61  64  65  62  61  63  67  71  76  81  86  90  95 103 110 112 116 120 130 143 148 144 135 128 118 115 113 111 109 106 103 101  99  95  90  88  86  87  88  90  94  83  29  18  16  16  16
   8   8   8   7   6   6   4   2   4   3   3   6   6   6   4   9  24  31  31  31  32  34  37  40  40  41  44  46  48  50  53  54  55  54  54  55  54  54  52  55  55  55  57  59  61  63  65  64  62  60  63  66  68  71  76  78  83  85  92 102 104 108 111 120 132 137 132 126 119 112 109 106 100 102 100  95  92  90  88  84  83  81  83  86  90  97  72  27  19  16  17  15
   8   8   7   6   7   5   4   3   4   3   2   4   7   6   3   8  20  28  33  31  30  31  31  34  34  37  41  44  45  47  49  50  51  52  51  52  53  53  51  52  53  53  54  57  61  63  64  65  61  59  62  63  65  67  71  73  76  79  87  93  95  99 103 109 116 120 117 112 107 104 101  98  95  96  93  89  85  83  79  77  75  76  79  87  95  99  54  26  22  17  17  15
   9   8   7   5   6   6   6   4   5   3   3   3   6   7   5   8  18  26  32  33  33  30  28  29  31  33  37  41  41  44  44  47  47  48  47  49  50  49  49  49  50  50  51  55  60  60  61  63  61  61  61  63  64  66  69  71  72  75  81  85  87  90  93  97 102 103 102 100  97  94  93  92  91  88  84  80  76  73  71  71  69  74  86  97  97  94  36  27  22  18  18  11
   9   7   6   5   5   5   4   3   3   3   3   3   4   6   6   6  14  23  29  33  35  32  29  27  27  29  33  34  37  39  40  43  45  43  44  46  47  46  46  47  48  48  51  53  56  57  60  60  60  58  59  62  63  63  65  66  67  71  75  80  82  83  87  92  92  93  95  93  89  87  87  87  83  77  72  69  63  64  66  71  81  93  98  98  96  78  27  28  26  20  17  11
   8   7   7   6   5   4   3   2   4   3   2   3   3   4   7   8  11  20  27  32  32  32  31  29  27  27  29  30  30  33  35  41  41  40  41  43  44  46  45  44  45  47  48  49  52  53  56  57  56  56  58  57  58  60  63  64  66  69  71  74  76  78  82  85  86  85  86  83  80  79  78  73  69  64  61  63  64  71  80  91  99 101  99  96  89  55  23  26  29  23  19  18
   8   9   8   7   6   6   3   4   4   3   2   3   4   3   6   8   9  18  25  31  31  33  33  32  30  29  27  30  28  29  33  36  36  38  37  37  38  40  41  40  42  45  45  47  50  51  52  53  53  53  54  55  55  54  56  58  61  63  67  71  72  74  77  78  79  77  77  74  72  72  68  64  60  61  63  67  74  85  93  96  99 100  96  91  74  41  22  25  31  27  23  26
   8   8   8   5   5   7   4   4   4   3   2   3   3   2   3   6   8  15  24  30  32  34  33  33  32  31  30  30  28  27  31  32  31  32  33  33  33  33  36  37  40  39  39  42  46  47  48  51  49  47  49  47  48  51  52  54  55  57  62  64  65  67  69  71  73  71  70  69  68  68  65  65  66  69  74  79  83  89  93  97  95  95  89  79  60  32  23  26  36  31  27  36
   7   7   8   7   6   7   4   4   5   4   3   3   4   2   2   5   6  10  19  28  32  33  32  32  32  32  30  26  27  29  31  30  30  30  28  29  32  32  33  34  36  36  39  40  41  41  42  44  44  44  46  42  42  46  47  49  49  51  52  55  56  58  60  65  67  67  68  70  69  69  68  69  72  74  82  86  88  91  95  96  90  88  83  73  51  29  24  28  43  37  32  40
   9  10   9   7   7   7   5   4   5   4   3   3   3   3   2   4   4   7  14  23  30  32  32  32  32  32  31  28  29  28  29  29  27  26  27  27  29  31  30  31  33  34  38  38  36  38  38  39  38  38  40  39  39  41  41  45  45  43  44  50  53  58  61  65  68  68  69  71  71  73  75  77  78  79  83  86  89  93  90  89  85  84  76  61  42  28  24  28  49  43  33  40
