P2
92 112
255
 148 102  86  74  68  64  41  24  25  29  40  45  47  46  31  26  22  24  34  38  42  52  56  52  52  55  54  53  51  52  58  66  68  73  77  80  78  83  87  99 112 121 129 125 120 116 113 125 107  92  82  74  67  60  60  63  68  78  88 100 114 123 123 118 107 100  91  80  76  73  73  77  77  69  55  43  39  37  34  32  28  28  29  27  27  27  26  25  26  27  26  25
 145 101  80  73  69  55  29  26  27  33  40  44  47  47  36  30  29  27  30  40  53  54  52  51  50  54  58  54  49  49  53  61  64  63  64  72  88  89  90 100 109 114 121 124 120 113 116 135 131 103  95  85  73  65  64  63  67  75  89 113 119 113 106 102 100 101  99  89  82  77  72  72  74  77  76  68  52  41  37  32  27  24  27  29  26  26  26  26  27  30  29  26
 150  93  74  70  57  43  27  20  22  28  35  42  49  47  39  31  32  36  46  58  55  49  48  49  49  50  55  63  61  50  48  48  56  59  65  64  69  88 102 107 116 118 119 122 121 117 119 136 136 117 104  90  82  73  67  62  64  70  80 105 112 112 112 109 111 104 101 100  89  80  72  68  68  70  73  77  73  59  44  36  30  26  26  29  27  26  26  28  37  43  39  36
 135  95  71  51  38  33  27  22  20  23  32  41  48  47  39  32  41  53  57  55  53  49  48  47  49  49  49  56  66  69  65  63  62  64  72  79  83  76  83 107 113 118 120 118 119 118 116 132 136 124 110  94  86  77  70  67  68  74  83 100 103 109 119 123 117 103  92  80  74  71  68  66  70  71  72  72  75  77  67  49  39  31  28  28  29  26  25  29 109 133 107  85
 140  91  49  40  35  35  35  29  28  29  33  39  45  48  40  44  59  63  57  56  52  48  49  51  49  49  50  54  63  75  76  76  77  78  83  87  91  97  93  95 107 111 109 105 103 107 118 131 138 136 119  97  88  81  76  73  73  72  73  73  77  85 100 110 115 114 105  99  85  74  67  63  63  68  74  78  74  76  82  82  63  43  33  30  27  27  24  36 160 209 207 193
 109  53  41  46  50  46  40  34  32  32  35  40  45  48  49  56  58  55  52  52  52  52  54  56  59  58  60  60  61  64  72  79  78  84  92  93  92  92  96  96 101  99  95  94 100 105 120 138 147 139 121 104  95  85  76  71  69  68  66  65  67  70  80  92  98 110 111 106  96  89  78  69  63  61  63  69  70  71  73  77  83  73  54  40  32  30  27  31 159 220 216 218
  74  52  47  57  55  46  42  39  35  33  37  44  49  54  57  56  51  52  54  54  58  57  51  48  46  45  44  43  47  53  56  60  62  67  71  76  78  77  81  84  89  90  90  92 103 115 130 146 152 151 135 117 101  91  95  88  81  80  77  75  72  70  74  83  93 105 115 113 101  91  85  76  70  66  62  62  65  69  71  68  69  75  75  60  41  31  33  55 167 190 206 219
  87  61  56  57  48  45  47  40  33  35  42  47  53  57  56  50  54  56  56  54  52  47  42  39  39  39  42  44  47  50  54  59  63  67  70  70  73  76  78  86  90  95  99 106 115 127 146 158 169 175 160 140 123 119 115 114 109 109 107 103  99  96  93  87  90 106 116 113 108 100  90  82  74  69  65  64  62  62  65  65  65  65  72  76  66  43  41 116 189 189 213 217
  90  73  58  51  42  45  50  48  41  41  46  52  58  57  52  53  56  57  57  52  44  39  35  37  41  46  53  60  67  71  73  79  87  90  93  91  87  89  93  98 101 106 116 124 138 154 164 174 190 196 187 164 152 146 138 135 133 128 124 122 121 114 115 108 103 107 118 113 101  95  91  85  77  70  66  66  66  65  63  63  64  67  65  70  79  72  65 175 212 215 217 212
  86  71  55  46  41  46  55  59  52  53  55  59  59  51  51  55  58  57  52  42  36  34  38  47  59  74  82  91  94  95  99 105 108 112 116 117 117 113 115 123 124 128 136 144 154 166 184 196 203 210 193 171 160 154 147 148 150 143 134 135 139 136 131 132 127 119 120 117 105  93  89  88  82  69  62  63  64  64  63  65  65  65  66  67  73  81  92 185 216 219 219 220
  93  71  53  42  42  48  58  59  56  58  60  61  56  53  54  57  58  53  41  32  32  37  52  68  83  97 102 106 109 112 115 118 121 125 126 128 131 132 135 137 138 141 147 154 163 177 191 199 208 206 196 185 179 168 158 157 160 159 151 150 145 141 142 147 140 139 135 129 113  95  90  86  84  77  65  59  61  62  61  64  65  63  66  69  71  76  87 121 188 213 213 217
 104  67  49  40  42  52  59  64  63  62  60  58  57  55  58  57  54  45  33  29  38  57  77  93 105 110 112 115 117 121 124 123 126 129 130 132 135 138 141 145 149 152 155 162 172 184 193 197 204 205 203 198 192 183 174 168 171 170 169 163 158 149 145 144 138 141 144 135 125 104  96  88  85  81  75  64  58  60  63  61  61  62  63  69  71  72  81  94 132 190 206 211
 113  60  45  39  44  56  63  64  64  60  58  60  56  55  54  54  49  38  32  38  58  79  95 106 112 117 119 123 126 128 128 130 131 131 135 137 138 143 145 150 154 157 162 173 183 188 196 203 208 207 205 205 205 195 187 184 180 172 169 165 163 158 154 146 135 133 137 132 124 114 105  97  95  86  79  72  64  57  59  64  61  61  63  63  71  73  76  84 106 137 199 212
  90  59  44  39  46  56  65  66  60  57  63  60  55  53  53  54  42  37  41  58  78  97 110 116 121 125 127 130 131 131 132 132 133 134 138 139 142 148 151 155 158 162 170 177 184 198 204 205 208 202 203 205 208 199 193 192 195 180 176 173 175 169 162 156 139 132 130 126 119 116 110 105 104  97  88  79  75  65  53  60  64  61  61  61  63  71  74  76  91 113 153 203
  83  68  47  40  44  57  65  60  54  60  61  55  51  49  54  50  40  44  56  78  98 111 119 123 128 130 133 135 134 133 135 136 138 142 145 147 152 158 161 163 165 170 177 183 189 198 202 200 201 199 195 196 201 196 194 193 193 192 193 186 177 175 171 164 152 140 132 125 121 118 115 114 111 109 101  88  79  74  63  56  59  63  62  58  62  67  74  75  79  99 129 166
  80  74  54  44  51  63  63  56  60  64  54  49  46  43  54  48  48  58  78  97 111 120 124 129 131 133 137 138 138 140 142 144 145 148 151 153 158 162 165 169 169 172 183 186 189 192 194 194 194 192 188 190 190 193 196 196 191 195 197 195 188 189 183 174 163 152 140 134 129 124 119 116 113 112 109 104  90  78  71  64  58  58  65  62  57  64  68  72  77  82 110 125
  80  68  51  52  65  65  54  55  61  56  49  47  39  44  49  48  61  78  96 108 119 125 129 133 136 137 139 141 143 146 147 150 152 154 157 159 161 165 168 171 177 182 184 187 187 186 183 185 189 186 183 183 182 186 186 185 186 191 197 199 186 189 189 184 172 171 161 150 142 138 129 121 116 112 108 109 104  88  77  73  66  56  56  64  61  57  61  68  74  77  88 106
  77  75  60  59  67  58  52  55  56  47  40  36  37  45  47  62  80  98 106 116 123 129 134 138 140 143 144 144 146 147 151 153 155 160 163 163 164 167 170 171 176 180 184 184 186 183 180 181 181 182 178 179 181 178 178 180 182 184 193 192 185 182 180 180 177 172 167 158 153 148 142 129 121 116 108 107 106  98  88  80  73  64  56  54  62  63  57  62  69  72  79  95
  72  67  55  62  58  53  54  54  49  38  32  29  40  46  62  82  96 106 115 125 130 135 139 144 146 149 151 151 150 152 156 157 159 162 162 163 164 165 167 168 172 173 179 180 181 181 180 178 175 174 173 174 174 174 173 170 172 174 180 188 187 182 181 184 183 176 170 166 168 165 160 148 126 122 114 111 108 101  97  89  79  73  64  55  48  58  62  59  60  68  78  84
  57  57  62  62  54  54  52  48  39  31  25  29  40  60  78  96 105 118 130 133 138 141 144 146 148 150 154 155 157 159 161 159 161 160 162 163 163 162 163 167 171 171 172 173 174 176 177 177 175 173 171 170 168 171 173 172 172 172 173 177 178 179 181 183 183 182 181 180 176 171 168 165 147 138 127 116 115 109 102  94  84  76  69  60  52  43  52  61  57  57  71  81
  50  52  57  53  53  50  49  39  32  26  27  42  58  76  91 107 120 133 137 140 147 146 146 147 150 151 155 157 158 159 161 159 159 162 162 162 161 163 164 169 170 167 170 171 169 171 174 175 173 172 170 167 166 168 170 174 174 172 172 172 172 175 175 182 182 184 192 192 192 182 178 167 155 148 147 134 123 119 110  98  89  81  73  66  54  45  38  44  61  61  61  75
  50  53  52  50  52  48  44  32  26  24  35  57  74  89 107 121 132 138 141 146 150 149 150 150 153 157 158 160 162 163 163 162 161 161 163 163 163 164 164 164 167 168 170 170 168 167 169 171 170 168 168 170 170 170 169 170 173 171 172 172 173 173 172 173 174 185 182 186 191 193 189 184 168 155 160 150 142 129 122 110  99  89  80  74  66  58  43  34  45  60  61  60
  47  49  46  47  48  45  36  29  24  31  51  72  87 107 123 135 140 141 142 146 146 147 150 154 157 160 160 160 162 165 165 163 162 161 161 162 162 162 162 162 162 165 166 169 170 167 168 171 169 166 166 168 169 171 170 168 175 176 172 169 172 174 175 172 171 180 180 180 185 190 189 188 181 166 172 168 155 153 143 126 112 101  89  81  73  66  62  50  42  48  59  62
  49  44  42  44  43  39  31  25  29  46  68  88 109 125 136 139 143 144 144 146 147 151 156 156 157 158 159 161 162 163 164 163 162 157 156 160 163 164 163 161 162 163 164 166 166 167 166 166 166 164 165 168 164 166 169 170 173 171 168 162 166 172 176 176 180 185 185 184 182 184 188 188 179 170 176 179 172 171 166 158 139 122 104  93  88  75  71  65  55  48  47  57
  49  41  38  38  36  30  25  32  47  69  91 109 124 137 141 142 144 146 148 147 150 153 155 156 155 156 159 161 162 161 163 164 160 158 155 159 162 163 162 164 165 164 164 163 163 166 165 165 167 169 168 166 162 166 170 173 172 170 171 171 169 171 177 181 182 179 177 178 178 177 178 183 180 170 168 179 181 188 186 176 165 152 131 112  97  84  73  67  62  62  54  44
  45  36  33  33  31  29  36  52  75  98 114 125 131 138 143 145 146 149 153 153 153 153 154 158 158 160 161 159 161 162 163 162 161 162 162 161 161 162 162 164 165 165 165 165 165 165 166 165 166 167 169 170 170 169 171 173 171 167 169 168 168 172 175 180 185 181 179 179 178 179 178 177 181 173 164 175 181 191 192 186 177 169 150 127 110  93  77  66  60  61  67  60
  38  32  30  31  31  39  54  76 100 114 123 133 135 141 146 149 149 151 153 156 157 155 156 161 164 163 161 160 162 161 159 161 161 162 162 161 160 162 163 163 163 163 164 167 166 165 165 166 164 165 167 171 173 173 173 174 178 182 184 180 179 176 178 181 183 183 181 186 184 185 185 188 186 180 170 168 179 187 193 190 185 175 160 137 121 106  90  77  61  52  58  71
  34  29  32  32  36  49  72  95 112 120 128 134 139 144 149 151 153 155 155 159 159 160 161 162 162 162 161 159 158 156 156 161 160 161 162 160 162 163 162 163 164 163 165 166 165 165 167 171 170 167 167 174 179 179 178 181 188 193 194 191 189 183 182 183 184 184 183 184 186 186 185 187 187 186 180 166 177 182 187 187 185 183 168 154 131 120 105  84  72  57  50  62
  34  33  31  32  40  64  87 109 121 126 131 136 142 149 152 154 155 155 154 155 156 158 158 158 158 157 158 159 156 154 155 158 161 161 162 162 164 165 162 162 165 165 166 166 167 166 169 171 171 172 175 178 180 189 190 190 198 199 197 194 189 182 182 185 188 190 187 185 187 186 183 182 181 178 176 161 171 178 182 183 185 184 175 167 140 124 113  92  77  67  54  56
  31  29  30  35  52  73  95 112 122 129 135 139 147 151 154 155 155 154 156 157 156 151 152 154 155 156 158 157 156 154 156 158 160 163 165 164 166 168 168 165 165 165 166 167 168 168 171 174 176 177 179 183 186 192 199 197 196 198 202 212 209 194 186 188 190 191 188 184 183 181 179 178 177 172 174 170 161 178 175 179 180 180 178 175 158 130 121 103  79  67  57  55
  26  27  32  40  57  80  99 114 126 134 139 143 148 152 154 156 156 157 158 156 153 153 154 154 155 157 156 155 154 154 155 157 162 167 168 170 170 169 171 169 169 168 166 167 171 173 174 175 177 181 183 186 191 189 195 198 199 201 208 212 215 214 212 205 199 191 190 185 184 181 179 178 176 173 172 172 161 165 171 174 177 175 172 171 164 136 125 111  86  68  58  48
  24  28  38  49  67  91 108 121 133 138 143 146 149 156 156 157 158 159 160 156 156 156 156 155 153 153 153 154 154 154 157 161 166 169 171 175 176 172 172 173 173 172 169 168 173 176 177 179 185 189 183 184 188 189 190 190 196 199 203 207 211 212 215 216 211 198 196 184 183 179 177 175 174 175 173 170 165 153 168 172 173 171 166 162 158 143 123 114  90  70  61  50
  25  33  44  52  73  97 116 127 137 142 145 147 150 156 157 158 157 159 161 161 158 157 155 154 152 150 151 151 154 159 161 163 169 171 172 174 177 177 173 172 175 176 174 171 170 173 173 178 180 178 179 181 183 186 189 188 187 187 188 196 201 206 203 204 207 202 196 188 182 179 176 172 170 169 169 169 167 161 153 164 166 166 163 159 154 148 123 118  96  75  63  59
  26  42  47  52  75 105 122 130 140 144 146 151 153 155 156 157 155 156 159 159 157 156 154 154 152 152 153 154 157 161 165 168 172 175 174 173 175 173 168 169 172 175 174 172 173 173 172 173 175 176 170 174 177 178 186 184 183 180 180 185 190 192 194 196 199 202 198 194 190 186 179 176 168 165 164 165 167 165 159 148 158 163 162 157 150 141 125 120 103  80  64  63
  33  46  46  51  79 112 126 135 141 146 149 153 154 154 157 157 156 158 158 156 155 155 154 152 154 154 156 159 160 162 164 166 171 172 170 171 171 172 172 171 171 174 172 169 168 169 169 170 172 177 172 167 170 174 177 178 177 177 177 179 181 182 184 187 191 193 196 195 193 194 191 190 183 176 169 162 161 163 165 156 156 159 156 154 150 139 129 121 109  84  64  60
  39  42  42  50  85 119 128 134 142 148 151 151 153 154 156 158 155 154 153 152 152 153 152 153 155 155 157 161 162 163 165 167 168 168 167 168 167 168 169 169 170 169 168 166 167 167 166 168 170 171 169 167 167 167 169 168 172 170 170 166 167 168 171 172 176 178 183 184 182 188 193 190 189 186 182 171 160 162 163 160 153 154 158 158 150 143 130 123 112  92  66  57
  40  41  41  54  98 123 130 135 142 148 151 152 153 154 153 153 155 154 153 152 153 153 153 154 155 157 156 158 163 165 164 168 168 165 169 168 167 168 165 165 165 165 165 165 165 165 164 164 166 167 166 164 163 161 160 162 164 162 162 160 159 161 160 160 162 160 161 165 171 172 180 188 193 192 193 190 177 166 160 159 156 153 150 151 148 142 131 124 113  96  71  56
  37  40  41  55  98 123 131 137 144 147 148 149 149 150 148 148 153 151 152 152 151 152 153 154 154 158 156 159 162 164 166 166 165 167 169 168 168 170 167 166 163 164 167 165 163 163 162 167 163 164 162 159 159 158 156 155 157 154 154 154 153 153 149 148 149 149 146 150 151 158 166 175 180 187 191 192 191 177 169 157 155 156 153 147 142 137 130 125 116 103  78  58
  34  38  38  55 103 127 134 141 146 147 148 147 147 147 148 149 151 151 152 151 151 153 156 158 159 159 161 163 165 167 169 170 167 169 171 171 171 170 168 165 163 164 167 167 165 161 162 165 164 164 162 159 158 158 154 151 151 148 143 144 139 132 128 126 126 127 121 125 131 139 146 156 164 173 180 190 196 193 186 170 160 157 154 148 143 135 125 122 117 106  83  58
  30  37  39  54 102 125 135 142 147 149 149 146 145 146 149 149 149 149 151 151 150 155 161 165 166 167 168 171 174 173 171 173 172 172 176 174 169 167 167 167 169 166 167 167 166 162 159 162 162 162 162 160 156 153 151 143 136 127 115 105 103 106 110 106 105 109 111 112 114 121 125 128 136 151 153 162 177 188 186 180 167 158 152 147 145 140 130 124 117 108  84  59
  27  35  39  54 104 124 134 143 146 147 148 146 145 146 148 149 139 133 134 139 145 156 158 159 161 162 163 169 174 172 169 172 171 172 175 175 171 172 171 171 172 171 172 170 165 166 166 164 161 160 161 156 149 144 136 121 106  97  92  92  96  96  89  89  92  98 102 105 110 115 118 119 122 130 132 136 148 155 160 168 167 163 154 146 143 140 133 129 122 111  87  62
  26  34  36  48 102 124 134 139 143 146 146 143 142 145 146 137 120 117 118 126 131 138 133 132 131 129 125 125 134 142 141 140 150 164 170 169 170 174 173 171 173 174 174 170 162 165 168 166 162 160 154 146 140 132 118 107  97  93  93  96  97  97  97  99  98  99 110 115 116 116 116 118 121 122 124 129 133 141 147 151 154 156 153 150 146 142 135 132 127 114  88  64
  23  31  32  45  97 125 133 138 140 143 143 140 141 142 133 115 110 106 107 112 115 119 121 120 117 112 107 105 107 114 121 118 124 144 157 162 165 166 168 172 176 178 176 171 166 166 166 165 163 157 148 141 133 125 112 105 102 102 105 104 107 115 121 118 119 125 130 131 128 127 127 127 126 123 123 125 127 132 138 146 150 149 150 149 147 143 139 136 132 119  90  64
  21  29  31  46  91 125 132 137 139 141 140 138 133 117 111 112 112 114 110 115 118 123 124 117 111 107 105 104 105 113 116 110 110 117 129 142 153 154 162 173 178 178 177 173 171 167 163 160 156 152 146 138 128 121 113 113 114 118 125 125 129 131 134 135 135 133 131 132 130 127 124 123 124 124 122 121 121 122 125 130 137 144 147 145 146 146 142 140 135 125  92  68
  19  22  30  44  85 126 133 136 137 138 134 125 109 103 106 114 116 120 123 130 134 133 131 129 123 119 115 106 106 112 115 112 114 122 127 137 145 151 162 174 178 179 179 177 173 164 158 157 152 144 140 136 130 124 122 125 128 129 130 130 129 131 130 130 127 122 121 118 116 115 116 115 116 116 117 117 117 116 118 124 129 138 143 143 145 147 146 144 139 126  96  70
  19  17  27  44  74 121 131 136 138 132 123 111 109 115 129 140 143 144 147 146 156 155 152 151 151 147 148 140 133 130 130 134 137 141 143 145 151 159 164 173 178 181 179 176 171 165 157 155 148 142 136 132 127 126 128 130 127 122 120 120 123 126 123 119 113 108 100  95  90  91  93  93  98 103 108 110 112 111 112 116 123 132 142 145 146 148 146 145 142 129  99  75
  21  17  23  40  63 117 131 136 135 126 117 118 125 136 145 151 155 157 164 165 164 165 163 161 158 155 153 151 147 144 142 145 148 151 153 155 160 166 170 176 181 183 182 179 172 168 154 147 141 136 130 126 123 123 124 121 114 111 113 117 123 125 123 117 112 107 101  96  93  90  89  88  87  86  90  98 103 107 109 111 116 126 140 147 151 151 148 146 142 133 107  75
  23  17  19  33  64 115 131 137 136 131 129 138 143 149 156 158 159 158 159 157 156 158 155 154 153 149 142 140 137 133 130 132 136 143 148 151 159 165 168 177 183 184 182 179 170 161 151 143 137 127 118 116 114 111 109 105 104 104 109 115 119 122 121 121 111 105  99  90  87  88  90  92  91  91  87  88  94 101 105 110 115 124 136 148 155 156 154 149 143 136 114  79
  25  22  22  33  66 110 132 137 137 136 134 142 147 152 156 156 153 151 152 151 149 145 139 136 126 120 117 108 102 101  97  98 104 118 128 136 145 154 162 171 178 181 179 174 166 157 145 136 124 115 106 102  99  95  95  98 101 106 113 119 122 128 113  92  71  53  55  61  59  65  76  82  88  93  94  94  95  99 105 111 117 125 134 147 155 156 158 155 148 138 120  85
  46  54  32  35  62 105 132 137 138 138 140 145 147 148 149 150 148 144 137 133 132 126 123 124 122 120 119 112 102  96  88  81  76  79  97 114 123 132 149 161 167 173 174 172 163 152 138 125 113 107  97  90  86  88  93  99 103 109 116 120 111  89  76  65  39  32  38  60  69  68  72  72  70  77  87  92  93  96 101 110 116 127 137 145 153 156 160 161 153 144 127  88
  78  64  30  37  56 103 130 135 138 139 142 147 147 146 146 144 137 128 126 127 128 129 127 119 101  83  77  68  64  72  84  86  86  82  80  92 112 122 134 148 157 166 169 167 157 143 126 114 103  96  88  82  83  90  97  96 101 103 103 107 122 114  91 134 110  46  48  73  85  84  93  89  75  72  79  83  87  92  96 106 115 128 144 150 155 159 161 161 158 153 136  96
  88  51  37  43  56 100 129 134 138 141 144 146 145 143 144 139 128 123 122 122 115  96  76  75  70  66  59  31  31  45  72  78  84  93  92  88 104 122 130 136 146 156 162 158 148 134 117 105  96  88  81  77  80  89  92  91  86  88 108 126 153 147  92 107  78  44  56  83  89  98 103  94  80  79  82  83  86  92  97 106 117 131 149 157 162 165 165 159 155 155 143  96
  87  44  42  46  59 100 132 137 141 144 146 147 143 140 139 133 125 121 111  88  63  70  89 119 108 124 134  49  43  45  76  82  88 101 102 107 113 119 129 133 143 149 153 153 146 135 120 105  93  86  79  79  80  86  89  81  77  84 107 129 155 163 132  89  88  78  78  84 100 107  98  86  83  83  89  93  96 101 106 117 128 142 154 163 169 169 169 165 160 157 146 105
  73  46  49  49  61 102 136 139 143 146 147 146 142 136 130 121 112  95  69  67  83 118 151 168 137 105 108  60  48  66  87  85  95  94  91 103 120 138 144 138 140 144 148 150 147 136 122 107  93  86  81  81  85  89  80  76  75  73  81  99 120 134 147 134 104  91  94 103 105  97  89  84  84  88  96 102 107 112 122 135 145 155 164 170 173 172 170 169 165 159 151 111
  65  51  59  54  60 105 134 140 142 146 148 145 137 128 118 109  91  71  77  95 134 153 174 179 170 117  85  84  83  88  84  88  90  84  87  98 118 139 145 137 137 140 146 150 148 143 129 109  95  85  80  80  81  84  86  87  87  89  91 103 106 107 108 110 104  96  96  93  91  90  91  93  97 104 109 112 116 125 137 148 158 166 173 175 176 175 172 167 163 163 155 115
  60  57  60  62  66 104 134 139 143 146 147 144 134 123 113 102  89  89  93 107 120 135 154 170 177 172 123  91  85  88  94  96  99 101 105 113 124 132 132 130 133 140 150 153 155 157 141 117  99  85  80  78  75  78  81  85  88  88  91  99 102 104 105 106 104  99 101  99  99 101 103 108 110 112 113 118 126 140 152 162 168 175 180 181 180 177 172 168 164 162 156 130
  67  62  61  78  75 101 132 139 143 146 148 145 134 124 120 108 106 106 105 104 108 114 118 121 123 124 117 111 109 111 110 106 104 104 108 112 114 120 123 125 132 141 155 167 176 189 171 129 110  91  81  77  74  71  74  77  79  83  86  88  91  96  98 105 110 113 117 117 115 117 116 112 113 115 118 127 136 154 169 174 180 184 186 184 180 176 175 171 166 163 156 132
  85  73  58  75  74 102 131 138 142 145 147 145 135 128 127 123 120 121 123 121 125 125 126 129 123 126 123 120 119 116 114 110 106 106 109 110 110 114 114 123 134 145 155 171 186 203 195 145 119 101  87  79  76  72  71  73  77  81  85  88  92  95 100 107 111 114 119 120 121 120 119 116 117 122 129 144 158 169 181 187 188 187 186 182 174 173 172 170 165 161 152 134
  96  93  73  77  81 108 134 138 140 145 146 143 138 137 136 131 127 128 132 134 141 142 146 146 146 150 145 134 127 118 114 113 111 113 112 110 113 115 117 129 138 143 152 168 185 212 204 163 132 113  99  89  81  78  73  73  78  81  84  89  96 100 103 109 113 116 119 122 122 121 122 121 125 133 149 164 173 183 192 191 190 186 180 179 176 173 172 168 163 158 148 132
  97 112 107  93  87 105 136 141 140 142 144 143 143 141 140 137 136 136 138 141 144 148 152 153 153 153 146 136 130 127 123 122 121 120 119 117 120 127 131 134 140 141 151 171 187 208 208 180 148 124 107  98  89  86  84  82  81  83  87  91  97 103 105 108 112 117 121 122 122 123 125 126 134 147 161 170 179 186 190 189 187 180 175 172 171 171 170 166 160 154 144 128
  93 130 129 120 105 106 138 141 140 139 144 143 144 143 142 139 143 146 145 145 148 150 153 153 153 151 148 144 139 137 136 134 132 129 127 128 135 137 138 140 142 143 155 178 204 225 214 189 162 136 117 106  95  93  92  92  90  89  89  94 100 104 107 110 112 116 120 121 122 122 125 131 139 155 164 173 180 180 185 179 178 173 168 168 166 167 169 165 156 149 138 127
 102 138 135 124 112 109 136 139 139 139 144 145 145 145 146 147 146 146 147 147 148 151 152 153 154 157 157 150 142 139 138 140 138 137 138 143 148 145 143 143 141 144 163 188 212 234 226 205 175 150 128 115 106 104 103 101 100  98  97  98 102 105 108 110 111 115 121 121 122 126 128 134 141 156 166 172 175 175 174 171 170 167 164 165 162 162 166 163 155 141 133 124
 112 143 137 129 117 115 134 138 138 141 144 146 147 147 148 147 146 146 147 147 150 153 153 155 157 158 156 152 148 146 145 144 142 147 150 152 150 146 145 142 140 150 169 191 210 235 231 207 188 166 140 122 112 109 109 107 106 104 104 104 106 107 107 111 113 118 122 125 127 130 133 139 146 155 161 165 165 162 161 161 159 156 156 158 158 158 157 155 148 138 129 124
 116 140 133 125 122 121 130 138 139 143 147 149 152 152 150 151 152 150 148 148 154 156 155 155 157 157 155 153 150 149 149 151 155 158 158 154 151 147 145 141 140 153 173 195 212 236 235 215 199 179 156 130 120 113 111 110 107 106 106 108 110 111 113 114 116 120 123 127 131 135 138 143 145 149 151 152 150 150 151 153 154 149 150 153 153 152 150 146 141 133 127 123
 112 127 125 123 129 130 128 137 140 145 148 151 154 155 153 157 159 158 156 156 157 159 159 160 160 160 160 155 154 155 156 158 160 161 162 156 151 148 143 138 143 160 176 193 213 235 243 224 204 190 169 147 131 121 116 113 108 107 108 109 111 114 115 118 121 123 126 131 135 138 139 142 142 142 142 143 143 144 145 146 145 143 146 147 148 147 145 139 137 130 124 121
 107 119 118 117 132 135 126 133 139 143 147 153 157 160 162 164 165 165 166 168 166 166 167 168 164 163 159 157 159 161 164 162 161 164 161 156 150 147 140 139 150 169 181 194 210 233 244 227 204 194 178 157 135 123 119 116 111 108 109 110 112 114 116 120 124 128 131 134 138 140 143 145 145 144 142 141 141 142 139 139 138 138 140 141 142 143 141 137 133 129 122 118
  94 114 111 105 116 139 125 132 138 144 149 154 161 164 167 168 169 172 175 175 176 177 175 172 165 162 161 161 164 167 167 165 162 162 160 154 149 144 138 142 156 170 181 193 208 223 240 219 200 191 178 163 143 125 118 114 111 107 109 110 113 113 117 120 124 130 131 135 139 142 146 146 146 146 146 142 140 140 139 138 136 134 134 135 135 136 136 132 130 126 120 116
  79 115 107  91  95 146 131 129 137 142 151 156 161 166 168 171 173 176 179 177 176 175 172 169 167 167 167 168 167 168 166 165 162 162 161 155 150 140 137 147 160 175 181 188 201 216 222 212 198 190 178 167 151 130 118 111 108 106 107 108 109 113 118 121 124 129 130 133 137 142 146 146 146 144 142 141 139 140 137 134 132 130 130 130 131 132 131 129 128 125 118 111
  56 109 111  92  87 149 137 128 134 140 150 157 161 166 168 169 170 172 176 174 173 172 172 172 172 172 171 169 169 171 170 166 163 164 161 157 149 136 136 149 164 175 178 184 192 200 205 204 197 192 180 172 168 151 123 109 105 104 105 105 106 113 117 120 124 128 130 131 135 142 145 145 143 141 139 136 135 135 131 130 128 127 126 125 124 124 126 125 125 122 115 106
  43  67 112 106  97 141 147 128 132 139 149 156 162 164 166 168 168 170 172 172 173 175 173 171 171 171 172 172 171 173 171 170 167 165 165 159 145 131 138 156 166 172 177 183 186 189 188 192 190 187 181 180 187 186 163 121 103 100 101 103 107 112 118 123 128 130 131 131 136 140 143 141 138 138 138 135 131 129 127 125 125 124 121 121 120 121 123 124 125 121 111 101
  43  43 107 134 132 139 148 129 131 141 149 155 160 161 165 169 171 174 175 177 177 175 173 173 175 176 176 174 174 173 172 171 166 165 167 160 137 133 146 158 168 172 176 181 183 183 181 179 182 184 183 193 202 204 192 166 110  98  98 102 107 113 118 124 129 132 135 136 137 138 140 139 137 138 138 135 128 125 124 122 122 122 121 117 116 117 120 123 128 122 107  96
  37  32  75 137 146 144 147 135 128 139 149 154 157 161 165 169 172 174 177 177 177 174 174 176 176 178 176 174 176 178 175 171 162 164 169 151 135 139 154 163 172 177 179 182 180 176 172 172 171 174 177 189 191 194 186 183 147  99  97 101 108 114 120 123 128 133 137 137 139 139 138 137 136 136 135 131 126 124 122 122 121 120 116 114 114 116 117 122 129 120 100  91
  33  26  43 115 143 145 150 141 129 137 145 148 152 161 166 168 170 172 176 176 177 178 179 180 178 179 179 178 177 177 174 170 170 171 164 141 146 152 160 169 179 184 183 185 182 173 164 155 150 149 155 163 167 164 160 158 157 110  97 102 109 115 122 127 130 135 138 139 140 138 137 137 135 134 131 127 124 122 122 120 119 118 115 114 114 115 117 122 129 116  84  81
  27  25  31  78 131 144 151 151 132 133 143 147 150 160 164 168 169 170 172 174 178 179 180 181 181 181 182 183 178 175 173 172 174 173 157 151 156 159 162 167 179 186 189 186 180 170 159 143 132 125 123 127 131 125 125 126 136 116 100 105 113 121 128 132 135 138 138 138 138 137 135 133 134 132 130 128 122 122 121 119 117 116 115 114 114 115 117 125 129 105  60  68
  24  24  25  59 128 144 155 156 136 133 141 146 148 157 163 168 170 170 170 174 179 179 177 180 182 182 183 181 177 172 171 171 174 172 156 157 156 157 160 158 168 178 182 179 173 166 153 134 123 116 112  97  87 100 115 119 117 107 104 113 119 129 136 137 138 138 137 138 136 135 133 131 129 129 130 125 121 119 119 117 114 113 113 114 114 114 118 127 128  87  23  34
  21  21  20  48 126 144 155 157 142 131 138 145 150 155 161 166 169 167 166 169 174 178 178 179 181 182 181 176 173 171 170 171 173 172 159 149 139 120 116 134 152 163 171 169 162 155 142 127 116  98  66  55  80 108 123 121 111 108 115 122 126 132 137 138 138 138 136 136 136 134 132 128 123 124 126 124 120 119 118 117 112 110 112 114 113 114 119 127 129  63  16  15
  19  16  16  32 106 140 150 154 139 130 138 145 150 153 156 159 163 165 166 168 171 176 177 180 181 181 178 174 171 166 168 171 170 170 164 151 136 126 118 113 119 147 159 158 152 143 132 119  97  85  83  91 108 123 124 116 111 114 123 130 132 134 135 137 138 138 137 136 135 132 131 128 124 124 123 122 120 118 118 117 111 111 113 113 114 115 120 130 124  44  17  14
  16  13  15  24  64 120 134 134 121 120 135 142 148 152 154 155 159 164 166 169 171 172 173 176 176 179 176 174 174 171 173 173 172 169 165 155 144 138 141 147 144 143 149 148 142 132 122 106  98  99 101 101 103 106 105 109 117 123 129 131 134 135 135 136 137 137 135 134 133 132 130 128 124 124 122 121 119 118 117 116 112 112 113 113 113 115 122 131 115  31  16  12
  13  13  16  21  28  58  87  84  60  87 134 141 147 151 155 157 160 162 164 167 168 171 172 173 172 171 171 170 173 173 175 173 170 165 162 157 150 140 138 141 148 151 153 151 145 133 121 109 109 112 109 104 104 104 109 119 127 132 132 133 133 135 137 138 138 137 136 133 132 132 129 126 124 122 120 119 117 115 116 114 114 114 114 113 113 117 124 130 103  23  16  14
  10  12  16  18  20  19  15  16  20  58 131 140 145 149 153 154 157 161 163 165 166 168 171 173 172 169 167 163 172 172 170 169 167 162 159 156 154 150 149 148 154 160 166 167 156 147 134 128 128 129 121 116 114 114 119 127 132 134 136 137 138 138 139 142 142 138 135 132 130 130 128 124 123 120 117 117 114 114 114 114 114 114 113 113 114 117 124 132  92  18  13  13
   9  11  15  17  16  14  12  14  17  40 124 143 146 149 155 155 156 159 160 161 164 166 169 172 171 168 169 166 171 171 167 165 163 161 158 156 156 159 159 158 163 170 179 177 168 158 145 144 146 146 139 130 122 120 126 135 138 140 140 140 143 144 144 146 145 142 137 131 129 127 127 124 121 119 117 114 112 112 114 114 114 114 114 115 117 119 123 132  89  19  12  11
  11  13  15  15  14  10   9  11  15  31 115 142 147 151 154 156 157 161 161 159 162 167 169 170 170 168 168 168 169 167 165 163 161 159 157 158 161 163 165 165 167 175 181 178 166 162 155 156 159 159 151 140 132 130 137 141 140 142 142 143 145 146 146 146 146 145 139 133 128 127 125 122 121 118 115 113 111 112 114 116 116 116 117 117 117 121 124 135  83  17  12  11
  11  15  16  14  11   8   8  10  14  25 101 145 152 153 155 158 159 163 164 162 160 166 166 167 170 169 168 169 169 169 165 164 163 161 162 163 165 166 169 171 171 178 181 177 164 160 160 163 168 170 161 149 140 140 143 148 149 148 149 148 146 148 147 146 147 146 140 133 128 125 124 122 120 119 114 114 112 112 113 116 116 115 115 115 116 118 123 134  80  17  12  10
  13  15  13  10   8   8   7  10  14  21  81 144 151 153 156 160 161 162 163 162 160 161 162 166 169 169 169 169 169 166 162 164 167 167 169 170 167 170 174 171 172 174 175 173 159 158 161 164 171 171 163 151 145 146 148 151 152 153 153 152 148 146 146 146 145 144 138 131 127 122 123 122 120 115 112 111 111 112 113 115 116 116 117 116 116 116 121 128  75  15  10  10
  14  13  11   7   7   8   7  10  13  19  65 142 150 152 154 158 162 162 162 162 161 161 161 162 166 167 166 167 166 163 162 168 171 170 174 172 168 172 174 172 168 168 168 161 153 151 153 156 164 169 164 152 146 145 147 148 149 151 150 146 145 145 142 140 140 140 138 133 125 121 120 121 116 112 110 110 109 111 113 113 116 116 116 115 117 120 122 125  64  15  11  12
  11   9   7   6   7   8   9  10  12  17  48 133 149 153 155 159 162 164 163 162 162 160 159 160 164 165 165 166 162 156 165 175 173 173 177 174 172 171 172 172 169 168 166 162 156 149 147 148 154 155 151 139 135 132 133 134 135 136 137 136 135 134 133 134 135 137 137 133 126 121 120 118 116 113 110 110 109 110 114 115 117 116 114 113 116 119 120 124  53  15  12  12
   8   8   8   8   8   8   9   9  11  15  32 119 150 155 157 161 163 165 164 165 164 161 160 160 161 163 164 165 164 162 167 178 177 175 173 172 170 169 168 165 161 157 154 154 157 160 156 149 145 138 129 122 121 118 115 112 112 114 116 119 120 121 123 127 130 131 130 127 123 120 119 117 116 110 106 107 108 110 114 115 115 113 113 114 115 115 118 117  41  14  10  10
   8   8   9   8   7   7   7   8   9  13  26 103 147 157 162 162 163 166 167 167 164 160 160 158 159 163 164 165 167 169 173 178 178 175 169 163 156 148 141 138 134 137 138 137 138 141 137 129 122 120 114 110 107 105 102 100  94  89  90  97 107 110 115 122 126 128 128 124 121 120 117 116 113 105 102 106 109 110 111 114 114 114 113 113 113 112 114 105  30  13  11  10
   7   8   7   7   6   7   7   7  10  12  19  78 145 157 160 162 163 166 169 168 166 162 157 158 160 163 164 165 168 171 174 175 173 165 154 141 126 115 113 117 118 117 117 117 119 121 120 114 106 102  95  92  92  89  88  83  74  68  68  67  76  89 106 120 124 124 124 122 120 118 117 117 114 106 105 107 107 108 107 111 113 114 113 113 110 111 112  87  19  13  12  12
   7   9   9   7   7   6   7   7  10  11  17  52 141 153 158 162 164 168 170 170 169 161 159 157 158 164 165 165 166 170 171 168 159 144 127 112 106 105 106 107 110 107 105 108 106 104 101  98  96  97  99 100 102  96  94  92  89  86  83  78  76  80  92 109 122 123 121 118 118 117 116 115 112 107 106 107 108 110 110 111 112 113 113 112 110 109 109  62  13  13  15  18
   9   9   8   8   6   6   6   6   8  10  15  34 123 150 157 161 164 167 171 170 167 164 160 160 160 161 164 165 166 169 169 159 139 127 111 109 109 111 112 117 119 118 117 117 113 111 107 106 106 107 109 110 108 103 100  98  96  95  95  93  93  98 106 112 120 121 119 117 116 116 114 113 109 106 105 107 110 111 110 111 113 114 111 110 109 106  99  37  12  14  15  17
   8  10   8   9   8   6   7   6   8   9  12  22  91 149 154 156 159 163 169 169 167 164 161 161 161 161 164 166 165 165 162 156 144 145 138 129 124 122 121 123 124 122 122 122 119 119 116 113 113 112 112 112 110 107 105 104 102 101 102 102 103 106 111 116 117 118 118 116 116 116 113 110 107 105 106 108 109 107 109 112 114 113 110 107 105 102  82  23  14  17  16  15
   7   8   6   9  11   9   8   7   9  10  10  16  56 138 147 151 153 152 164 169 168 164 161 158 160 158 158 164 161 157 160 161 160 161 156 148 139 136 134 135 134 130 130 130 129 128 125 119 117 116 115 115 115 114 112 110 108 107 108 109 111 113 115 117 117 117 118 117 116 113 110 108 107 106 106 107 107 106 108 111 114 110 106 103 100  96  53  14  15  22  19  11
   8   8   8   8  11  10   7   8  10  10  10  14  28 110 144 151 154 155 160 166 167 164 163 160 157 153 155 161 161 159 161 164 166 166 164 158 152 148 145 139 136 133 131 130 128 125 124 119 116 117 119 121 123 122 119 120 122 120 122 121 119 117 117 117 117 117 118 117 115 114 112 108 108 106 105 108 108 107 109 111 110 105 103 101  96  79  24  13  16  22  14  10
   8   8   8   7   8  10   7   8   9  10  12  13  20  60 135 147 153 156 161 163 164 163 162 159 149 142 153 159 160 161 162 164 167 168 167 166 164 163 161 160 153 151 150 146 141 139 136 130 127 129 135 142 143 141 139 138 137 133 130 124 121 122 120 116 116 117 119 117 114 113 111 107 107 106 107 108 109 109 109 108 104 103 101  97  89  45  18  13  19  22  15  13
   7   7   8   7   7  10  11  13  11  10  11  12  18  31 106 142 148 153 156 158 161 162 162 160 146 138 150 157 160 161 161 167 166 166 167 167 167 168 169 169 165 163 162 158 152 148 145 139 135 139 144 147 150 149 147 144 141 137 131 127 123 123 120 117 116 116 117 117 115 112 110 109 109 110 109 109 110 109 108 104 103 100  97  93  76  26  17  14  24  20  16  25
   6   5   6   5   7   9  10  16  16  12  10  11  15  23  57 128 144 148 148 153 159 160 162 160 153 146 152 156 158 159 159 165 167 166 167 168 168 169 170 169 167 166 165 163 159 154 149 146 145 146 147 151 153 150 146 145 140 137 133 128 124 122 120 118 118 117 118 118 116 113 111 110 109 109 110 110 109 107 104 102  98  95  91  84  63  20  19  20  30  19  15  21
   7   6   5   5   6   7   8  15  21  19  16  12  11  18  34  89 134 138 133 139 154 158 159 158 156 153 154 155 156 157 155 162 164 165 167 167 167 167 170 171 168 167 166 164 162 153 149 146 146 146 147 148 149 147 147 144 139 136 134 129 124 122 121 120 120 119 118 117 113 112 112 112 110 109 110 110 107 103 101  98  94  90  85  78  54  19  23  30  29  18  16  24
   7   7   5   4   5   6   8  15  21  24  23  17  12  16  27  49 105 132 132 134 148 155 156 155 155 154 154 155 157 159 160 164 167 165 167 168 169 170 172 172 171 169 168 165 163 158 152 150 149 148 147 147 146 144 144 142 137 137 134 130 125 121 118 119 119 121 122 119 115 115 113 112 109 110 109 106 103  99  95  89  85  84  83  77  45  19  32  34  24  17  17  37
   6   6   5   3   5   6   6  12  17  23  28  25  17  16  25  38  77 115 127 131 140 148 153 154 152 153 153 153 156 159 162 164 168 167 169 170 171 171 173 172 170 167 167 164 162 160 153 151 149 148 147 147 142 142 144 140 137 136 132 129 123 121 119 120 119 121 121 118 115 113 113 112 109 107 106 103  99  95  91  85  82  82  84  75  44  27  35  32  26  18  25  41
   6   6   4   4   5   6   6   7  14  19  25  28  23  19  26  37  66 105 121 125 134 144 147 150 151 150 149 150 155 158 159 163 167 165 166 168 170 171 171 171 168 165 162 156 154 153 142 142 145 145 147 146 142 143 145 141 138 136 133 129 124 122 121 122 120 121 121 117 115 113 112 110 108 106 103  98  95  89  85  82  82  86  86  74  44  35  35  31  25  21  32  39
   5   4   5   4   4   5   5   7  11  16  21  28  28  23  27  38  63 101 124 124 126 133 141 146 147 147 148 150 153 155 158 161 164 162 165 167 168 170 169 167 163 162 160 155 150 147 139 138 140 142 146 148 147 146 146 144 142 139 137 133 129 125 123 123 122 122 121 116 113 110 108 106 105 102  97  92  87  84  82  84  89  92  86  73  42  37  32  30  29  24  32  39
   5   5   5   4   4   4   6   5   7  12  18  25  31  26  28  38  60  92 124 131 126 124 129 137 140 143 145 149 150 153 155 159 162 161 163 166 167 169 167 165 165 164 163 161 153 150 147 145 142 143 150 153 150 145 143 145 145 142 140 137 134 130 127 126 125 123 120 115 111 108 106 104 100  96  90  87  84  84  85  89  96  94  86  70  39  31  29  35  30  26  30  36
   6   6   5   4   5   5   6   6   7   9  14  20  30  32  30  40  59  88 119 135 137 128 123 127 133 138 141 146 147 149 154 158 161 163 163 163 163 165 164 161 166 168 166 165 159 156 155 151 146 147 152 156 155 150 145 144 146 145 142 141 136 133 131 129 126 122 119 112 108 105 101  99  94  91  88  85  85  88  91  95  97  95  87  65  37  26  25  34  27  27  28  34
   6   7   6   5   6   7   6   5   6   8  11  16  27  37  33  38  58  87 113 134 142 138 130 124 124 129 135 143 145 147 151 155 160 162 163 162 163 165 164 161 164 168 167 168 167 164 159 154 152 152 155 161 164 161 156 150 147 147 145 141 136 131 131 130 125 120 115 109 105  99  96  93  89  87  84  86  89  93  98 100  98  96  85  62  34  25  22  26  25  26  28  31
   5   7   6   4   5   6   6   4   5   7  10  16  23  37  39  39  58  83 110 134 141 144 139 132 126 124 127 136 141 144 148 152 155 159 162 163 167 166 164 161 166 168 168 170 170 167 162 158 155 156 161 167 170 167 161 156 151 149 145 139 135 130 127 127 121 115 110 105  98  94  91  89  88  88  87  90  94  99 102 103 101  97  85  60  36  25  22  26  23  21  25  27
   5   6   5   4   5   5   5   4   5   6  11  17  21  36  44  41  54  81 107 134 141 148 149 142 134 127 127 129 135 140 144 150 152 157 162 164 168 169 168 168 173 173 171 170 167 166 163 159 157 160 165 170 171 167 163 157 151 146 143 137 132 127 123 120 116 109 105  98  92  90  89  88  88  89  91  96  99 103 106 106 103  98  84  56  37  23  27  28  23  21  24  26
   5   5   6   6   6   7   5   4   6   7  13  17  19  37  46  45  53  78 103 134 147 151 152 149 146 136 129 129 132 136 138 145 149 151 156 161 168 172 173 173 175 174 171 169 166 166 163 160 160 163 168 170 169 166 161 155 149 145 140 135 127 121 119 115 110 104  99  93  90  90  90  90  89  92  96 101 106 108 109 109 108  98  77  53  37  24  28  27  23  23  22  25
   6   6   7   8   7   7   6   6   7  10  15  15  21  38  47  45  53  74  99 132 149 154 155 157 155 150 137 132 132 131 132 139 144 149 154 159 164 170 173 175 174 172 169 168 169 167 164 163 164 162 162 163 164 162 158 152 144 141 137 129 123 118 114 109 103  98  93  89  90  91  90  90  92  98 103 107 111 113 112 112 110  97  70  50  34  23  26  25  24  23  21  22
   7   7   8   7   7   6   5   7  11  13  14  16  23  38  43  41  50  73 102 129 146 152 155 155 155 156 150 138 133 130 130 131 136 141 147 154 160 164 170 171 169 170 169 169 169 166 164 163 163 160 159 159 159 157 153 146 137 134 130 124 119 114 106 100  97  94  92  91  93  91  91  94  99 104 110 114 115 116 116 115 110  94  63  46  34  24  25  24  20  21  18  20
   8   8   9   7   5   6   6  10  15  15  16  17  29  37  39  38  48  71 104 131 147 150 153 154 158 159 157 148 139 132 129 128 130 133 141 149 155 159 161 164 165 166 166 166 163 160 159 157 155 152 154 154 152 148 145 139 132 128 123 118 112 104  98  95  95  94  95  95  96  95  94 100 104 111 118 121 121 121 120 118 108  90  62  48  35  25  24  26  23  22  15  17
  10  10  10   7   6   8  10  14  16  15  17  23  34  31  37  33  41  69 111 141 150 150 152 155 158 158 158 156 150 142 136 132 131 130 132 136 142 144 148 159 159 159 156 154 153 153 150 146 144 142 144 142 139 137 134 128 123 119 115 109 103  96  95  96  97  99  99 100  99  99  99 105 113 119 122 124 125 123 122 117 106  87  59  46  34  27  24  26  26  24  20  17
