P2
92 112
255
 142  96  86  75  68  65  42  28  31  34  40  48  54  53  49  50  53  55  58  59  61  54  45  42  45  44  44  45  46  50  54  50  46  45  50  59  59  61  61  61  62  65  69  73  77  76  86  95  99  99 102 105 113 120 124 126 127 111  99  87  75  74  81  89 103 105 107  94  80  79  80  71  62  57  50  44  41  38  33  31  25  25  24  27  27  25  25  26  26  26  25  24
 141  96  78  70  69  55  35  32  34  40  47  53  56  55  56  57  59  59  59  55  49  44  41  40  42  43  44  47  50  49  48  42  41  45  46  48  52  53  53  55  58  61  64  67  71  76  85 106 108 104 107 114 123 123 121 122 122 113 108  98  92  84  78  82  89  99 109 109 101  91  83  81  87  99  91  84  73  60  48  40  29  25  25  26  27  25  26  27  28  30  30  26
 144  94  75  71  56  45  37  35  43  50  53  54  54  54  52  54  57  57  52  44  40  40  43  44  44  46  48  47  46  45  42  38  39  43  44  45  49  51  52  55  54  58  61  67  78  93  91 102 106 106  99  98 104 105 103  99 100 109 113 109 102  96  86  79  81  84 100 116 116 104  94 101 110 110  93  82  73  63  55  49  39  33  29  25  26  27  28  28  36  37  35  35
 124  94  72  57  46  44  47  49  53  54  50  49  49  50  53  54  52  46  42  40  41  42  43  44  44  46  46  39  37  41  39  38  40  40  41  44  47  49  48  51  55  59  63  66  70  73  69  72  72  74  73  69  73  77  87  79  82  91 110 131 128 115 105  90  82  77  75  79  91  91  90  95 104 107 101 101 101  96  84  73  54  37  37  32  27  27  28  35 108 126 100  79
 134  94  61  54  49  48  49  47  48  48  49  50  54  57  56  50  45  42  40  40  42  40  39  40  42  46  43  37  33  37  38  39  38  39  43  47  48  47  46  47  47  47  49  49  44  43  46  51  51  52  55  57  60  63  71  80  85  97 103 120 149 146 131 116  98  85  76  74  76  77  78  83  92 100 102  98  93  92  89  88  87  74  49  39  32  26  26  44 168 209 207 188
 106  70  58  57  53  50  50  50  49  47  51  56  58  52  48  45  44  43  41  39  39  37  39  42  47  48  36  33  35  38  35  33  38  43  44  44  43  42  40  39  40  40  42  41  42  45  49  51  56  61  64  68  69  71  76  84  89  96 109 126 147 166 163 164 136 108  97  89  81  74  70  71  77  88  96 104 109 101  92  82  73  77  72  53  39  31  28  36 165 218 215 213
  75  62  54  56  55  53  54  53  55  56  57  57  53  50  47  46  45  44  40  35  39  40  43  47  45  39  36  37  37  38  35  39  44  43  40  39  39  38  35  39  41  43  46  51  56  61  64  67  72  79  85  88  87  86  87  97 106 111 127 139 150 173 198 214 198 155 137 124 110  99  91  77  67  70  79  85  92 104  99  89  80  69  62  57  51  39  32  56 168 195 205 217
  82  64  56  56  54  54  55  57  58  56  56  52  49  50  48  45  42  40  38  39  42  44  45  42  37  36  38  35  33  34  39  40  40  37  35  33  32  34  40  46  52  59  66  73  79  83  86  92  95 100 105 107 107 107 106 117 128 128 141 161 168 197 221 228 235 220 195 171 152 139 123 113  96  72  65  70  77  84  88  87  81  77  64  58  50  49  46 119 184 190 212 216
  79  64  54  54  55  56  54  54  54  52  50  47  48  48  44  39  37  38  41  44  45  43  42  39  37  35  35  33  34  38  39  39  37  32  31  32  34  42  53  62  72  79  87  94  99 102 104 108 111 116 120 122 124 127 130 139 152 163 174 191 206 222 234 240 244 241 229 223 202 176 157 141 129 116  85  59  59  68  76  73  75  77  73  60  53  53  68 167 209 216 217 209
  63  57  56  56  54  54  53  52  51  48  46  45  46  44  39  37  37  41  45  46  45  42  40  36  35  35  34  34  38  40  38  35  32  32  31  37  46  59  70  79  90  97 101 105 110 113 117 120 122 125 129 132 134 142 150 161 171 192 209 222 225 241 246 246 247 244 236 237 232 220 200 176 156 137 126  86  49  49  57  64  66  67  79  78  59  48  89 188 213 221 218 218
  57  56  54  49  48  51  53  52  50  46  44  43  43  39  36  37  43  47  46  47  42  37  37  34  35  37  34  37  40  39  33  31  31  32  35  46  58  73  85  94  99 106 114 117 119 123 127 129 130 132 137 144 151 166 182 194 207 218 223 230 238 247 249 248 247 245 243 241 238 238 229 220 205 181 158 129  86  43  43  55  65  65  63  82  75  52 101 167 190 215 215 218
  56  52  46  45  47  52  52  49  48  45  44  43  40  40  43  46  46  46  44  40  37  33  33  34  35  36  38  40  39  35  32  33  33  36  43  58  71  88  97 106 113 118 122 126 130 134 137 139 139 147 155 171 189 204 215 218 225 231 238 244 245 246 249 248 244 242 242 246 245 235 230 223 219 215 201 177 139  85  36  45  58  63  58  65  87  55  98 158 166 198 210 213
  51  44  41  46  51  51  47  42  41  43  44  42  40  44  49  51  47  41  39  38  32  32  34  34  38  39  39  39  39  37  35  35  39  45  59  71  83 100 107 115 122 127 130 135 139 145 148 154 156 168 189 207 221 225 231 232 237 239 242 244 247 245 246 245 242 246 242 245 245 237 227 217 218 218 215 208 189 140  79  40  51  59  57  57  80  71  99 160 162 193 215 217
  46  43  45  51  53  48  42  40  41  43  42  44  46  50  52  50  42  40  38  34  35  35  35  40  46  41  38  40  40  39  40  45  48  58  75  82  96 110 117 124 130 134 138 143 146 152 158 165 172 182 195 209 217 227 234 237 236 237 238 237 242 241 238 239 236 238 236 236 239 236 226 220 215 216 217 215 211 195 142  66  48  58  57  55  70  92 110 159 159 188 212 218
  42  42  49  53  47  41  41  42  42  41  45  52  54  51  47  43  40  38  35  38  37  34  39  50  47  41  41  42  40  41  48  53  61  77  89  94 111 118 123 132 137 141 145 150 155 160 167 172 184 194 200 211 219 221 228 234 238 234 235 231 234 235 232 232 229 225 222 225 227 225 220 219 214 212 213 215 213 212 201 142  56  64  61  52  58  96 111 150 170 189 205 215
  41  46  51  48  41  38  42  46  44  49  52  51  48  44  44  42  39  39  40  40  35  39  51  52  45  42  43  44  45  51  60  66  80  95 100 104 115 123 133 138 145 149 152 157 163 168 175 181 187 193 198 206 212 211 210 213 210 210 222 223 221 223 223 223 223 220 218 218 222 222 220 216 214 212 212 211 211 210 211 205 125  67  61  54  46  94 100 137 170 182 201 212
  43  48  47  43  40  42  44  46  51  54  51  47  46  45  43  41  40  44  42  37  36  43  49  47  42  43  46  47  56  64  67  79  93 102 100 114 125 133 140 145 147 151 157 162 166 171 175 184 187 187 189 198 200 197 199 197 202 202 208 213 211 209 213 214 214 212 213 214 217 217 216 212 205 201 202 207 209 207 208 214 204 114  61  57  44  79  91 116 160 176 202 213
  51  49  43  40  43  46  50  52  52  49  45  43  45  43  40  42  46  45  40  36  41  47  47  43  43  45  50  58  70  72  71  91 103 107 109 126 136 142 146 147 153 156 159 162 167 173 176 180 179 179 182 188 190 194 197 196 202 199 199 202 205 206 208 204 208 205 207 212 217 217 214 208 208 201 199 200 205 205 203 209 218 200 100  61  41  60  98 104 143 164 191 209
  53  45  41  44  49  50  54  53  47  46  48  45  45  44  46  49  48  42  37  40  47  51  46  45  47  54  63  71  79  79  93 106 109 109 128 139 146 149 152 154 157 159 160 164 168 172 176 177 177 178 181 182 188 187 190 190 194 201 203 200 200 198 205 208 205 205 212 215 214 213 214 208 204 204 203 198 197 203 203 202 214 221 178  77  47  42  94  97 113 143 173 186
  46  41  46  49  53  53  54  47  46  48  49  48  48  49  51  48  44  41  43  48  55  52  49  49  57  66  74  80  80  91 107 113 112 130 140 147 153 154 154 155 158 159 163 166 168 172 173 174 175 176 176 181 183 182 187 186 187 193 186 184 184 187 190 189 198 201 201 203 206 207 210 211 209 204 203 199 197 198 200 200 204 217 217 132  56  42  86  91  97 124 129 140
  43  47  53  56  56  53  48  48  49  49  51  51  53  54  52  45  42  44  49  57  56  52  52  59  69  77  83  82  90 105 109 115 131 143 147 152 155 154 155 159 159 160 163 165 166 169 171 172 175 175 175 176 174 173 178 184 185 182 183 184 187 188 185 187 191 194 199 201 209 208 206 209 210 208 205 208 201 199 198 197 200 209 218 197  88  58  77  86  93 122 123 143
  50  54  57  59  55  50  49  51  50  50  52  53  55  53  51  49  48  47  54  57  54  56  63  72  81  88  86  95 112 111 119 138 148 151 152 154 155 157 159 161 162 163 164 164 165 167 166 166 168 170 171 174 175 174 172 174 175 172 182 190 194 195 192 191 191 191 193 195 196 201 202 205 204 205 204 202 197 197 197 198 202 205 212 219 148  73  80  83  86 109 112 138
  58  58  60  59  55  52  49  50  50  54  57  56  55  49  52  53  50  53  56  54  57  62  71  80  83  87 103 114 120 134 146 152 158 155 154 156 157 160 162 162 161 164 164 165 165 166 167 167 167 168 170 171 170 171 172 172 175 178 184 188 186 183 187 192 194 192 193 194 197 202 209 212 205 208 211 202 198 199 199 201 204 203 206 218 209 102  84  87  81  96 101 120
  61  61  60  56  55  52  53  56  56  57  57  57  53  55  59  56  54  59  55  55  63  71  76  80  92 114 125 137 146 151 154 156 158 155 155 158 159 160 161 165 166 168 166 164 162 165 169 170 168 168 170 169 169 170 172 175 181 184 184 186 186 187 188 190 191 195 196 198 202 202 202 206 210 209 209 204 198 198 201 201 202 201 201 211 222 168  92  94  83  87  95 111
  64  63  59  56  54  54  57  58  60  61  58  56  59  62  58  58  59  56  56  62  69  83 102 119 133 142 148 154 154 155 155 157 161 160 159 160 161 163 164 168 170 172 171 168 165 166 168 168 166 165 167 167 167 171 176 179 184 190 187 187 191 194 194 193 197 203 201 201 198 201 205 209 211 213 212 208 207 208 208 207 204 204 203 205 218 218 117  99  88  86  88 100
  61  63  61  57  58  58  60  62  61  60  59  61  63  62  59  58  56  57  62  76  97 120 130 142 149 152 152 155 157 157 158 160 163 164 163 162 163 165 168 171 171 170 169 166 164 166 167 167 166 168 170 172 171 169 173 182 189 195 197 195 198 201 203 202 203 202 198 200 203 206 211 212 208 213 215 212 214 214 213 211 209 208 203 202 216 224 168 104  93  88  85  96
  62  64  58  56  61  62  65  63  58  60  64  65  61  57  58  58  63  71  84 107 125 135 143 149 153 154 155 161 163 163 163 166 166 166 165 164 164 165 168 170 169 168 167 163 162 165 169 173 173 173 175 176 175 175 180 191 197 202 205 204 205 208 204 204 202 200 202 203 203 206 212 218 216 220 225 224 221 216 216 214 211 210 207 202 206 219 211 121  96  90  86  77
  65  64  61  61  65  65  63  61  61  65  67  63  60  58  58  64  75  88 106 126 136 144 147 151 155 157 159 163 164 167 170 171 169 168 169 168 167 166 169 171 168 168 170 167 166 168 174 179 179 179 181 182 187 195 198 202 206 209 218 210 217 217 216 213 209 208 209 210 209 216 221 222 225 227 227 224 221 221 222 221 217 213 212 209 204 209 221 156  97  97  98  91
  63  62  62  65  63  62  63  64  65  69  66  61  58  54  58  72  87 103 120 133 138 143 148 152 156 158 162 165 167 169 171 172 170 168 170 171 171 169 169 171 171 170 171 171 171 172 175 174 178 180 183 185 193 198 201 207 212 215 224 225 223 221 220 217 216 219 212 211 214 216 219 222 226 229 229 225 223 223 224 224 223 220 218 216 211 203 217 185 100  92 103 110
  65  61  58  59  57  59  66  68  66  60  57  57  55  54  70  86 100 114 124 131 138 146 152 158 162 164 167 168 168 170 172 172 172 171 172 171 173 169 167 168 169 171 171 176 176 176 179 178 182 185 188 190 198 202 208 217 215 217 221 226 222 225 227 223 221 221 215 213 210 212 217 221 224 225 226 226 223 223 223 221 222 222 220 219 217 210 204 203 107  90  91 100
  60  54  49  50  54  60  62  61  57  56  55  55  55  67  81  97 114 122 129 140 147 149 156 162 165 168 168 167 169 171 173 173 175 175 174 173 172 171 170 170 169 171 171 173 177 177 180 185 187 188 192 197 200 202 204 210 213 212 216 221 220 219 221 220 216 214 215 212 207 211 211 214 218 215 208 219 218 222 220 218 218 219 218 219 221 219 210 211 126  93  90  90
  51  46  48  51  55  58  54  49  49  54  57  58  63  73  90 107 120 128 139 146 153 158 162 166 171 172 170 169 169 174 174 176 176 175 173 172 172 171 172 170 169 170 170 172 173 177 182 184 189 190 194 198 197 199 203 204 204 205 205 211 216 214 209 211 209 209 212 209 208 206 205 204 207 208 212 212 210 214 214 213 215 216 216 217 220 222 220 213 145  93  96  99
  42  40  42  48  52  52  46  45  52  57  59  60  65  79  96 116 124 135 143 155 161 164 165 170 175 174 172 172 171 173 174 175 177 174 173 172 172 173 173 172 169 169 170 171 174 178 181 182 184 188 188 189 190 192 197 201 199 194 198 200 202 203 200 201 199 203 203 197 196 199 202 199 197 199 208 203 199 199 201 201 206 208 210 214 216 220 221 220 164  89  91  96
  31  35  40  45  45  42  38  42  52  58  57  59  67  84 107 126 140 147 157 163 169 171 170 174 175 176 174 175 176 177 177 177 177 178 177 175 174 173 171 169 170 170 170 169 172 173 178 179 181 184 186 184 184 188 185 191 192 188 185 186 186 186 190 190 192 188 187 186 184 184 183 186 184 185 186 184 184 183 185 186 191 193 193 202 210 212 219 220 179  92  85  88
  30  36  39  39  36  31  33  46  54  57  57  64  76 100 116 136 149 160 167 172 173 173 174 175 177 178 178 178 177 175 177 177 178 178 174 169 169 169 168 168 170 171 171 170 172 172 175 178 179 178 177 176 178 178 178 179 181 180 178 173 175 174 178 180 183 180 179 177 177 173 171 173 172 172 171 169 168 169 169 173 177 179 183 185 196 200 207 210 190 107  83  74
  30  33  34  33  27  26  45  54  57  57  60  72  87 108 131 148 160 169 171 176 174 176 177 178 179 179 182 179 179 179 177 177 177 174 170 169 168 162 163 168 169 170 172 172 171 171 172 173 174 173 172 172 174 169 172 173 172 169 169 167 167 167 168 171 168 168 167 168 166 166 167 164 164 162 162 159 153 152 152 155 156 156 160 161 160 161 165 177 184 128  91  84
  31  32  32  25  21  36  54  61  63  62  68  80  98 126 142 157 164 167 171 175 175 176 178 180 179 181 183 180 181 179 179 178 175 169 167 167 164 160 163 168 169 168 171 171 169 169 167 169 170 171 170 166 165 165 165 164 163 162 160 157 156 155 156 158 157 159 157 158 159 158 157 153 156 158 157 152 145 142 137 131 129 129 124 124 129 135 137 144 151 144 110 103
  30  27  24  20  27  39  52  63  66  69  75  87 111 132 152 161 166 171 173 175 176 177 180 182 183 182 183 182 183 182 180 178 173 169 167 166 166 166 165 167 169 165 164 163 164 161 161 164 164 163 162 159 158 157 156 152 152 152 148 147 145 143 146 148 149 150 149 149 151 152 151 145 145 147 142 140 134 128 119 110  99  83  81  88 100 105 108 115 126 137 113 101
  21  18  17  19  27  34  46  57  63  71  77  95 124 145 157 163 167 171 175 178 179 179 180 181 182 184 186 185 185 183 180 175 171 170 167 164 165 167 165 168 163 159 150 149 154 150 148 150 149 145 143 139 142 141 137 131 133 134 133 126 131 135 139 140 139 140 141 141 146 147 144 139 136 138 135 131 124 115 106  94  80  74  78  82  88  94 100 107 114 128 123  95
  17  15  15  18  24  27  38  48  57  70  83 104 136 156 164 165 166 172 175 181 182 181 182 182 183 184 185 186 185 183 179 176 172 171 168 166 167 168 169 166 158 144 144 139 133 130 132 130 127 122 122 124 122 114 101 100 105 111 115 114 114 124 127 131 133 133 135 138 141 142 138 136 135 133 130 123 115 107  96  85  82  80  84  89  92  99 107 111 115 124 130  88
  15  12  13  17  18  22  30  40  57  74  90 113 146 162 167 163 162 170 175 180 181 180 180 183 182 184 184 185 183 179 175 169 167 168 168 169 168 167 165 159 140 133 134 130 122 117 116 118 120 121 116 110 102 103 103  98 104 110 110 106 105 113 118 123 126 126 134 139 139 141 138 136 132 130 125 117 110  99  92  92  95  98 103 106 107 109 112 113 114 122 129  68
  12  12  13  14  15  17  22  37  58  77  93 124 157 164 167 165 165 170 175 178 178 179 179 182 182 181 180 182 182 178 173 170 167 167 167 166 163 153 145 136 136 135 134 133 128 121 121 118 116 117 113 107 103 103  99  99 104 110 107 104 107 110 116 121 124 132 141 143 143 142 139 135 128 125 118 109 103  98 100 104 104 105 108 108 108 109 108 108 110 117 113  43
   8  11  12  13  14  16  20  37  61  80 103 129 156 167 169 170 172 172 174 178 179 179 179 179 181 181 180 181 180 175 172 171 167 162 158 155 147 133 131 133 133 133 129 127 128 127 131 133 129 123 122 119 119 120 113 111 115 117 119 122 125 126 128 130 138 143 147 148 146 144 139 134 127 121 113 105 102 101  98  98  99 100 100 101 101 101 100 102 104 111 105  62
  10  10  11  11  12  14  22  35  63  85 107 133 157 170 170 169 169 172 175 177 178 178 179 178 180 180 180 179 178 175 170 169 163 152 147 143 131 133 142 148 151 157 152 152 151 144 143 143 139 135 134 131 131 130 128 129 132 136 138 142 144 143 144 148 154 156 158 157 152 148 141 134 126 118 108 100  95  87  84  88  92  94  93  96  99 100 105 107 105 109  94  78
  10  11  12  11  12  15  23  36  60  86 112 140 160 170 170 169 170 172 176 176 177 176 178 179 179 180 175 174 175 172 167 159 153 150 148 144 146 155 163 162 160 160 158 156 153 151 146 143 139 136 134 131 129 127 125 123 127 133 140 146 149 151 153 157 164 166 168 165 157 148 141 133 124 114 102  89  79  75  76  81  88  92  95  98 109 116 124 120 107 111  85  75
  10  12  14  13  14  18  25  38  61  92 117 146 161 170 170 171 171 173 175 174 177 177 176 179 179 178 172 171 169 161 156 160 165 173 169 167 174 176 174 172 169 165 159 156 151 145 142 139 135 131 128 125 121 118 115 113 114 119 126 136 142 150 154 161 170 173 173 169 161 149 143 135 123 105  84  69  63  64  67  74  81  87  90  96 111 122 135 148 128 119  82  79
  12  13  14  16  18  21  27  41  67 100 123 142 159 170 171 172 174 175 178 178 178 177 175 177 179 178 175 172 167 163 165 174 180 183 184 181 178 177 175 171 165 159 158 155 149 145 140 134 130 126 117 110 105  97  97  95  96 102 109 117 130 142 150 161 171 176 181 176 167 156 147 144 126  88  65  57  53  56  63  72  78  82  80  77  79  90 102 121 142 132  75  70
  14  15  16  18  22  26  37  57  82 107 122 138 157 168 170 171 173 175 177 178 178 179 177 178 179 177 175 171 171 170 174 178 180 181 182 180 174 170 168 167 162 158 157 152 145 139 130 122 116 109 100  92  87  78  71  70  75  83  91 100 113 129 144 163 176 178 184 183 176 166 160 159 138  77  59  55  54  58  65  68  64  52  42  45  53  69  83  83 101 132  82  59
  15  16  18  20  24  36  49  60  87 109 119 135 152 163 169 171 172 173 174 178 179 180 178 177 177 177 176 174 173 178 180 181 183 182 178 174 170 165 165 164 158 152 149 143 138 132 124 118 114 112 106  96  91  77  73  70  66  71  81  94 109 123 139 159 175 179 184 186 183 174 179 191 164  90  59  58  61  64  66  59  59  49  41  42  54  70  84  84  82  97  97  81
  15  17  25  24  26  36  48  61  87 101 117 132 150 162 168 170 172 173 175 179 179 180 179 177 176 178 177 177 179 182 181 182 183 177 174 170 166 161 153 149 146 145 142 137 136 135 131 123 108  91  72  57  59  63  64  64  69  71  78  93 116 133 145 158 167 177 178 180 179 179 191 217 209 133  65  63  67  73  79  67  63  55  36  41  65  81  95  95 116 115 108 102
  12  15  19  19  27  39  56  72  87  98 113 129 150 161 167 170 171 172 175 177 178 179 179 180 177 178 179 181 179 182 182 182 181 176 172 166 158 148 142 146 147 146 150 158 151 134 107  81  59  51  40  34  42  73  67  59  62  74  83  90 117 138 146 155 168 174 172 172 172 179 195 224 239 208  92  60  66  70  78  77  63  57  48  51  65  86  89  96 132 161 149  90
  11  12  15  23  33  48  65  76  85  97 108 126 145 156 162 168 169 170 173 174 179 178 179 181 180 182 183 183 180 182 182 179 176 171 165 162 158 156 154 154 152 152 143 122 110 104  99 100  77  62  51  38  44  85  70  63  62  76  95 110 120 133 141 149 161 169 165 164 167 177 191 215 242 239 181  69  60  60  63  68  63  57  53  55  69  81  84  97 140 175 191  89
  12  12  17  26  36  47  62  73  82  95 107 125 138 145 158 168 169 169 171 174 179 179 179 180 182 186 187 184 184 185 183 177 172 165 161 160 158 154 141 132 118 101  97 105 124 119 119 123  87  75  56  40  65  78  65  63  63  72  89 112 130 137 139 141 148 155 157 158 164 171 181 203 226 248 234 153  69  64  64  66  67  66  63  64  69  76  89 115 163 188 210 129
  17  19  27  33  40  49  57  72  84  96 109 123 134 144 158 170 172 173 174 178 179 180 180 180 180 183 187 187 187 188 186 179 170 164 159 156 145 134 124 101  88  99 119 117 130 122 155 149 110  82  77  76  78  73  72  72  75  80  91 104 118 129 131 134 143 148 152 156 161 168 176 189 205 231 247 221 111  62  62  65  65  67  70  74  81  90 105 121 167 203 216 175
  26  28  33  40  49  56  64  76  84  99 110 127 141 150 157 169 172 173 175 178 182 181 180 180 181 184 186 187 188 188 184 178 170 162 157 158 157 137 116 108  97  97  97 111 130 134 144 146 138  99  78  72  76  79  79  78  79  82  90  94 109 119 121 125 135 143 149 155 159 164 172 177 181 199 236 246 198  80  65  65  65  69  75  83  90  99 109 126 169 205 216 216
  42  40  41  51  60  64  71  80  90 104 119 131 143 155 161 167 170 175 179 179 181 181 178 178 179 181 185 187 187 183 177 170 159 153 151 152 146 138 134 144 140 141 134 122 115 112 111 112 108 101  94  88  85  86  83  81  81  84  89  94 109 113 113 118 131 141 147 153 158 165 168 171 175 184 208 242 242 165  75  75  77  78  83  89  97 107 124 147 179 203 216 224
  57  53  57  61  64  66  74  86  97 107 120 132 144 159 165 169 172 175 177 178 180 178 178 179 178 178 182 181 181 178 171 165 156 149 146 146 145 149 156 157 159 159 153 145 132 126 125 117 115 105 102  97  91  86  83  85  86  89  92 102 110 115 115 124 137 145 149 157 161 164 164 167 171 176 192 225 245 232 129  86  86  87  91  98 108 123 141 158 184 204 214 221
  78  70  70  72  73  73  82  95 102 109 122 130 143 161 169 171 172 174 177 179 179 179 179 178 179 178 179 176 176 174 167 160 153 148 148 151 151 153 156 159 160 159 152 148 145 140 139 131 128 123 117 107  97  93  93  94  94  96 101 109 116 125 130 136 143 147 152 158 163 164 164 165 165 168 181 206 237 248 215 109  96  94  97 103 113 126 142 163 187 202 211 218
  73  85  86  86  90  94  95  97 105 114 125 134 144 158 165 170 171 172 178 178 179 180 181 180 180 179 178 175 171 168 164 159 156 152 150 149 149 152 154 155 157 154 149 146 141 139 139 135 129 123 115 109 105 105 103 102 103 106 111 118 130 139 143 146 149 153 160 160 162 164 164 160 160 167 179 192 215 245 244 191 109 104 104 109 117 127 142 157 181 195 205 213
  92  89 101 100  97  93  93  97 108 116 131 140 151 159 166 170 173 174 177 178 178 179 180 181 181 179 177 174 170 166 162 160 156 153 150 148 146 148 150 152 151 149 143 141 139 137 135 129 124 121 117 115 113 110 107 108 112 116 122 132 144 152 154 155 155 158 164 164 164 163 161 159 159 164 173 188 207 233 247 235 172 119 118 120 124 130 143 156 172 188 200 206
 126  98  95  97  96  95  95  99 107 118 132 146 154 161 166 169 171 177 179 179 181 181 180 180 181 176 172 172 172 168 163 161 160 155 149 147 146 147 149 149 147 146 141 139 137 134 130 129 126 126 124 121 117 115 114 117 120 124 135 143 151 156 158 157 156 159 163 164 162 160 157 157 158 158 165 178 190 210 242 244 226 173 141 138 136 140 149 156 165 174 182 183
 134 124 106  98  93  95 102 104 110 126 142 148 153 160 165 169 171 178 179 179 181 180 180 180 178 171 170 170 173 171 167 165 162 157 156 151 149 149 146 144 143 142 140 138 138 136 132 131 130 129 126 124 122 121 122 125 130 138 146 150 155 157 160 161 160 162 162 162 159 156 154 155 158 159 166 175 187 203 227 247 243 219 171 153 153 157 162 163 164 163 163 171
 152 142 137 135 132 127 122 122 126 141 149 153 157 161 164 169 173 178 179 181 181 181 182 181 176 170 168 173 175 174 172 170 167 164 162 159 154 150 148 148 146 144 141 139 139 138 136 134 132 131 129 127 126 126 129 133 141 145 147 152 157 159 162 163 164 166 164 160 157 156 156 155 156 159 164 171 184 196 216 241 244 232 208 167 161 170 173 174 174 170 165 168
 154 150 148 152 152 150 141 133 138 145 150 153 159 161 165 167 172 177 180 183 184 183 182 180 178 176 174 176 179 179 177 174 172 169 166 163 156 154 153 154 153 150 143 142 143 142 140 138 136 133 132 132 133 132 135 140 144 146 148 151 157 159 163 164 164 166 162 156 155 156 154 156 157 159 163 168 176 189 205 219 235 232 223 201 165 169 172 174 174 172 171 170
 151 148 147 155 161 158 150 143 147 152 155 156 160 162 165 166 171 176 179 182 185 183 181 179 176 176 179 179 183 183 182 178 176 175 172 169 161 156 157 160 161 162 157 153 151 149 146 145 142 139 136 137 138 139 141 143 146 147 148 154 157 159 163 163 167 168 159 150 152 154 153 155 157 157 162 167 175 182 192 202 213 224 219 213 184 166 166 167 168 166 165 167
 141 142 156 164 167 164 158 153 155 159 158 160 162 164 165 166 169 174 176 181 184 183 181 178 176 179 181 184 184 183 182 181 181 180 179 176 171 166 166 167 166 166 165 163 159 156 154 152 147 144 143 143 144 145 145 145 147 146 149 152 157 160 164 167 169 165 156 146 146 148 149 153 154 154 158 166 176 179 182 190 196 203 205 208 203 167 164 163 162 159 155 155
 142 150 160 162 164 163 159 158 161 163 165 166 164 165 166 167 168 172 175 178 181 179 178 179 179 180 183 185 185 182 183 186 186 186 186 186 184 178 176 173 173 171 170 168 163 159 158 156 152 150 149 147 147 147 146 147 149 147 151 153 156 159 162 168 170 158 150 143 142 144 146 147 147 153 157 166 174 176 178 181 184 186 188 194 204 178 160 160 157 152 147 145
 147 163 165 164 165 166 166 167 168 169 170 169 167 167 168 168 168 170 172 175 178 176 174 177 179 180 183 184 185 186 187 187 191 190 190 190 189 185 181 180 178 174 171 169 164 161 161 158 155 154 153 151 149 147 147 148 151 152 154 154 155 158 164 173 165 150 142 142 146 147 146 147 148 153 161 169 173 173 176 174 173 173 172 176 186 190 155 156 153 146 140 136
 152 169 171 170 172 177 176 172 172 171 170 171 171 170 169 169 168 169 171 174 175 176 177 178 179 181 182 184 184 185 189 190 192 191 191 191 190 185 183 180 177 175 173 171 167 166 167 162 159 156 155 155 153 149 149 149 152 153 153 152 154 157 161 167 152 144 145 154 164 164 159 155 153 156 166 178 183 183 180 175 170 162 158 156 157 173 161 156 150 142 133 130
 154 156 175 181 180 180 177 172 173 174 173 172 171 171 172 171 168 168 172 174 175 175 177 177 179 179 175 179 184 185 187 191 190 190 190 191 189 185 183 180 179 177 175 175 171 170 170 166 162 158 159 158 157 151 150 152 152 151 150 145 147 155 156 155 150 146 151 159 167 166 164 163 166 174 180 186 187 182 180 178 169 158 148 140 137 149 156 154 147 138 128 124
 151 138 149 179 183 182 181 178 177 178 177 174 172 173 174 173 170 170 172 172 171 173 175 176 177 178 170 177 182 180 183 187 189 187 186 185 184 184 183 184 184 183 179 177 175 174 172 168 165 161 158 159 155 153 151 154 153 153 150 146 146 153 156 154 150 150 156 164 168 172 174 176 180 182 178 172 172 169 172 172 166 156 142 130 125 138 151 149 145 137 125 122
 122 114 112 153 185 184 182 179 176 175 173 172 172 174 174 173 170 171 171 171 171 171 172 174 175 178 176 179 182 182 186 187 187 189 186 181 182 185 185 187 186 185 185 182 179 179 178 171 165 162 160 161 158 155 156 155 154 154 152 147 148 150 155 154 152 153 161 168 171 170 170 170 162 163 165 160 162 160 163 164 159 148 134 123 124 145 151 149 142 133 122 118
  73  70  77 117 187 185 183 181 178 176 173 172 173 174 175 174 170 168 169 169 172 172 171 173 175 178 178 180 184 186 186 185 184 184 185 183 185 185 185 186 186 186 183 181 181 177 179 175 169 166 163 164 161 160 159 155 153 152 150 149 149 149 148 148 147 157 164 165 159 133  98  84  92 113 137 147 150 152 159 158 147 134 119 117 141 149 153 151 145 131 118 108
  90  79  78 114 185 179 177 179 179 178 175 173 174 175 176 174 170 169 168 168 171 170 170 172 175 178 179 181 181 183 181 179 177 177 183 183 184 184 183 184 184 181 180 178 177 175 178 176 174 172 169 166 163 160 158 155 151 148 148 148 147 150 149 146 147 156 160 149 124  81  61  73 108 135 149 151 152 150 156 150 133 118 118 161 167 156 154 154 151 132 118  88
 134 131 139 158 178 172 173 175 177 176 175 171 173 173 175 174 172 172 171 169 169 169 169 173 176 177 178 180 180 178 175 172 172 175 179 181 182 182 184 183 182 179 178 175 175 177 177 175 172 172 171 168 166 161 157 153 151 148 148 146 147 151 150 147 147 148 147 139 124 116 123 133 145 154 154 152 153 155 152 134 120 119 176 191 186 171 161 156 153 135 116  65
 172 172 176 173 169 166 165 170 174 173 174 172 171 173 173 172 173 173 170 170 172 172 173 173 172 172 174 178 178 177 173 169 170 174 177 179 180 180 183 180 178 176 173 170 171 174 174 175 175 174 172 168 162 162 156 153 151 148 148 148 149 153 154 152 148 141 138 137 132 133 142 156 160 157 153 153 150 146 137 122 117 121 181 200 198 184 167 160 154 134 111  55
 172 176 179 177 173 169 163 165 174 171 171 172 171 172 172 173 174 172 171 169 173 174 175 173 172 175 178 179 179 179 179 178 177 176 177 178 178 180 180 177 176 174 172 168 169 172 175 175 175 173 172 169 164 162 159 156 154 150 150 151 153 154 156 154 150 143 138 141 141 139 144 152 162 162 160 161 154 143 130 119 118 120 163 205 204 198 175 163 154 131  97  60
 168 170 176 178 175 174 165 155 166 170 170 171 171 171 170 171 171 172 171 170 174 173 172 172 172 175 177 179 179 179 179 180 179 178 173 172 171 171 172 173 173 173 174 171 173 174 177 177 173 174 174 169 164 163 161 158 153 149 149 153 154 154 156 156 156 154 151 151 153 156 158 164 170 173 167 160 147 139 126 121 120 119 148 198 202 202 187 167 151 127  82  57
 159 157 170 178 178 174 165 148 149 163 165 168 170 170 170 170 171 171 171 173 174 174 173 172 171 176 178 178 178 177 177 179 177 172 170 171 171 170 169 172 172 171 173 173 174 174 178 177 174 174 175 171 164 159 160 160 155 150 153 156 158 160 158 157 159 160 162 160 161 161 161 165 170 172 163 151 135 130 125 128 125 123 150 192 199 200 193 175 150 120  77  61
 157 158 169 178 177 172 161 148 131 156 162 164 168 170 168 168 170 169 170 172 175 176 176 174 172 175 180 178 177 175 176 178 178 175 173 172 172 171 170 171 171 174 174 176 175 174 176 178 178 177 175 171 168 156 158 162 161 160 158 160 161 163 161 159 160 161 164 163 163 164 164 168 171 166 158 143 127 126 127 134 133 132 157 192 199 197 188 176 150 117  74  67
 161 163 168 175 175 167 157 143 114 133 158 161 167 169 168 166 167 167 167 170 173 175 176 177 175 176 177 178 178 177 178 177 177 175 167 167 169 172 172 171 170 173 174 176 175 175 175 178 179 177 173 173 173 170 167 166 166 165 164 163 163 162 161 161 162 162 163 164 165 165 165 165 168 163 150 132 120 122 127 136 138 138 158 187 201 198 184 168 146 113  76  69
 155 159 162 164 163 158 148 130 108 125 149 156 160 163 167 166 166 168 170 171 171 175 176 177 177 177 175 178 179 176 175 177 176 174 171 170 171 171 171 171 172 173 172 173 175 176 176 179 180 179 179 179 178 175 173 171 169 170 169 167 167 163 160 164 166 166 163 165 168 168 166 163 162 157 144 128 118 118 121 131 136 138 141 156 182 191 177 166 141 106  79  68
 105 133 143 142 143 139 131 127 125 128 141 149 156 161 163 165 164 166 170 171 172 173 173 175 176 177 178 178 179 175 173 176 176 175 174 170 170 171 172 172 172 173 172 175 177 178 176 177 180 183 184 181 179 178 177 175 173 170 170 169 172 170 168 169 170 169 166 166 167 169 168 163 159 154 143 130 123 121 122 125 125 120 114 116 131 154 162 160 133  94  81  72
  44  66  89  96 101 108 129 139 142 136 138 145 154 159 162 163 164 165 169 173 174 173 173 176 177 180 180 178 179 177 174 174 173 176 173 171 170 172 172 172 172 173 173 175 178 179 176 179 183 183 182 182 182 181 181 178 172 166 168 172 178 174 172 173 173 172 169 167 164 164 165 161 154 144 133 130 128 126 122 115 108  99  96  94  93 108 132 145 125  85  75  74
  40  36  37  39  63  96 128 144 146 141 139 142 148 156 159 161 163 164 168 171 172 177 176 178 179 181 183 180 179 178 175 174 173 173 172 173 173 173 171 173 173 172 172 174 178 176 177 181 184 185 184 185 184 184 182 177 168 165 172 178 177 173 175 176 175 174 171 168 163 159 151 141 132 129 126 125 124 119 111 101  91  87  83  80  78  87 110 127 115  90  77  72
  38  32  34  36  56  99 129 147 148 146 141 143 146 154 156 159 161 162 168 170 172 178 177 178 179 180 182 179 178 177 175 179 176 175 174 173 173 173 173 173 173 172 170 173 177 177 180 183 185 185 184 183 182 184 182 173 165 168 176 180 179 178 178 174 170 169 162 151 141 131 124 119 118 115 112 113 112 106  97  84  75  70  67  64  65  77 102 119  92  78  87  76
  31  34  33  32  46 100 137 148 150 149 145 144 147 150 153 157 159 162 169 172 173 177 178 179 180 179 181 179 177 173 175 179 179 178 175 176 175 174 174 173 174 175 174 176 178 180 181 180 182 183 183 182 182 184 182 178 176 177 179 179 178 176 172 168 159 146 129 115 112 108 106 103 102  99  96  97  93  88  83  78  75  75  78  78  74  79  99 114  76  63  88  86
  29  37  30  28  37 105 142 147 154 152 148 146 148 148 151 155 158 161 168 173 174 175 178 180 180 179 181 181 178 174 175 178 180 180 176 175 176 175 175 175 178 177 177 179 181 181 172 173 179 183 184 184 181 186 185 179 176 175 175 171 167 164 159 147 130 109  97  97  98  94  90  90  91  90  88  86  83  84  85  89  88  83  83  85  89  95 104 104  61  56  70  94
  36  39  28  25  32 102 137 148 158 158 156 154 152 148 146 151 158 161 167 171 174 176 179 180 181 183 183 181 180 179 180 182 182 180 178 177 178 178 179 179 178 178 176 179 182 182 179 179 181 183 183 183 183 182 182 179 175 171 170 160 148 136 127 109 101  98 100 102 103 105 106 101  98  97  95  94  92  92  90  92  91  87  87  88  95 104 109  95  57  53  59  78
  42  37  26  23  26  94 138 151 158 161 162 159 154 149 145 150 157 162 165 169 175 178 178 179 181 183 183 182 184 184 182 182 180 180 181 180 179 179 180 180 180 177 172 177 181 180 179 180 182 182 181 180 180 180 181 179 174 166 157 139 119 106 104 108 110 111 111 110 110 111 110 105 104 102  99  97  97  94  92  92  90  89  89  92  98 107 111  76  48  48  53  59
  40  30  24  20  19  77 137 148 157 164 165 163 161 153 145 146 154 161 164 166 173 176 178 178 178 182 185 186 185 182 181 179 179 180 182 182 180 179 179 181 179 178 177 179 181 178 178 180 181 182 184 183 180 178 177 172 165 156 146 136 132 127 125 125 121 123 122 119 118 115 114 111 110 108 106 103  99  94  93  93  91  89  90  96 102 107 108  60  43  44  47  52
  33  24  22  16  15  63 132 148 157 162 166 165 165 159 148 145 151 156 161 166 175 178 179 180 183 185 186 186 186 184 181 182 182 183 181 180 180 179 179 180 179 178 179 182 184 181 180 180 180 182 183 183 178 176 175 169 161 154 149 153 159 154 149 146 142 138 133 128 126 124 120 114 112 108 106 102  98  97  96 100 101  99 100 102 105 111  98  51  40  41  47  51
  30  25  21  15  14  47 130 143 154 162 165 167 167 161 151 144 147 156 160 166 174 178 179 180 183 185 185 186 185 184 183 183 183 184 182 180 181 182 180 180 181 179 180 183 185 183 181 180 178 177 178 179 175 173 164 159 157 156 159 164 160 159 156 152 149 144 141 137 132 128 125 122 113 108 104 102 103 108 112 111 108 104 105 106 106 117  72  43  38  38  43  45
  30  23  18  15  14  35 125 137 149 160 165 169 166 162 150 144 147 153 159 165 172 176 178 180 181 184 184 184 184 184 184 182 181 183 183 182 182 182 183 183 182 177 177 179 182 182 179 171 170 172 175 176 173 171 165 164 164 164 167 168 165 163 161 159 156 155 152 149 141 137 132 128 116 112 109 108 108 113 116 111 109 106 105 106 110 121  50  39  37  39  39  39
  26  17  15  15  15  25 113 133 146 156 165 166 168 163 155 146 144 150 159 164 167 172 176 180 180 180 182 183 182 180 178 176 172 174 180 183 182 182 181 180 182 181 182 183 182 176 171 171 172 175 175 174 173 169 169 170 170 170 170 168 166 164 162 162 161 158 154 150 145 140 134 129 121 115 113 112 112 114 116 113 111 110 110 110 115 116  43  36  33  35  35  37
  25  13  12  12  13  19  98 133 143 151 162 166 168 167 162 153 148 148 156 161 167 170 175 177 179 180 183 185 181 176 174 175 168 165 174 177 180 181 179 179 182 181 181 179 168 154 154 165 175 176 175 175 174 172 171 171 170 168 168 165 163 165 165 163 159 158 156 151 147 140 135 128 122 118 116 114 113 114 114 112 109 110 114 119 126 117  49  40  34  33  33  36
  21  13  11  11  15  18  82 129 139 148 159 165 168 169 164 156 152 151 153 155 162 169 173 175 176 178 180 181 177 175 175 175 174 176 176 176 179 181 179 179 181 182 181 174 153 141 156 170 176 177 175 173 174 172 170 170 171 171 168 165 163 164 163 163 162 162 159 154 147 143 137 129 121 116 117 115 115 113 111 109 109 115 123 131 142 118  54  44  34  33  33  33
  18  15  12  12  16  22  62 124 139 150 158 165 168 170 170 165 156 153 151 152 158 164 169 171 171 175 178 175 173 175 176 175 176 178 175 173 177 179 180 181 180 180 179 175 167 161 172 176 177 176 176 174 175 170 169 170 171 172 169 165 165 166 165 164 164 162 157 153 147 142 137 130 125 121 117 116 114 113 111 112 114 123 136 150 158 117  49  46  36  33  32  33
  15  14  14  13  16  21  48 115 138 151 159 163 168 171 171 167 161 157 151 150 156 161 165 171 170 173 177 173 170 173 173 172 172 173 172 172 176 177 177 180 180 179 179 177 174 175 179 178 179 178 178 177 176 172 171 174 173 171 168 165 166 169 168 167 166 162 155 150 144 140 135 130 125 118 114 114 114 114 114 116 122 133 157 168 167 123  55  50  40  33  32  35
  15  14  14  15  17  22  38 101 132 146 154 160 166 170 169 167 162 161 157 150 153 159 163 166 168 170 174 174 173 171 166 163 159 159 168 171 172 173 175 177 179 178 178 177 178 177 176 177 177 178 179 179 178 176 177 176 174 172 171 169 171 172 172 171 168 163 157 148 143 140 135 127 123 116 111 111 113 116 118 121 129 144 164 174 174 132  56  59  40  35  34  36
  16  14  15  16  17  24  39  88 130 144 151 157 162 170 171 166 162 166 164 155 150 155 160 162 165 165 166 167 169 166 159 155 145 138 158 166 169 171 173 175 178 176 175 175 176 176 175 179 178 178 179 178 178 176 177 176 174 171 171 172 171 172 172 171 168 162 157 152 147 143 137 130 124 119 113 112 113 118 123 125 134 151 163 173 178 142  59  65  40  34  35  37
  16  12  15  17  20  26  40  76 124 142 150 159 165 171 173 166 162 169 168 160 152 151 154 158 160 161 162 162 163 160 155 154 152 150 157 163 167 170 173 176 177 176 174 175 175 175 175 178 177 176 179 178 178 175 176 178 175 170 171 171 171 171 171 169 166 162 158 154 152 149 145 137 128 124 120 116 114 119 128 131 140 153 158 165 173 140  62  73  38  32  34  35
  15  11  14  18  24  28  40  70 114 139 152 160 166 172 172 169 168 169 169 162 158 153 149 152 153 155 156 159 158 153 150 149 149 150 155 160 164 168 171 172 174 175 174 173 172 172 175 177 177 176 177 179 179 177 177 179 177 174 173 173 173 172 171 167 164 161 158 157 156 153 147 140 133 127 122 116 115 121 133 140 144 151 157 161 163 137  61  64  33  29  30  31
  13  12  16  21  28  33  41  62 106 130 143 152 162 170 170 170 171 171 170 167 164 159 151 146 146 149 151 153 151 150 146 144 144 148 151 156 161 162 165 169 171 171 171 171 171 171 173 176 176 177 177 178 179 179 179 179 180 177 175 174 172 173 172 169 166 163 158 155 154 151 147 143 136 131 124 118 118 125 137 145 145 143 148 153 156 126  53  47  32  27  25  27
  14  13  17  22  27  33  41  62  95 124 142 156 163 167 167 169 173 173 170 170 169 167 157 149 146 146 146 146 147 146 144 143 144 146 147 149 153 155 158 163 164 166 164 166 169 171 171 173 172 173 176 179 179 177 178 179 180 180 179 175 173 174 173 172 168 166 160 154 153 150 148 145 135 130 126 123 123 131 138 143 143 137 134 139 147 109  47  38  33  28  21  22
  17  16  19  23  27  31  38  58  88 124 146 156 159 161 164 167 171 172 171 170 171 169 163 156 149 146 145 145 145 142 139 139 140 141 141 144 145 147 150 156 161 160 161 162 166 169 169 171 171 173 176 178 178 178 178 179 180 180 181 180 178 177 175 174 173 171 166 162 157 153 149 142 135 131 128 125 128 134 138 138 136 130 127 127 130  83  41  33  31  28  20  18
  19  17  16  24  29  33  39  56  86 117 139 152 157 162 161 163 168 171 171 172 173 170 168 162 156 152 150 147 147 144 141 139 139 139 138 138 139 140 143 146 149 149 151 155 161 162 164 166 169 173 173 173 174 178 178 177 177 180 181 179 179 179 179 179 179 175 171 166 159 153 148 141 138 134 129 127 129 132 133 132 128 122 115 115 107  62  41  29  25  22  22  22
  19  19  16  20  27  33  42  57  81 115 138 150 159 161 159 164 169 171 172 172 172 169 168 167 163 158 153 150 149 148 147 144 143 140 138 137 138 137 138 141 141 142 143 147 156 158 161 162 166 170 172 173 174 176 175 173 173 176 178 177 177 179 180 181 180 177 173 168 161 155 149 143 140 135 130 129 128 128 128 126 121 112 107 104  91  66  52  43  26  19  22  23
  21  21  17  16  22  31  41  58  77 104 138 153 159 161 162 168 167 169 169 169 170 170 171 170 168 165 159 152 150 149 148 150 150 146 143 143 144 142 139 140 139 138 139 144 150 152 155 157 160 163 165 166 170 172 172 172 171 172 175 176 174 177 179 179 178 176 171 164 160 153 148 143 139 136 130 126 124 124 122 117 114 106 101  91  74  74  64  54  46  28  24  27
  28  22  18  16  20  29  39  57  76  96 132 150 157 160 163 166 167 168 168 167 168 168 170 170 170 167 164 159 156 154 152 153 154 150 148 146 146 146 146 145 144 141 139 141 144 147 149 150 152 157 158 159 165 167 167 168 167 169 173 173 172 175 176 173 171 172 164 159 156 153 147 139 135 131 125 122 118 118 115 110 106  98  83  73  72  73  76  59  51  46  34  29
  27  20  18  16  17  24  34  51  70  91 125 145 154 159 164 167 167 167 165 164 166 166 168 168 168 167 167 164 162 158 156 154 151 149 148 149 148 147 148 146 144 142 142 141 140 141 143 142 143 146 152 156 160 161 162 162 163 165 168 166 166 169 169 166 162 161 160 156 151 146 139 135 130 124 118 113 110 108 104 102  88  69  62  65  73  78  75  70  57  47  43  34
  24  19  17  15  13  19  28  40  63  83 119 149 158 161 164 168 168 167 164 162 163 165 168 168 166 168 168 167 164 162 159 156 153 151 148 149 149 147 144 141 140 141 142 140 139 138 137 136 136 141 144 147 149 151 153 156 158 160 160 158 158 158 157 155 152 153 150 147 141 133 127 125 121 114 105 101 100  89  74  61  45  45  53  63  73  77  78  76  67  56  48  45
