P2
92 112
255
 150 104  88  76  71  66  43  26  29  34  42  52  55  49  43  43  47  50  53  55  54  51  49  48  47  48  49  52  57  59  68  70  83  94  94  97  97 110 116 110 105 102 100  99 100 104 117 129 153 172 159 129 111  98  84  76  73  75  79  90 101 115 119 119 114 106 108 111 119 107  96  83  79  80  80  92 100 103 100  92  80  73  64  49  41  39  38  33  30  31  29  28
 149 101  84  73  70  57  33  28  29  35  43  50  53  53  46  45  49  52  53  48  44  39  38  43  46  51  54  56  58  61  66  67  66  79  83  86  94  99  94  86  85  87  89  92  99 109 124 139 152 162 137 114  99  85  80  78  78  83  90  97 107 117 120 122 122 118 113  97 100 109 100  91  84  82  78  76  84  93  98 102  97  85  77  72  57  45  42  44  42  37  37  34
 159  95  77  73  58  45  27  19  24  31  39  46  52  49  46  50  55  50  41  36  35  32  34  41  50  61  69  70  73  75  78  81  78  78  79  81  82  87  92  90  87  88  92 100 111 123 133 140 160 151 122 102  90  80  80  79  77  79  83  90 103 128 145 155 140 126 117 112 100  83  91  97  93  83  81  76  73  79  90  96  96  93  84  77  71  52  47  44  52  54  48  45
 141  95  73  53  41  34  28  21  24  30  37  43  47  46  51  53  48  41  34  29  28  30  41  59  70  79  84  87  90  93  96 101 103  94  89  90  94  95  96  98 100 105 109 118 136 145 147 159 165 142 120 104  98  88  82  78  76  78  80  85  95 104 124 140 132 109  99  95  90  78  75  75  81  82  78  76  72  72  74  83  92  97  97  89  82  70  57  50 113 129 107  85
 149  94  53  42  39  39  36  30  32  34  38  41  45  55  57  49  42  34  27  24  28  45  66  82  89  93  97 102 107 110 112 115 117 119 115 115 118 118 117 118 120 127 136 145 156 169 179 183 183 153 137 118 113 104  93  87  84  81  81  85  87  98 104 112 131 123  96  84  80  76  71  66  69  70  66  69  70  69  67  70  76  87  96  97  94  85  75  75 169 206 197 183
 120  58  46  49  54  50  45  43  40  36  40  44  53  58  51  44  38  30  22  33  55  79  91  99 104 109 114 119 118 119 120 122 126 128 130 131 133 133 133 135 139 146 158 172 175 183 189 201 196 175 155 146 129 119 114 108 103  97  89  96  95  96  97  92  92 114 124 103  81  73  77  72  66  62  63  66  69  73  71  68  67  71  82  92  95  94  91  84 151 211 208 212
  74  57  51  59  57  49  48  49  41  39  45  48  49  49  45  40  34  27  37  70  90 101 107 114 118 120 120 123 123 124 126 129 130 132 134 137 139 140 141 145 152 158 167 175 183 193 200 207 198 181 166 159 142 136 133 129 123 119 115 107 105 111 103 104 102 100 107 107  98  76  70  71  68  63  58  59  64  69  73  74  70  67  71  80  88  90  94  98 109 154 188 218
  88  67  60  61  52  48  50  48  39  41  48  48  45  50  45  39  32  50  79  97 107 113 118 123 125 126 125 126 129 129 130 133 136 137 138 140 146 147 146 153 158 164 171 180 194 198 208 204 202 179 169 163 146 145 141 133 129 127 125 121 117 116 121 104  91  95 107 104  95  89  79  70  67  67  62  54  52  60  70  77  75  72  68  71  79  85  88  92  94  96 134 185
  96  75  62  53  46  49  54  52  48  44  43  42  47  52  49  47  59  88 102 113 117 122 127 130 132 133 134 135 136 137 136 139 143 144 145 147 150 152 154 162 171 177 183 192 199 204 207 207 198 179 169 161 150 151 148 138 133 132 130 130 125 122 124 127 102  92  94  96  94  87  82  79  66  62  66  63  55  51  55  64  69  71  72  69  66  76  83  87  90  95 101 125
  89  72  58  47  44  52  61  62  50  40  39  44  57  55  57  73  95 107 118 125 129 131 134 136 137 139 140 140 142 143 144 148 152 152 154 156 158 162 170 175 181 185 192 198 203 203 201 204 201 190 177 164 155 156 154 150 144 139 137 137 130 125 129 128 112 100  97  92  88  85  82  78  76  63  60  65  63  58  49  50  59  66  67  66  62  61  73  79  84  88  93  98
  93  70  55  44  46  55  65  62  47  39  37  50  60  65  81  99 113 122 129 132 138 139 139 140 142 146 147 144 148 149 148 154 158 161 163 162 164 172 176 179 184 190 196 202 201 199 201 198 196 191 186 173 162 160 156 155 152 147 142 144 138 130 128 131 115 105 103  98  92  84  81  77  72  69  60  57  61  65  63  53  53  58  62  60  61  61  64  67  75  81  85  90
 104  68  52  41  47  58  64  53  42  39  47  58  68  88 107 117 126 131 134 140 146 147 147 148 153 152 153 154 155 157 157 160 163 164 166 168 171 175 178 180 186 192 193 196 195 193 196 193 191 190 186 179 166 166 162 166 167 159 151 147 143 139 134 131 125 113 105 102  94  82  80  76  72  68  67  57  54  61  66  64  54  54  56  61  57  58  66  61  66  76  80  84
 105  63  48  42  50  59  56  42  37  40  51  67  91 111 122 130 135 138 139 145 146 151 153 154 156 154 157 158 159 160 162 163 165 164 166 170 173 175 176 180 183 190 192 191 188 188 188 192 192 187 178 174 170 166 166 167 165 162 154 151 145 144 139 134 130 117 109 103  98  87  81  77  75  69  65  65  57  53  58  64  64  55  53  57  59  54  55  64  62  65  75  80
  88  61  49  47  50  56  47  36  39  45  56  93 117 124 129 136 140 143 145 149 151 153 154 155 157 160 160 161 162 162 162 163 163 165 167 170 173 176 178 179 179 184 187 185 187 184 181 184 188 184 178 175 174 168 168 166 162 160 156 152 147 147 143 136 133 120 116 108 103  95  87  83  78  73  66  63  65  55  50  53  63  62  54  55  58  58  52  54  62  60  66  73
  82  70  51  46  47  47  36  37  44  53  94 121 129 130 135 139 142 146 151 153 155 160 160 158 158 160 161 163 164 162 163 164 165 168 168 170 173 176 179 179 178 179 180 179 180 181 178 179 185 181 174 175 176 170 167 165 162 160 157 154 149 146 143 138 133 126 122 115 110 101  97  91  83  77  72  64  64  64  55  50  54  63  57  54  54  57  58  51  54  63  61  66
  79  74  59  47  49  45  40  42  52  85 123 128 133 137 140 144 147 150 153 154 157 163 163 161 161 161 164 166 166 166 165 166 167 167 167 170 173 177 178 178 174 175 177 176 176 177 176 174 177 178 174 178 178 172 167 163 161 157 154 154 149 145 141 138 133 128 127 124 116 109 107  99  91  86  77  68  64  61  60  54  51  52  57  57  55  54  57  59  52  59  67  63
  83  69  52  44  46  44  42  50  67 116 128 134 140 142 143 145 147 150 152 154 158 161 162 163 162 163 166 166 166 166 166 167 167 169 169 170 171 172 176 175 175 175 175 176 175 174 171 170 168 173 172 171 174 170 166 162 159 157 153 152 149 146 140 135 132 129 130 128 120 114 114 106  98  93  82  72  67  59  58  56  52  49  50  53  55  56  58  64  62  52  66  65
  78  67  48  44  40  33  39  63 106 128 135 140 143 144 144 146 150 152 156 159 159 162 164 164 162 165 165 163 165 165 166 166 165 168 171 170 171 170 172 171 173 174 172 172 170 171 171 171 169 170 170 171 173 169 163 162 160 158 156 152 151 147 140 134 129 127 130 130 122 116 114 113 106 100  90  79  70  62  56  55  54  50  48  52  56  51  55  62  65  59  52  67
  71  54  47  42  33  36  57  95 124 133 140 144 147 148 148 152 157 157 158 161 162 162 164 164 163 163 166 167 168 168 166 166 165 169 173 173 171 172 172 168 170 173 174 173 170 170 169 171 171 171 171 171 170 169 165 163 163 162 160 155 152 150 145 140 132 125 125 127 121 117 113 112 111 105  97  87  77  69  61  57  53  55  51  50  56  54  53  54  58  63  60  62
  62  49  49  39  33  44  75 120 132 139 141 145 148 150 153 157 159 159 158 160 161 163 163 164 166 167 166 167 169 169 167 169 169 171 172 172 172 171 172 168 169 172 176 173 171 170 170 171 171 169 170 168 169 169 167 165 165 164 161 156 152 148 146 144 140 130 128 125 121 122 120 113 110 108 102  93  84  75  68  64  54  55  56  51  51  55  52  52  52  60  66  61
  46  45  45  38  39  56 104 132 139 144 145 147 147 146 150 153 153 155 155 154 155 160 163 162 164 166 167 168 169 169 169 171 171 171 171 172 170 171 171 168 169 175 174 170 170 170 171 171 169 167 169 170 169 166 164 163 163 164 164 159 155 153 149 145 140 131 130 125 122 121 121 120 116 113 107 100  90  84  75  68  62  57  56  54  51  51  51  52  52  52  59  59
  40  44  42  40  50  77 121 136 140 146 148 147 146 144 146 149 151 152 154 153 154 159 162 160 159 162 164 166 166 166 167 169 172 171 170 169 168 170 172 173 174 172 167 167 167 169 170 167 165 161 159 165 168 165 160 157 156 160 162 160 160 158 155 150 140 131 132 128 123 122 119 119 117 116 113 107  99  91  84  73  68  59  52  54  56  52  49  49  50  51  55  64
  35  44  44  45  58 100 132 140 145 146 149 147 147 146 146 150 153 153 153 153 154 156 161 162 161 163 164 165 164 165 166 169 170 168 167 169 170 168 168 171 173 172 167 169 171 170 169 166 163 161 160 163 166 164 162 160 159 160 159 157 158 159 155 151 143 136 131 130 127 125 120 115 117 116 113 111 106  98  90  80  72  65  54  48  53  57  52  47  47  51  51  59
  43  46  48  49  66 123 136 144 147 149 150 149 150 148 147 149 149 151 153 153 154 156 160 162 164 164 164 165 166 166 167 169 169 169 166 168 171 170 169 172 173 172 170 169 172 172 172 168 167 167 166 168 167 166 165 165 163 161 158 156 156 159 154 151 144 138 134 132 130 126 122 119 116 117 115 113 109 103  94  85  75  70  61  48  45  53  57  50  43  47  52  54
  52  49  48  50  90 136 138 142 146 149 149 149 149 146 146 147 147 148 149 151 154 158 164 163 164 165 166 164 165 167 168 169 171 169 169 172 173 172 172 174 175 177 176 173 172 173 174 171 169 167 165 168 166 167 166 165 161 159 158 160 158 156 153 151 146 142 138 135 131 127 127 125 120 117 115 114 109 104  98  91  82  74  65  52  43  44  53  57  50  45  46  50
  56  48  46  50 111 139 140 144 145 147 147 146 145 145 146 146 147 149 151 153 156 161 167 166 166 168 168 170 170 171 170 170 172 171 171 175 175 174 177 179 177 178 180 178 176 177 177 176 175 171 169 170 167 166 167 165 161 161 162 162 157 156 154 153 149 145 139 137 134 133 132 130 128 122 116 113 110 106 100  93  87  78  70  56  47  41  43  50  54  49  45  46
  56  47  45  56 125 139 139 144 145 146 146 146 146 146 149 150 151 154 157 159 163 168 169 168 172 172 171 171 171 171 171 171 173 176 176 179 180 180 181 183 186 185 188 185 184 185 182 179 178 177 175 173 172 170 171 168 165 164 167 162 159 159 158 154 153 145 141 139 137 136 135 134 132 128 123 118 112 105 101  95  88  81  75  65  53  42  37  40  49  54  47  44
  53  47  45  64 129 138 138 143 146 146 147 147 150 151 152 154 157 160 164 166 168 171 171 172 174 172 171 172 174 176 175 173 175 178 182 185 186 187 186 187 187 186 187 187 184 187 186 186 185 181 177 173 173 171 173 170 167 163 167 165 162 160 161 156 153 146 140 139 139 138 137 137 136 133 130 127 121 111 103  97  90  85  77  72  63  52  41  37  40  51  53  45
  48  44  44  83 133 135 139 144 146 146 148 148 151 153 154 159 162 165 167 168 169 171 170 172 175 175 174 176 175 175 175 174 175 179 183 183 188 189 188 189 189 187 187 190 188 192 192 192 190 190 182 177 175 176 176 175 168 164 165 167 165 164 163 161 157 149 142 138 140 140 140 140 138 137 133 129 127 120 112 103  95  90  83  77  70  62  55  43  37  40  52  55
  50  43  48  97 137 135 137 141 143 146 149 151 152 153 156 161 164 166 169 167 168 169 169 171 173 176 175 175 176 176 175 178 177 177 181 184 185 186 189 187 187 183 184 188 192 194 191 191 195 197 194 188 182 181 178 175 170 167 166 169 166 166 163 161 159 153 145 142 140 141 144 143 141 139 137 134 129 123 118 109 101  93  86  81  74  70  66  60  40  35  40  52
  51  46  48 101 133 132 131 136 142 149 153 154 155 161 161 162 165 167 169 169 171 172 171 171 172 174 175 173 173 174 175 176 177 178 177 179 176 178 183 182 181 185 184 185 187 187 190 193 195 194 195 193 190 187 184 178 172 168 168 165 163 163 162 160 156 154 148 144 143 140 142 141 142 142 139 137 132 126 121 115 107 101  93  87  80  74  69  70  58  38  32  38
  61  49  51 107 125 118 119 128 140 151 156 158 159 162 165 167 169 171 171 172 173 172 174 173 173 175 174 172 174 175 175 175 174 177 177 178 177 176 178 181 183 182 182 182 180 180 186 190 190 185 188 190 190 191 190 185 174 170 170 166 162 161 162 160 157 154 149 140 144 142 144 143 142 140 138 137 133 128 123 119 112 109 101  92  87  80  72  72  71  57  41  30
  72  58  56 103 105 101 106 119 128 135 140 148 155 163 168 167 170 175 176 177 175 174 173 175 176 175 174 176 176 174 173 173 173 177 179 178 176 175 176 177 180 178 178 179 178 178 180 180 182 180 181 185 185 189 188 183 172 170 170 166 162 161 160 158 154 152 149 140 140 141 144 146 144 141 139 138 136 133 126 121 119 114 108 100  93  85  74  69  72  71  58  42
  94  69  78  94  94  95  97 105 110 116 117 119 127 143 157 162 168 175 178 179 178 177 176 179 179 178 178 177 177 175 174 174 175 176 178 177 175 175 175 173 175 175 174 175 176 176 177 177 177 177 178 180 181 185 185 180 175 171 171 166 162 161 159 156 153 148 148 143 136 138 141 145 145 143 141 139 137 133 128 123 121 117 111 105  99  88  78  69  69  74  72  64
 101  77  83  92  99 102 105 109 114 113 109 106 104 114 127 136 148 166 174 179 179 180 180 183 183 181 181 179 177 175 176 180 177 177 178 179 179 176 174 171 171 171 170 171 172 172 173 172 171 173 176 174 173 179 181 179 179 174 170 166 164 161 160 157 153 150 147 144 136 135 139 142 142 141 140 139 136 132 130 127 125 121 116 109 101  92  85  74  69  75  78  66
 116  87  95 107 115 116 122 122 120 114 109 101 102 110 116 119 125 147 167 171 176 185 189 189 188 186 185 184 183 180 175 184 182 181 183 182 180 178 177 176 176 174 172 172 171 169 169 169 167 168 170 169 167 175 177 175 179 178 173 169 164 163 159 155 152 148 147 144 139 131 133 140 138 139 139 138 134 131 130 129 126 121 117 112 107  98  87  80  72  70  75  64
 105  92 114 135 147 145 141 145 143 136 127 117 106 107 114 114 111 128 148 169 177 182 190 193 191 192 193 190 185 186 188 191 189 185 185 186 183 178 183 179 181 180 173 172 169 167 166 167 164 163 165 166 163 161 165 167 172 175 171 171 169 166 160 156 151 146 146 142 138 133 127 132 133 135 137 135 131 132 130 129 127 123 116 111 106 101  89  79  74  68  76  70
 106 108 134 145 155 164 163 168 168 164 161 157 139 118 119 115 107 113 126 147 166 176 186 193 194 193 190 189 186 192 195 195 191 190 191 189 181 181 178 173 170 158 153 151 156 157 148 153 151 153 158 156 155 157 159 161 163 167 169 171 171 166 162 157 148 144 142 140 138 137 131 128 129 132 134 133 131 131 129 129 126 122 118 113 107 100  92  83  75  71  75  78
 105 111 142 153 159 160 162 167 170 170 171 170 171 161 148 137 126 130 133 141 156 166 181 195 197 196 192 191 190 193 194 196 193 189 186 180 177 173 151 138 126 114 112 112 111 121 130 135 133 134 137 136 134 140 142 145 150 157 163 165 163 163 162 157 149 145 141 139 138 138 135 133 132 129 128 127 129 130 128 126 124 122 119 114 107 102  93  84  75  73  70  82
  99 108 143 151 153 154 158 161 165 165 166 168 171 168 165 161 159 155 157 150 159 172 181 193 196 196 194 197 196 196 195 194 190 185 183 177 169 157 140 128 122 112 111 114 123 121 118 119 121 119 121 125 125 124 126 131 138 144 148 153 155 153 155 152 150 146 143 140 139 138 137 133 130 130 129 128 129 129 127 125 122 120 119 115 108 103  95  89  79  74  71  80
  94 108 142 147 149 151 150 148 147 152 154 159 165 165 160 159 161 167 171 171 170 179 185 192 195 194 193 196 193 191 193 191 185 183 177 167 156 146 139 134 124 122 127 130 118 114 115 114 112 112 112 114 118 122 122 124 126 130 137 143 143 145 144 146 147 147 145 141 137 136 134 131 128 124 130 131 128 125 124 123 123 120 117 116 112 108  99  92  80  73  70  75
  93 106 137 144 145 138 123 113 112 111 112 115 128 138 148 153 152 156 163 169 174 179 184 190 194 195 195 194 192 191 190 187 178 175 171 162 156 147 145 143 137 135 138 133 128 134 138 142 125 119 121 125 128 129 129 130 129 127 127 134 136 137 140 146 146 147 146 143 140 137 132 130 130 125 122 126 127 125 124 123 121 119 116 114 112 107  99  90  79  68  68  71
  89 112 136 141 136 120 113 109 117 122 122 119 110 108 109 118 129 142 145 158 168 175 179 186 192 193 193 193 192 190 186 183 178 174 169 162 159 158 161 161 158 159 164 159 158 160 160 156 148 149 156 164 163 152 145 139 137 129 127 130 133 132 136 144 145 147 149 146 141 138 133 129 129 126 123 122 122 122 123 122 122 119 116 113 111 107  98  89  78  68  65  69
  85 116 132 134 121  96  70  54  59  72  85 107 120 118 109 106 107 113 125 141 150 160 169 178 186 189 191 192 192 186 181 179 175 170 166 164 161 162 165 167 169 167 164 163 164 167 170 171 173 170 167 171 171 166 161 160 158 150 145 140 137 136 133 134 136 139 142 147 141 139 135 131 129 126 124 122 121 121 121 121 120 119 116 113 111 106  98  89  77  68  63  64
  86 121 120 108  77  55  69  80  71  61  43  45  69  95 114 116 115 108 104 118 133 141 154 167 177 180 183 187 186 179 173 172 168 159 155 156 158 161 162 161 158 153 148 147 152 157 168 171 171 170 170 171 171 170 166 163 162 160 162 156 148 145 143 141 139 138 135 135 134 135 132 130 128 123 122 123 122 121 119 120 120 117 116 115 111 105  99  92  77  67  62  58
  94 124 105  73  56  75 106 104  87  62  60  67  56  92 107 130 128 121 112 106 121 133 143 156 168 172 176 177 171 164 156 153 152 146 146 150 152 152 148 144 136 131 132 136 137 138 142 140 139 145 152 160 164 163 162 159 158 155 155 154 153 148 147 146 144 141 135 131 127 127 130 129 127 122 122 122 122 123 122 120 120 116 113 113 110 106 102  93  76  66  60  49
 107 118  92  75  78  91 105 116  92  80 100 110  86 118 132 168 156 141 127 118 116 139 146 148 158 164 166 163 158 148 139 140 139 137 135 136 139 136 129 126 123 123 121 120 120 124 127 125 123 121 122 123 128 136 145 147 149 146 147 149 148 146 146 146 144 141 135 133 130 127 126 125 124 124 123 122 123 123 122 121 120 117 114 112 111 109 104  92  76  67  58  47
 125 123 105  93  88  88  99 128 108  97  89  89 105 123 165 181 169 160 147 129 125 127 136 141 151 154 152 144 134 131 128 127 125 123 121 120 119 119 118 121 122 117 112 112 119 123 124 121 118 114 113 115 117 112 113 117 125 133 140 143 142 145 145 146 145 143 137 133 130 127 125 124 124 125 124 123 124 123 123 123 122 120 117 114 112 109 103  90  75  67  56  43
 131 125 114 106  99  94  96 112 120 107  99 100 112 156 180 171 145 127 117 110 109 136 136 139 148 149 146 138 128 123 119 115 116 115 111 107 106 110 121 128 123 113 111 110 107 103 106 109 114 117 114 112 112 108 109 107 107 108 116 130 137 138 141 142 137 141 138 134 131 129 127 124 125 126 124 122 123 125 124 123 123 122 120 116 113 110 102  89  75  67  51  38
 130 129 124 117 114 112 105 107 112 114 113 115 125 135 128 124 115 109 105 101 106 129 139 142 144 142 139 135 127 118 110 106 108 109 105 102 101 110 131 126 113 104  96  95  87  75  55  56  71  83  99 104 110 108 106 104 102 101  99 105 119 128 133 135 131 134 137 133 130 129 130 127 126 125 125 123 125 126 125 122 123 122 120 117 114 111  99  86  72  60  46  32
 130 131 128 125 126 131 137 129 129 131 134 138 152 156 145 143 129 123 122 122 129 137 139 142 139 134 132 127 118 107  99 100 104 103 102 103 102 107 119 120 104  95 108 115 102  66  43  46  47  69  89  88 103  98 103 105 100  98  97  97 102 113 123 127 128 131 134 133 130 129 130 129 130 127 126 126 127 128 127 124 123 122 121 119 114 109  94  82  68  54  41  31
 132 132 131 132 135 140 145 149 153 155 155 150 149 150 146 139 126 121 122 127 134 142 148 149 144 136 129 121 112 101  95  97 101  99 100 106 114 120 121 101  96  89 106 124 104  77 101 160 109 102 122 119 127  98  91  85  88  96  97  95  97 103 113 121 123 128 130 130 130 130 130 128 127 126 126 126 128 129 129 126 124 122 121 118 113 106  94  80  67  55  42  32
 134 133 137 138 140 143 148 152 156 160 159 154 146 134 130 126 124 123 120 117 128 149 156 155 148 135 125 116 109 100  94  94  98  98 100 108 117 121 109  95  91  84  87 115 105 107  89  95 104 111 136 151 148 125 112  86  78  77  83  88  90  96 105 111 118 126 128 130 131 132 131 131 130 130 130 130 131 131 130 128 126 123 122 117 114 107  94  80  69  55  43  33
 135 133 136 138 140 144 147 146 148 149 150 148 143 138 135 131 125 122 117 116 138 157 162 159 147 132 124 116 108  99  92  92  96  98  97 100 109 115 116 111 102  96  97 103 104 100 102 100 102 130 164 168 163 151 145 117  97  75  74  82  87  89  96 104 112 122 126 130 131 132 133 133 134 133 132 133 134 131 130 128 127 125 123 120 115 105  90  79  65  50  42  33
 138 138 136 136 139 142 145 144 148 152 153 150 148 147 141 135 128 123 119 127 157 171 177 167 141 129 122 114 109 101  93  89  91  95  94  92  97 106 111 114 109 107 108 108 110 107 102 115 139 168 172 169 157 153 146 126 106  86  75  75  81  86  92  99 105 114 122 129 132 134 136 137 136 135 132 131 131 131 130 130 127 125 122 120 116 104  88  76  59  45  40  32
 143 143 139 139 142 144 147 150 152 155 153 150 147 145 143 137 129 126 132 154 178 186 190 171 138 124 118 113 110 102  95  91  88  90  92  86  86  95 102 107 107 106 111 117 120 122 120 119 119 124 121 120 116 108 106 103 100  92  86  81  86  89  96 100 104 112 117 126 132 137 137 137 138 135 130 131 132 133 130 130 130 127 123 121 115 104  89  77  60  45  38  33
 151 150 148 149 150 150 148 153 154 155 154 150 147 143 135 134 137 140 154 184 199 205 196 169 135 121 114 110 109 103  98  96  94  90  90  87  80  87  96 102 105 107 111 116 119 128 132 124 129 126 116 118 115 113 108 107 107 103 100 101 102 103 104 104 111 116 119 125 132 137 137 138 138 136 131 132 133 133 130 129 128 126 123 119 115 109  90  75  64  48  38  34
 159 163 159 159 157 155 154 157 157 155 152 148 145 142 146 148 148 160 184 203 218 218 200 165 135 121 112 110 109 107 103 101 101  99  96  93  87  86  94 102 104 108 114 118 122 131 143 150 159 149 140 140 139 133 127 125 123 120 119 116 114 112 111 114 117 119 121 126 134 138 138 139 140 138 136 135 134 132 129 127 125 124 123 119 115 105  90  77  68  55  44  39
 164 169 172 169 167 164 160 159 158 154 150 148 150 154 154 154 165 185 199 213 218 212 187 169 137 120 113 108 109 109 107 107 105 107 105 102  99  93  95 105 109 112 120 124 128 135 146 155 163 163 162 156 153 147 141 139 137 134 130 124 121 119 119 122 125 126 129 133 137 138 140 143 143 139 137 134 133 132 129 125 124 124 122 120 115 103  91  76  70  61  51  45
 169 172 173 170 167 164 159 158 157 159 156 159 162 160 159 164 183 197 206 219 221 206 184 169 138 122 112 106 107 109 108 108 109 109 110 111 110 105 100 105 116 121 127 131 134 141 151 159 165 166 165 162 157 152 148 144 142 139 134 128 126 124 126 129 132 135 137 138 140 142 144 146 144 140 136 134 135 133 128 128 125 124 123 119 111 103  93  80  66  57  53  55
 167 168 167 165 163 162 161 162 161 162 163 164 164 163 168 181 196 206 210 225 228 216 190 165 141 120 110 105 105 108 109 109 110 112 114 116 117 116 113 110 117 125 133 139 142 146 153 159 162 165 165 162 160 155 150 146 142 140 138 134 130 126 129 132 135 138 138 138 142 145 145 145 143 139 137 134 132 131 129 130 127 124 122 117 108 103  94  83  68  57  54  55
 165 167 168 166 164 164 165 165 165 165 164 165 164 169 181 191 200 207 216 230 225 210 190 167 143 120 112 108 105 108 109 110 111 115 117 119 122 125 126 124 124 126 136 142 147 151 155 160 164 165 162 158 158 155 148 145 143 141 140 140 138 134 135 137 137 138 140 141 144 145 145 142 140 139 137 134 132 131 127 129 127 125 121 118 110 104  93  82  72  59  57  58
 169 170 169 167 166 170 170 170 172 170 168 166 167 181 188 197 203 203 216 224 213 194 179 163 143 121 114 110 107 107 109 110 113 115 119 121 124 129 131 132 133 132 137 141 148 152 157 161 163 163 163 158 157 155 150 148 146 144 143 143 142 139 140 142 144 144 145 145 145 144 144 140 140 138 136 133 133 130 128 127 127 124 121 115 109 105  96  82  73  67  67  68
 172 171 167 169 173 174 174 171 172 173 172 170 175 184 190 196 201 200 204 207 191 178 168 157 139 122 112 109 107 107 110 111 113 115 118 122 125 130 131 137 140 142 141 141 146 151 157 162 166 165 162 161 159 154 151 148 148 147 146 145 146 144 144 145 147 146 146 145 144 142 139 138 138 136 135 133 130 127 126 126 124 122 119 114 108 102  95  84  75  73  73  78
 171 171 170 171 173 175 174 174 174 173 171 173 180 189 194 194 195 194 194 192 182 171 163 156 136 119 113 110 109 109 110 113 115 117 120 124 129 132 134 139 144 147 148 150 149 153 159 165 169 169 167 165 163 157 153 152 152 151 149 148 150 148 147 147 148 147 143 142 141 140 140 139 138 137 135 133 130 128 127 127 123 120 118 114 109 103  95  86  80  78  80  85
 170 173 176 176 176 178 177 177 177 173 170 174 186 194 196 196 193 189 186 181 172 164 159 152 136 118 109 107 106 106 108 109 111 115 118 122 129 135 140 144 148 152 154 156 156 157 159 164 171 173 172 170 170 164 160 159 158 155 155 154 153 153 151 149 149 147 141 141 140 139 138 138 137 136 132 131 130 129 127 125 123 121 118 114 108 102  96  92  89  86  86  87
 171 176 178 179 179 181 180 178 175 169 172 183 191 198 198 194 190 185 177 172 165 161 156 151 140 123 111 106 100  97  97 100 105 112 116 120 127 136 141 146 151 154 158 161 163 164 162 163 166 170 171 173 176 176 171 169 165 161 161 159 157 155 153 152 151 147 142 139 138 136 136 137 134 134 131 130 129 129 127 124 123 120 117 114 109 103  97  97  97  98  99 100
 170 177 179 178 179 180 180 176 172 162 180 197 202 206 204 200 191 183 174 166 160 161 165 163 153 134 124 112 105  94  90  91  99 108 114 121 130 136 140 148 152 155 162 167 171 172 170 170 168 169 170 171 174 177 176 173 169 166 164 161 158 155 155 154 152 147 142 138 137 135 135 135 134 132 129 128 129 128 125 121 118 117 116 115 111 105 100 101 102 106 107 108
 169 174 178 180 180 178 176 176 171 165 184 203 210 213 213 211 196 178 167 162 158 157 165 166 161 150 138 125 116 105  93  91  92 103 113 121 129 134 138 148 154 158 164 169 172 173 176 175 172 171 170 169 171 171 170 169 170 169 164 163 159 157 156 153 151 147 142 138 137 133 132 132 132 130 128 126 126 124 122 118 116 117 115 114 111 108 104 104 109 113 114 115
 168 171 178 181 179 176 173 173 173 164 174 198 208 214 214 210 194 174 161 155 153 155 159 160 157 153 144 136 128 119 107  93  89  97 111 122 131 139 147 153 159 164 167 170 172 172 175 177 176 175 175 171 172 169 169 168 166 165 164 161 160 159 157 152 148 143 139 137 136 132 132 132 130 127 125 123 122 121 118 117 117 117 114 113 113 113 113 112 115 116 118 120
 163 169 174 176 177 175 176 176 178 170 166 189 200 205 204 200 188 169 155 148 147 149 153 153 151 151 147 142 135 127 116  98  89  95 112 127 138 145 152 158 163 169 174 175 172 172 176 177 179 180 179 176 173 169 168 167 165 163 161 159 157 157 155 152 152 146 141 139 135 131 129 131 129 125 121 122 120 119 116 116 114 116 116 115 114 114 114 115 117 118 121 124
 164 167 173 173 172 173 178 179 179 174 167 173 187 196 193 187 175 159 151 146 145 145 146 144 146 148 146 146 138 129 117 101  90  94 112 130 143 149 158 164 168 172 176 177 177 175 173 178 181 181 179 179 177 174 169 166 160 161 162 161 157 156 152 151 148 145 141 139 136 134 131 129 126 124 118 117 118 117 116 114 113 114 116 117 117 115 115 118 118 121 124 127
 165 167 173 169 168 172 176 177 176 172 167 163 169 181 181 174 166 155 136 123 116 106  88  75  82  96 129 149 144 133 119 104  94 101 119 136 151 159 166 170 173 174 175 178 179 178 172 176 179 180 180 178 178 177 174 170 163 161 162 159 155 153 149 149 148 145 142 138 137 134 131 129 125 122 120 118 118 117 114 112 113 114 117 118 119 118 116 119 120 122 126 132
 162 163 167 165 165 170 172 171 169 166 162 159 149 155 166 165 159 139 110 108 111 106  89  70  62  73 104 149 153 137 122 106  96 111 129 145 158 168 171 174 174 174 177 179 179 180 175 175 179 181 179 178 179 179 173 169 166 163 157 153 153 149 148 148 146 146 143 139 137 135 131 127 124 122 119 117 116 114 114 113 114 115 116 118 119 121 120 119 120 122 128 133
 162 163 164 165 168 170 168 165 164 163 161 157 149 146 157 163 159 141 123 123 131 130 130 128 126 135 150 162 157 141 121 107 108 127 141 152 165 171 178 177 174 177 179 181 180 180 177 176 181 178 175 176 179 179 176 169 162 159 155 154 153 150 147 146 146 144 142 139 136 134 128 124 123 121 118 116 115 113 113 114 117 116 116 117 116 119 119 117 120 126 134 131
 160 160 162 165 168 167 164 163 163 160 158 158 156 152 162 172 167 160 148 141 145 141 142 139 140 147 153 159 152 133 118 116 131 144 152 158 164 169 178 179 176 176 179 178 176 179 179 178 178 176 175 175 177 175 173 169 157 155 156 154 153 151 149 145 143 142 140 138 134 129 126 124 122 119 116 114 113 113 111 115 116 117 118 118 116 116 118 117 123 137 143 110
 160 157 160 162 164 164 165 162 160 158 160 160 158 159 170 180 179 173 167 163 164 156 147 138 133 129 124 128 123 122 125 134 142 148 154 158 161 165 174 177 176 176 176 174 172 175 174 172 170 170 173 175 175 173 168 160 155 155 156 154 153 153 151 147 144 140 136 131 130 127 126 123 121 117 114 114 114 114 114 114 114 116 116 116 114 116 116 117 129 146 139  81
 160 155 157 161 160 160 161 161 162 164 163 162 162 167 177 185 184 180 176 180 178 173 158 146 139 134 129 128 127 130 136 139 144 150 153 154 156 161 166 173 174 174 174 173 172 170 171 171 171 169 167 170 172 171 166 158 155 154 156 155 153 151 149 145 140 137 133 130 129 127 125 123 120 115 114 114 114 113 113 114 115 114 115 112 111 112 111 116 130 140 128  85
 161 156 158 160 160 158 164 169 173 171 166 167 169 174 183 187 185 183 182 186 186 185 172 158 150 144 138 138 137 138 140 143 144 147 150 150 155 159 160 167 170 170 171 172 171 168 168 169 168 166 161 165 168 170 167 160 156 155 157 155 152 149 146 145 141 136 134 131 129 127 123 120 116 115 114 114 113 113 115 116 114 112 112 112 110 109 110 117 127 131 128 122
 162 156 156 158 157 159 168 171 176 170 166 168 169 173 183 191 186 183 183 186 187 187 180 169 159 151 146 144 143 142 145 145 145 146 147 150 152 155 156 160 164 164 165 168 171 169 167 167 166 162 156 161 163 164 162 157 156 156 159 156 153 148 147 146 143 138 136 133 129 126 123 120 116 114 114 114 112 114 115 115 112 111 109 110 108 105 109 118 123 127 127 131
 161 157 155 160 160 166 175 177 175 169 168 169 168 171 182 185 184 184 184 186 189 189 181 174 162 158 154 152 146 145 146 147 146 147 146 147 148 151 153 155 158 162 163 163 165 164 166 164 162 160 159 161 161 162 161 156 154 155 161 159 154 149 145 143 140 138 138 133 129 126 122 119 116 115 115 114 112 113 114 114 112 110 107 106 103 104 114 124 126 126 125 128
 162 158 155 161 167 174 183 178 170 168 168 168 171 174 181 176 170 170 172 180 187 187 179 172 164 159 156 154 152 149 148 147 146 147 148 147 146 148 153 155 156 156 159 160 160 161 162 160 160 158 158 158 158 158 159 157 154 155 160 159 154 147 135 137 139 138 136 131 126 124 121 116 115 114 116 115 113 113 112 113 109 109 107 102  99 107 125 130 129 127 126 127
 164 160 156 162 170 179 184 176 163 160 159 161 166 169 176 174 165 163 164 175 183 184 179 171 164 158 157 156 157 157 156 154 153 153 152 150 147 148 151 152 152 151 154 155 156 158 159 155 154 155 155 155 155 154 156 156 155 155 156 157 151 137 131 136 138 138 135 132 127 124 120 118 116 115 115 116 113 112 111 111 108 105 101  92  91 112 129 132 131 129 127 128
 163 161 158 164 175 184 182 169 155 144 138 141 151 159 163 171 173 172 172 175 177 178 176 172 168 164 158 158 160 160 163 163 158 156 155 153 146 143 147 150 150 151 151 151 152 154 156 154 150 151 153 152 152 152 154 153 153 153 155 157 153 141 139 140 139 138 135 130 127 124 122 120 118 116 114 114 113 112 110 109 106 100  89  74  72 107 128 131 130 129 127 125
 162 161 156 165 178 183 175 156 142 129 125 127 133 144 147 154 158 161 159 162 159 157 161 163 165 165 162 159 157 156 158 162 158 159 161 157 154 146 144 148 150 150 148 147 149 153 154 153 151 153 152 149 147 147 150 149 149 151 156 156 149 147 145 143 139 137 134 130 126 125 124 121 121 118 116 115 113 110 109 108 105  94  76  67  61  79 117 126 127 128 124 120
 163 160 157 165 176 179 170 149 129 111 106 105 108 115 123 132 142 144 144 146 145 143 144 148 149 150 153 156 157 155 155 159 157 163 165 158 158 155 153 151 150 151 149 147 147 149 149 148 149 150 150 148 145 144 144 144 145 149 153 155 150 147 144 142 140 138 135 130 128 125 123 120 120 117 116 115 111 109 106 105  99  84  74  70  46  27  70 103 117 121 113 101
 161 161 159 164 171 180 177 159 136 115 111 113 117 114 111 110 116 122 123 128 128 129 133 136 134 135 137 138 142 148 150 152 155 160 164 162 161 162 163 158 151 150 148 147 146 147 146 147 148 146 146 144 142 141 141 142 147 152 152 152 150 147 145 144 142 139 136 131 128 124 123 120 118 118 116 113 109 107 105 100  90  79  74  62  23  18  22  37  57  62  51  39
 159 158 154 159 167 182 180 167 152 132 122 119 120 123 121 117 113 109 108 107 105 106 106 103 103 109 112 117 123 130 137 143 148 154 158 161 163 165 165 163 155 153 148 146 145 146 147 148 146 145 144 142 139 139 140 144 147 149 151 151 149 146 144 144 143 139 136 132 126 124 123 120 118 118 116 112 109 107 101  93  83  80  74  41  12  19  19  20  24  24  24  27
 158 157 149 153 167 176 177 171 161 147 137 131 126 128 127 126 124 120 119 116 115 113 109 104 101  99  95  91  85  84  96 118 135 142 149 156 163 168 169 166 159 154 149 146 144 143 146 147 144 141 140 139 137 138 138 140 143 146 147 149 149 148 146 145 145 140 134 131 127 124 123 120 115 114 114 112 107 103  95  88  84  82  66  21  14  21  20  18  24  24  24  25
 153 154 146 149 164 173 173 171 166 160 152 145 139 137 137 134 132 127 127 125 124 123 123 120 114 109 107 101  94  87  81  83  91 114 135 150 160 167 170 166 164 156 150 147 143 143 142 144 142 138 138 138 134 135 137 137 142 144 145 147 149 147 145 144 143 138 133 132 128 123 121 119 115 115 113 110 106  99  92  89  87  81  48  14  15  23  18  18  25  24  23  25
 150 152 148 148 158 168 174 174 171 170 167 162 155 143 143 145 144 140 135 133 132 130 128 124 121 116 113 108 105 102  93  89  84  88  97 126 150 161 166 168 165 157 150 147 144 141 141 143 142 138 137 134 131 133 133 134 140 143 144 147 148 148 144 143 139 137 134 131 124 121 121 119 116 113 111 109 104  97  90  89  88  72  30  10  14  23  18  19  28  25  23  22
 126 151 150 149 157 165 170 172 172 173 178 178 177 175 167 157 148 142 138 138 139 137 134 131 128 127 122 119 115 113 109 108 106 107 112 121 138 159 166 168 163 156 151 147 146 143 143 143 141 137 132 124 122 130 134 136 139 143 146 148 147 146 145 144 140 136 132 128 126 124 122 121 117 113 110 108 100  91  89  88  84  58  15   9  15  21  17  20  28  24  23  24
  92 149 149 148 153 160 170 172 172 176 181 183 186 186 184 178 170 160 149 146 144 141 142 139 137 134 131 129 127 123 124 124 124 123 130 139 148 160 167 167 162 156 151 150 147 146 143 142 138 135 126 115 115 125 132 138 140 143 146 147 144 146 144 142 137 132 130 128 127 124 122 118 115 112 108 104  96  89  89  88  81  43  10  11  16  18  17  23  29  25  24  25
  49 136 147 147 152 159 168 170 172 176 181 184 186 187 186 183 180 172 159 159 163 161 162 159 153 150 149 148 141 141 140 140 140 138 143 151 157 159 163 164 161 158 155 152 149 146 143 141 138 136 128 121 124 128 135 140 143 145 146 146 142 143 141 137 130 129 129 129 126 123 120 115 114 110 107 102  93  89  89  84  74  25  10  12  19  18  17  24  27  23  22  25
  25  95 145 147 151 162 167 169 171 175 182 184 182 188 188 185 182 172 166 164 170 171 176 179 177 174 172 169 163 160 158 154 152 152 154 157 155 157 159 159 159 156 153 152 147 144 142 141 139 138 134 132 132 133 137 139 142 139 138 141 143 141 140 135 129 128 127 126 123 121 119 114 111 108 105  98  90  91  89  81  61  15   9  11  17  15  16  23  25  20  20  24
  18  52 136 146 150 158 166 169 172 176 183 185 184 186 185 182 177 174 174 174 174 177 181 183 181 180 179 177 175 172 166 157 155 156 158 156 155 156 155 155 156 153 152 151 147 146 141 138 136 133 132 131 131 131 134 138 140 133 130 137 139 139 138 137 134 132 130 125 123 120 118 113 111 106 103  95  91  91  88  80  36  10   8  11  15  13  14  22  22  18  20  24
  13  23 102 143 149 154 159 165 170 176 180 181 184 186 182 177 173 170 171 171 172 178 181 185 185 182 180 179 178 172 166 160 159 158 157 155 154 154 153 153 152 150 149 148 145 141 138 137 132 131 131 130 129 133 136 139 141 134 135 137 135 135 136 136 135 132 129 122 119 117 114 111 107 103  96  92  90  91  85  70  20   9   8  11  15  13  16  23  21  16  18  24
  11  15  55 134 147 153 155 162 167 172 174 174 176 176 171 169 168 167 168 170 170 175 179 181 181 180 179 178 175 173 170 166 164 161 157 153 153 153 151 152 150 149 146 145 143 139 138 137 134 132 134 130 131 134 138 139 140 137 135 136 136 136 137 136 134 130 126 120 116 115 112 108 104  97  90  90  90  88  81  51  12   9   8  11  15  15  17  24  21  15  17  22
   8  11  30 107 144 151 155 161 164 167 168 167 165 159 158 157 153 157 163 168 168 169 172 173 176 178 175 175 174 174 168 168 163 159 157 156 155 153 150 150 149 149 146 143 144 143 138 136 133 131 131 131 130 132 138 137 134 135 136 136 138 139 138 135 130 126 122 119 117 112 108 104  99  93  91  92  90  86  76  32  11   9   9  12  13  13  15  21  18  13  16  20
   7   9  19  72 140 151 156 158 162 164 165 166 164 160 155 152 147 155 162 164 163 163 164 165 168 169 167 168 171 170 167 164 162 160 156 154 154 153 149 148 148 147 146 144 143 142 139 135 132 132 133 131 131 134 138 136 133 135 138 138 138 137 135 131 126 124 120 117 114 110 106 103  98  91  92  94  90  83  64  18  10   9  11  13  12  11  15  21  17  13  16  21
   7   8  14  43 124 151 154 160 163 163 166 172 170 167 163 160 159 159 159 160 161 160 161 162 162 163 160 161 163 165 160 156 156 157 156 155 153 152 149 148 146 146 146 144 142 141 139 137 137 137 137 133 131 133 135 133 135 136 136 136 133 134 131 127 123 120 114 111 108 105 103  99  93  91  94  95  90  80  42  14  10  10  12  12  12  12  19  20  16  11  16  22
   7   8  12  30 101 151 156 162 163 164 170 172 173 173 174 172 171 165 164 166 164 162 162 164 164 161 159 158 155 156 154 152 152 153 154 152 152 151 148 147 146 143 142 141 141 139 138 139 138 137 136 136 133 132 133 135 136 135 133 133 130 127 124 118 117 114 111 108 105 102  99  94  90  93  97  96  88  63  22  11  11  11  12  11  11  13  17  18  15  12  16  18
   7   7  11  24  77 152 160 165 164 166 171 175 178 183 184 180 177 178 173 173 172 166 162 165 167 164 160 158 154 151 148 149 147 147 148 149 149 147 146 145 142 139 139 139 141 139 140 140 138 136 135 135 133 132 133 133 133 131 130 130 126 121 117 114 113 111 106 105 102  98  94  93  95  97  97  93  77  42  19  12  12  12  13  12  12  13  17  17  14  12  14  14
   7   9  12  27  61 147 163 169 171 173 175 180 186 187 187 185 183 183 178 178 178 174 166 165 167 169 165 161 157 152 148 146 145 144 145 146 146 144 143 141 138 137 137 138 138 138 138 138 136 133 132 133 133 132 132 129 128 127 125 124 123 121 117 114 113 109 104 101  98  94  93  95  95  97  94  81  59  33  16  14  15  13  11  11  13  15  18  17  13  13  16  15
   8  10  14  30  50 132 165 172 176 178 180 183 184 190 188 189 187 185 183 185 187 184 178 173 171 171 168 163 160 155 149 144 143 143 142 141 141 142 139 136 135 132 131 132 134 134 136 133 132 131 132 130 130 128 128 123 123 122 120 119 117 115 115 111 107 106 103  99  95  96  99  99  97  93  82  73  54  26  16  16  16  13  11  12  15  17  18  16  13  13  15  15
   9  10  16  30  49 111 162 173 179 183 183 184 188 192 192 189 190 189 188 190 193 190 189 185 177 172 171 168 162 157 152 146 144 142 140 138 138 139 137 133 131 130 127 126 130 131 131 130 129 128 127 125 125 124 121 119 118 115 115 113 110 108 108 105 101  99  96  94  95 100 103 103  98  88  81  70  46  22  17  19  18  14  11  14  16  19  18  16  14  15  15  14
  11  11  19  34  52  86 155 173 178 182 186 187 191 192 193 189 190 190 192 195 198 194 192 186 182 178 175 170 166 162 155 151 147 144 140 136 136 137 134 131 130 129 124 122 124 128 128 126 125 124 123 120 117 117 115 113 111 110 108 105 104 101 100  98  96  94  93  98 100 103 104  99  94  91  82  60  40  20  17  18  17  14  11  14  16  18  17  16  17  17  14  13
  12  13  22  38  58  84 143 166 174 179 188 191 191 192 195 193 192 193 195 196 198 195 191 184 181 179 177 171 166 161 155 152 148 145 140 137 135 135 131 128 126 125 123 122 121 119 120 122 121 120 116 112 111 110 107 104 104 102 102 101  99  97  96  95  95  95  99 103 106 108 104 102 101  94  74  55  35  19  19  19  17  15  11  13  16  16  16  16  16  16  12  11
  12  16  31  45  62  87 143 156 168 179 187 190 188 191 192 193 190 190 191 195 196 193 190 186 184 181 175 168 165 161 152 150 146 142 137 134 130 130 126 122 121 118 119 118 117 116 115 114 112 111 106 105 104 102 102  99  98  98  99  98  96  97  96  96  98 101 105 109 110 108 108 107 102  88  62  51  28  20  20  18  17  13  12  16  18  17  16  16  15  15  11   9
  16  29  41  48  61  93 145 150 157 167 178 180 183 184 184 185 186 185 188 191 191 190 187 184 182 180 177 169 162 156 149 147 144 138 134 130 127 127 123 120 117 114 114 113 111 110 108 107 104 101 100  99  99  97  97  98  99 100  99  97  96  96  98 101 106 109 112 113 113 110 109 106  98  78  62  44  27  25  21  17  16  13  14  19  20  14  14  16  14  12   9   8
  30  41  46  47  57 101 148 157 163 160 161 167 173 174 176 177 178 180 180 181 181 184 181 176 175 172 170 165 158 154 148 145 141 134 129 126 125 122 117 114 111 110 110 109 106 103 100  99  98  96  97  99 100 100  99 101 102 100  98  97  98 100 104 108 114 116 116 117 117 114 111 104  91  70  58  38  27  25  18  17  16  14  16  21  19  14  12  17  15  13  11  11
  41  41  38  38  52 108 154 161 171 173 171 161 159 165 165 164 165 170 173 174 176 176 174 171 170 165 163 161 157 150 147 140 134 131 126 122 117 114 111 109 107 105 103 101  97  96  97  97 100 101 102 104 103 105 104 103 102  98  99 101 102 104 110 115 119 119 120 121 120 118 112 101  80  67  52  36  30  24  18  21  20  16  17  19  17  14  17  18  16  12  10  13
