P2
92 112
255
 131 105  90  65  46  45  39  37  37  39  39  38  38  40  41  43  41  43  46  49  57  62  58  61  61  60  57  60  59  60  64  66  73  89 107 133 131 121 115 122 120 119 115 112 111 111 105  94  86  82  86  96 107 119 112 105 115 127 117 104 106 106  98  96  98  89  72  61  47  41  37  34  31  32  34  35  34  35  37  36  32  28  30  32  31  32  32  32  33  33  30  29
 116  79  53  41  43  38  32  31  35  39  37  34  34  41  45  41  35  38  47  48  45  46  48  50  51  48  47  48  51  56  65  71 101 118 118 119 111 104  96  86  89  95  97  99 107 121 132 117  95  91  83  81  81  77  82  84  92 106 116 111 104  95  89  79  78  79  79  78  70  59  47  37  34  34  34  34  33  33  34  34  31  29  31  32  32  31  32  34  36  35  34  33
  51  36  35  38  36  31  30  33  38  36  31  29  35  42  40  38  38  37  40  39  39  38  39  40  42  42  44  48  55  63  73  72  70  62  56  57  57  63  63  64  70  76  89 100 111 124 159 167 140 130 108  88  80  79  77  77  80  86 101 113 112 118 118 111 100  88  73  68  65  62  60  48  39  35  36  35  34  33  34  33  30  29  32  31  31  32  33  34  40  45  42  41
  34  34  32  30  31  31  33  35  34  31  31  32  39  48  34  32  35  34  35  37  33  31  34  37  40  44  46  49  53  57  58  51  46  46  51  54  56  59  62  65  73  81  90 105 117 132 150 186 196 200 168 134 117 103  88  79  77  79  80  93  95  97 103 111 106  98  69  56  58  58  57  50  46  37  36  35  35  33  33  32  30  27  30  31  30  32  32  34 108 149 115  92
  34  31  29  29  29  30  32  35  32  31  31  31  40  42  30  27  31  32  33  34  31  32  33  36  39  40  42  44  45  45  40  39  40  44  45  51  57  65  75  78  82  88 102 114 128 145 161 192 232 248 245 222 198 174 150 127 103  93  70  67  82  90  92  87  86  94  89  67  54  54  54  49  45  44  36  36  34  32  31  31  29  26  28  29  29  30  29  34 168 243 242 231
  31  27  28  30  29  30  31  29  30  31  28  29  47  33  27  28  30  28  27  31  32  32  33  33  35  38  37  41  45  42  38  41  47  50  55  63  71  83  91  92  99 106 123 138 149 178 215 234 249 253 253 253 253 243 220 194 173 141  97  73  67  69  79  83  79  76  87  87  69  55  54  51  49  49  42  38  34  31  31  32  31  28  29  29  29  27  26  28 158 252 252 252
  29  27  26  27  29  30  27  27  30  28  28  35  43  26  26  29  31  29  28  32  32  32  33  32  33  34  37  41  43  46  47  54  62  69  78  86  91  99 110 111 120 133 152 180 217 235 246 252 254 255 255 255 255 255 253 249 237 216 179 110  65  57  62  71  77  74  79  82  78  66  54  53  56  57  52  40  35  32  32  32  30  27  26  26  25  25  27  45 182 235 243 252
  30  29  29  30  31  27  27  28  29  27  28  33  27  24  28  31  29  30  32  32  30  30  30  30  30  33  45  50  53  57  63  70  76  85  94 104 115 121 127 137 158 179 214 240 248 251 254 255 255 255 255 255 255 255 255 255 254 252 246 222 140  64  55  60  68  70  70  79  80  70  54  47  51  62  54  43  34  32  33  31  29  26  26  26  27  26  27  97 216 222 245 251
  29  30  30  28  26  26  25  27  25  22  26  27  22  25  28  27  26  29  31  31  29  30  29  29  32  39  55  57  61  66  73  80  86  96 108 122 133 141 156 185 213 236 249 251 253 254 255 255 255 255 255 255 255 255 255 255 255 255 254 251 242 162  72  53  62  67  66  69  75  73  68  48  47  52  49  43  31  29  31  31  29  27  26  27  26  26  37 178 249 248 251 247
  28  28  26  24  24  23  24  24  20  19  20  21  22  28  29  27  28  29  29  31  28  27  29  32  39  49  60  61  67  75  82  90  99 114 126 141 156 177 208 236 246 251 253 254 255 255 255 255 255 255 255 255 255 255 255 255 255 255 255 255 253 249 179  66  52  65  66  63  72  77  78  55  39  48  55  47  33  26  26  28  29  24  24  25  24  26  55 225 252 253 253 253
  26  26  24  23  23  23  22  22  21  19  19  21  26  30  29  29  31  29  27  27  26  25  29  37  44  55  64  68  75  83  89 100 113 128 144 166 196 217 244 253 254 254 255 255 255 255 255 255 255 255 255 255 255 255 255 255 255 255 255 255 255 253 248 179  64  63  69  58  64  69  74  69  35  43  58  49  37  29  25  26  27  26  24  24  24  26  64 208 236 250 252 253
  24  23  23  24  23  21  19  18  21  20  21  26  29  29  29  30  30  28  25  26  24  28  34  40  50  60  69  75  82  92 101 112 126 144 165 193 218 237 248 252 254 254 255 255 255 255 255 255 255 255 255 255 255 255 255 255 255 255 255 255 255 254 253 249 188  68  71  65  61  69  68  72  36  39  57  49  37  29  26  25  25  24  22  24  24  27  70 205 213 240 251 251
  23  22  24  22  22  20  18  17  21  21  22  26  27  31  28  27  28  26  27  28  27  34  39  46  57  64  75  81  91 101 114 123 135 155 185 213 220 227 244 250 253 255 255 255 255 255 254 255 255 255 255 255 255 255 255 255 255 255 255 255 255 254 253 252 248 176  73  68  58  65  67  72  53  33  49  51  37  27  25  26  25  23  21  23  23  24  73 207 211 232 253 253
  23  24  23  20  19  19  20  18  21  23  27  27  33  32  26  24  25  28  30  27  31  39  44  53  62  71  81  88 101 113 124 134 146 169 189 205 212 217 225 233 240 249 252 253 254 252 251 252 252 252 251 252 253 254 254 254 255 255 254 253 253 253 253 252 251 248 164  69  55  58  61  55  72  36  45  55  38  29  24  23  23  23  22  24  24  22  73 198 215 235 249 251
  24  24  21  18  19  22  20  17  23  25  25  29  33  30  25  24  25  26  28  29  34  41  48  59  67  76  87  97 109 123 131 143 156 170 177 186 196 201 213 221 227 238 238 238 240 246 250 245 240 243 247 247 245 252 254 254 255 255 254 253 252 252 253 252 251 250 248 148  58  54  58  46  78  39  43  56  38  28  26  21  21  22  20  23  23  23  67 169 211 236 246 252
  22  21  20  20  20  20  19  20  27  24  25  35  33  28  26  29  25  25  28  32  38  44  56  66  71  81  93 104 117 127 137 145 151 157 165 171 179 186 185 190 202 216 228 233 236 239 244 238 239 241 242 242 243 251 252 253 254 254 253 252 252 251 251 252 251 251 252 238 115  51  52  49  71  44  38  54  37  25  25  24  24  22  21  23  20  21  58 146 209 238 249 251
  21  19  22  22  20  21  22  23  24  24  31  40  32  26  25  25  24  27  32  32  40  52  60  70  74  89 103 109 118 127 138 144 145 150 157 169 174 177 180 183 196 203 219 224 224 226 233 240 238 237 232 236 246 248 250 249 251 252 253 252 253 253 253 252 252 251 248 250 213  72  52  46  57  60  35  52  38  24  25  24  23  22  21  21  19  18  50 122 193 239 252 253
  18  23  26  21  18  21  27  26  25  27  30  34  31  26  23  23  24  30  34  35  50  57  65  73  81  98 107 113 115 126 135 135 138 143 150 161 170 172 172 176 181 191 202 210 218 221 220 224 225 226 225 225 226 232 238 247 251 252 251 252 253 253 252 252 251 251 248 246 249 171  64  43  51  70  39  55  38  27  26  23  20  19  21  20  19  19  52 113 159 225 242 250
  19  26  26  19  19  24  26  25  25  25  27  28  24  24  20  24  29  36  37  41  56  66  72  77  92 106 111 114 117 123 128 132 135 138 142 150 162 167 169 172 174 179 184 190 192 220 223 219 222 225 229 233 231 230 231 234 237 240 244 250 250 250 252 252 250 249 250 250 248 240 128  62  53  72  45  55  41  26  24  24  19  19  21  19  18  20  51 115 122 179 219 231
  22  25  23  22  23  24  22  24  24  25  28  25  22  21  24  27  32  35  40  49  59  67  74  91 103 110 115 118 121 124 128 133 132 132 134 142 148 156 161 166 168 172 180 187 187 192 202 208 220 225 226 226 228 231 234 235 238 244 246 249 250 250 252 253 253 251 251 251 249 247 219  87  57  74  62  55  41  29  31  24  22  19  17  18  17  20  46 104  97 141 164 167
  23  23  23  24  25  24  20  23  24  25  26  25  23  22  26  32  33  38  44  56  65  71  85 100 106 111 117 121 125 130 131 132 130 127 130 135 141 150 152 156 163 167 169 177 182 189 195 210 215 219 220 222 223 229 233 235 237 244 249 250 250 252 253 253 253 252 252 252 252 252 249 168  70  68  69  57  46  32  31  29  20  18  17  17  17  23  34  84  88 142 151 164
  23  23  23  23  23  21  20  23  25  25  23  21  22  26  31  34  38  43  52  60  70  82  93 100 107 111 119 127 131 133 132 133 131 132 133 136 144 152 154 156 161 167 170 171 175 186 203 216 214 214 219 227 231 234 234 241 245 246 245 250 253 253 254 254 254 254 254 254 253 252 250 229 106  71  74  53  48  36  30  24  19  16  14  16  16  24  35  66  77 115 133 164
  23  26  23  20  22  24  22  23  26  24  20  21  24  30  37  40  44  50  56  68  79  89  95 100 109 115 123 128 131 132 133 136 136 137 137 138 144 151 152 153 155 160 170 175 179 193 211 218 220 220 229 238 239 244 245 247 245 244 246 251 252 253 254 254 255 255 255 255 255 254 253 251 178  85  80  58  41  40  26  20  18  17  16  18  17  27  36  54  63  82 111 145
  23  24  21  20  22  23  22  25  24  23  22  25  29  35  39  46  53  56  65  74  81  89  95 102 111 117 122 127 131 133 134 139 139 139 138 138 143 148 150 151 158 166 177 182 181 184 200 219 229 232 234 240 245 242 242 243 245 245 247 250 251 253 254 255 255 255 255 255 255 255 254 253 238 124  96  71  42  46  27  22  20  18  17  17  16  32  39  63  65  66  94 124
  22  20  17  21  22  20  22  25  24  25  27  32  37  40  49  54  58  66  72  76  84  88  93 101 108 113 117 123 129 136 139 143 143 139 136 139 144 151 161 164 171 179 183 192 198 194 218 227 233 239 245 248 250 249 245 246 247 249 250 250 252 253 255 255 255 255 255 255 255 255 255 255 253 179 108  79  38  39  37  27  25  21  18  16  16  38  40  91  68  54  71 108
  19  18  20  18  19  19  21  21  23  28  32  37  46  53  60  64  65  70  74  78  86  88  91  96 101 108 112 116 122 128 135 138 140 141 141 143 148 160 175 186 185 189 196 209 219 227 233 243 242 246 253 253 253 252 251 252 252 252 252 253 253 254 255 255 255 255 255 255 255 255 255 255 254 229 120  91  48  33  37  25  24  20  17  17  19  48  47 115  90  52  54 101
  18  20  20  17  20  21  20  23  26  32  42  50  56  60  64  68  70  73  74  77  82  84  88  90  92  97 103 106 111 118 126 132 139 146 152 153 151 166 174 182 182 189 197 210 224 231 239 242 246 250 251 253 254 254 254 254 254 253 252 251 251 251 253 254 254 254 255 255 255 255 255 255 255 252 162  97  58  30  34  30  21  19  17  16  20  55  47  89 134  90  47  55
  18  19  18  18  21  21  23  27  34  44  53  58  63  64  68  71  73  74  75  78  81  81  85  88  89  92  97 101 107 113 120 127 132 140 151 156 154 163 167 170 183 192 202 210 220 232 238 250 249 250 251 252 253 254 255 255 254 253 253 251 250 251 252 252 251 249 252 253 254 254 254 255 255 254 222 116  74  37  30  39  21  19  17  17  22  65  57  63 119 166 127  72
  18  16  17  19  22  23  27  34  42  49  58  62  65  67  70  73  74  75  77  79  81  82  83  86  88  91  96  99 104 108 112 118 123 130 138 145 153 159 165 178 188 196 201 211 220 231 232 240 247 249 246 250 253 253 253 253 252 252 252 252 250 250 248 246 247 251 249 248 251 251 253 254 253 254 250 170  83  54  26  33  24  20  17  17  22  66  61  63  71 104 138 153
  18  18  21  25  26  27  32  39  47  54  59  62  68  71  72  75  78  79  78  79  81  82  82  87  91  91  95  97  99 103 107 110 115 121 129 133 144 151 162 177 184 193 201 211 217 221 232 242 239 240 238 245 248 250 246 241 245 244 247 241 235 241 239 232 233 239 239 239 239 240 244 248 250 252 253 233 127  69  28  26  25  22  18  16  22  65  62  68  71  74  82  97
  22  23  25  24  26  31  34  41  48  55  59  63  67  71  75  75  77  81  80  81  82  82  83  87  89  92  92  95  97  98 100 104 109 117 123 130 138 145 156 169 172 182 188 192 200 201 220 228 236 234 229 230 229 230 234 232 232 229 229 225 223 219 214 219 224 225 223 223 224 228 232 236 240 243 248 248 204 108  58  26  25  22  21  19  24  69  68  80  84  79  85  82
  20  21  22  24  29  32  38  45  50  58  63  65  67  72  74  77  80  82  82  81  82  83  85  87  89  90  89  91  95  97  97 101 108 113 120 125 131 138 146 154 159 164 174 186 189 185 202 209 216 221 208 201 204 210 211 214 218 219 219 216 211 208 201 206 204 208 206 204 205 208 215 216 224 221 221 221 212 167 104  62  64  68  64  65  69  92 105 145 162 151 152 139
  19  21  22  25  31  36  42  48  56  59  64  67  69  73  75  79  81  82  82  80  81  83  85  86  88  90  90  90  92  93  93  96 102 108 112 118 126 134 139 147 151 153 159 175 176 178 175 183 186 190 187 188 186 185 185 189 198 198 201 199 196 196 189 189 194 197 195 186 185 184 184 179 180 173 172 169 176 175 135 119 138 135 123 115 110 119 130 135 135 123 106 105
  18  23  27  28  33  39  46  51  57  62  66  70  72  75  77  78  79  81  81  80  82  83  87  87  88  89  90  90  89  88  89  96 100 104 108 114 120 125 127 130 143 149 153 158 162 167 156 157 160 163 163 164 169 167 169 171 178 177 183 186 185 181 181 176 177 188 185 177 168 160 150 139 123 113 122 131 133 141 138 116 119 123 115 113 109 113 128 131 136 122 112 113
  19  24  27  30  36  43  50  55  60  65  69  71  73  74  76  77  77  79  81  81  82  82  84  88  88  87  86  88  88  87  89  95  97 103 109 113 117 122 124 129 137 141 142 146 140 139 139 143 143 144 143 142 145 146 147 148 154 159 170 172 171 170 167 161 154 167 169 166 147 131 116  95  83  88  98 110 122 135 144 129 150 164 163 182 175 180 190 187 186 184 185 194
  18  23  27  32  38  45  53  56  62  66  69  71  73  74  75  74  75  76  80  81  81  82  83  84  84  84  85  84  84  85  89  94  97 103 108 110 111 115 116 117 121 130 128 125 125 124 122 125 124 125 126 124 124 126 130 133 137 143 145 153 154 157 156 155 152 152 152 144 126 112  96  79  78  86  94 106 119 132 146 136 153 167 167 175 159 180 181 178 197 196 194 205
  20  24  30  34  40  49  54  59  66  69  72  73  73  74  75  75  75  76  77  78  81  82  82  82  82  83  82  81  82  84  88  91  96 100 103 104 107 112 113 110 114 117 115 113 109 107 110 106  99 101  99 101  96  98 110 117 120 124 131 135 134 139 146 146 152 148 141 128 114  99  84  82  88  94  99 107 115 123 135 124 129 136 134 147 146 150 156 148 155 153 138 126
  25  29  31  36  44  51  60  63  66  68  70  71  73  74  74  77  75  77  79  79  81  81  82  81  81  83  82  82  81  83  88  90  94  96  95  98 100 105 103 100  99 101 100  97  97  91  81  76  72  73  77  81  84  84  94  99 104 110 113 120 127 131 138 140 145 141 129 118 107  96  94  97  98 101 103 106 111 118 124 113 109 114 115 121 127 125 128 119 119 121 116 117
  23  28  35  41  46  53  63  64  68  70  69  71  73  75  77  78  78  77  77  78  81  82  81  81  81  81  81  82  80  83  88  89  90  90  86  88  95  97  92  92  92  90  87  85  80  75  69  66  66  67  71  71  69  74  76  85  92  94  99 110 120 123 129 139 144 140 130 113 105 102  98  96  95  96 101 104 106 110 113 101  94  92  91  91  95 108 106  91  89  95 101 101
  26  31  40  46  52  58  64  65  69  72  72  72  74  76  77  76  77  77  76  80  82  82  79  77  76  79  82  81  80  82  85  86  88  87  83  87  94  94  85  82  83  82  80  77  73  69  64  62  60  62  65  66  65  69  76  81  84  89  97 105 111 116 120 131 144 141 130 112 102  93  86  83  86  98 124 137 130 109 103 105 101  96  94  93  89  88  87  91  97 102  86  95
  26  33  41  48  55  62  63  65  68  72  72  72  74  74  73  74  74  75  76  77  80  79  78  76  75  76  78  78  80  81  81  79  83  83  81  81  82  83  80  79  78  79  78  74  74  73  74  70  65  66  67  69  72  76  80  82  85  92  96 100 106 112 117 132 145 148 127 103  84  74  72  75  94 143 184 175 176 196 128  99  97  96  98  99  96  91  94  96 105 122 101  77
  27  38  42  48  57  60  61  61  63  67  70  71  73  72  73  72  73  74  73  76  78  77  74  73  73  74  75  76  77  77  74  72  76  76  74  76  78  79  79  77  78  79  78  75  75  75  75  73  71  69  69  70  72  75  78  79  82  86  93  97 100 107 114 129 151 159 109  76  66  64  61  78 125 154 175 187 188 202 200 111 102  98  98  96  95  89  87  90 101 107 107  49
  29  39  45  51  57  61  58  57  62  67  70  71  71  71  70  70  72  73  73  74  77  76  74  73  74  74  73  70  71  71  68  66  70  73  74  79  80  79  79  79  78  76  75  73  72  73  77  80  76  71  67  68  69  68  69  69  72  75  83  92  97 103 113 138 172 173  81  60  58  57  67 104 114 127 146 158 158 169 177 143  97  87  88  90  89  85  82  86  99 101 111  45
  29  40  48  53  57  60  61  61  63  67  68  69  69  69  71  71  72  72  73  74  75  74  74  72  73  72  67  65  66  66  65  66  70  73  73  75  76  74  73  73  73  73  73  78  91 103 138 138 112  98  92  82  76  74  74  70  69  71  72  81  88  96 111 148 190 191  70  59  60  63  90  99 103 102 108 108 110 114 117 114  83  82  86  88  88  83  77  85  93  86 100  54
  31  42  50  55  60  61  62  64  66  66  68  68  69  69  69  70  71  71  72  73  72  71  73  71  68  66  64  64  66  67  68  68  70  72  72  73  73  73  73  73  78  80  86  98 103 101  98  92  86  84  84  80  78  76  76  77  77  75  72  69  76  93 143 184 188 135  77  68  61  63  79  80  79  80  86  95  97  97  89  92  88  91  91  90  91  86  83  86  88  81 103  69
  30  41  51  57  61  63  64  64  67  67  67  68  68  69  70  71  70  70  70  68  67  67  67  64  63  65  66  66  65  67  68  67  69  69  66  67  70  75  80  87  93  95  99 101 102 101  98  91  82  77  78  78  78  75  76  79  80  78  74  73  71  97 131 132 126 127 120  65  55  61  81  72  67  72  82  94  99 104 100  94  97 109 109 102  95  90  89  91  83  79 118  80
  32  42  51  56  60  61  64  65  66  67  68  68  69  70  70  72  71  69  67  65  65  66  64  60  61  64  65  66  64  65  64  65  66  66  66  73  82  87  88  89  91  93  96  98 102 102 104  98  87  78  75  74  74  72  74  79  78  77  74  72  64  63  79 105 108 123 165 120  64  60  84  73  71  78  85  94  97 103 106 102  98  99 108 111 101  91  88  82  77  80 132  74
  32  43  52  56  61  62  65  65  65  67  68  67  66  69  68  70  67  66  65  65  65  62  60  60  61  60  61  62  60  61  62  64  64  66  80  88  88  87  87  88  89  90  96  99 100 100 103 101  91  81  75  75  73  73  76  79  75  74  73  68  66  66  75  89 105 172 246 237 145  58  78  83  76  81  90  95  95 100 106 104 100  95  96  97  93  86  79  75  72  84 143  70
  31  45  50  55  61  64  64  65  66  66  68  69  68  68  69  67  63  64  64  63  59  58  57  58  59  57  58  57  57  59  63  64  61  79  83  87  87  87  87  88  89  90  94  94  92  87  86  82  77  70  70  73  73  74  78  79  75  73  68  61  62  62  66  80 110 165 225 252 247 160  77  97  84  87  90  93  94 101 126 119 103  96  92  88  86  84  78  74  74  97 135  61
  31  42  47  54  61  65  65  63  65  66  69  69  68  66  66  65  61  59  59  57  56  56  58  58  57  56  57  56  53  58  63  64  70  83  81  83  85  84  83  84  83  78  75  73  72  71  71  73  73  65  61  67  73  77  81  81  77  71  64  60  59  58  63  74  94 123 164 218 249 246 169 116  95  95  95  99 103 115 146 182 119  97  94  89  85  83  80  76  81 107 117  61
  30  38  47  54  59  64  63  64  66  66  67  66  66  63  62  61  59  56  55  54  55  56  55  56  56  52  50  46  38  37  79  94  88  83  78  80  81  79  74  66  62  58  59  61  62  66  69  74  78  72  61  65  73  79  85  84  79  71  61  61  57  58  62  69  82  96 119 152 205 248 249 190 103 104 106 110 116 127 153 208 199 121  93  92  89  85  79  89 100 122  88  66
  30  36  45  54  59  61  61  62  64  63  61  60  60  57  56  57  57  53  53  50  52  50  46  46  44  35  32  33  23  28 115 156  85  77  72  70  67  64  59  54  58  59  57  59  65  70  74  81  82  76  70  71  75  80  82  82  78  72  62  55  52  56  64  69  76  85  97 113 147 204 247 251 184 104 110 118 128 145 175 215 231 209 116  90  89  86  95 105 114  86  67  68
  29  34  41  49  56  57  56  58  58  56  53  52  52  52  50  49  47  44  43  41  41  38  36  36  32  19  19  27  22  20 105 173  81  69  60  60  59  60  63  62  61  66  64  64  69  73  77  84  85  80  76  76  78  78  77  78  77  70  60  51  49  55  63  70  73  78  82  97 119 153 211 248 253 192 119 132 149 165 191 214 228 235 212 120  99 128 132 100  72  67  66  68
  25  33  39  45  48  47  46  46  46  45  43  43  42  41  39  36  36  36  34  33  31  31  30  29  28  16  16  23  20  17  90 167  79  68  57  61  61  63  73  74  69  69  69  70  69  74  82  83  85  81  79  77  74  76  74  74  73  66  53  48  47  55  65  73  75  76  78  86 102 128 168 213 248 252 205 147 154 169 191 218 231 241 248 239 208 141  85  67  65  66  64  65
  23  26  29  33  35  36  35  35  35  35  33  30  32  33  31  32  31  29  29  31  31  32  31  32  37  28  21  27  26  23  60  94  60  64  62  66  68  69  74  75  75  75  77  79  80  81  81  81  81  80  78  75  74  75  73  73  71  66  54  46  46  59  69  74  76  76  76  81  92 112 141 179 219 250 254 222 160 171 195 207 210 218 190 119  82  74  71  67  64  65  64  65
  21  24  26  27  30  32  31  27  26  28  32  33  35  41  44  45  48  48  49  53  57  56  55  57  59  56  53  49  47  49  55  55  49  69  70  74  77  78  75  74  79  81  81  81  81  82  81  84  80  77  77  77  75  76  72  70  69  69  63  53  49  63  72  75  75  73  74  75  82 101 124 155 191 228 252 253 227 167 174 195 217 229 206  99  72  71  70  67  67  66  66  65
  24  25  27  30  35  38  39  47  51  50  54  58  57  60  62  61  61  62  64  66  68  69  66  66  65  62  57  55  54  54  56  57  53  69  77  78  79  80  82  82  82  85  84  85  87  85  85  83  79  80  78  77  76  73  72  68  68  68  64  55  54  66  73  74  74  73  71  73  78  85 101 128 157 186 224 252 254 249 228 218 219 216 202 121  71  68  66  67  67  66  69  68
  20  23  30  36  42  47  51  56  57  60  62  63  64  65  65  63  65  66  67  68  69  69  69  70  70  65  60  59  58  57  58  59  54  61  77  80  81  82  84  86  84  85  86  84  86  87  83  81  80  81  81  79  78  74  70  69  68  65  59  52  61  68  71  73  72  69  69  72  76  82  91 110 134 165 196 238 252 253 248 232 227 217 203 142  69  70  68  66  64  66  68  66
  22  31  39  43  49  55  57  61  64  65  65  66  68  68  68  66  66  68  68  68  69  71  72  73  71  69  66  64  64  62  62  62  59  56  72  79  81  82  83  86  83  84  86  86  85  84  82  83  84  84  82  81  80  77  78  75  67  60  59  62  65  68  70  72  71  67  67  68  72  79  84  98 114 138 170 212 246 253 253 250 229 220 209 155  71  67  66  67  66  66  65  66
  31  37  43  46  52  56  61  65  65  65  65  66  68  68  67  68  68  70  71  69  70  71  73  72  72  73  71  71  70  68  68  67  66  59  66  74  82  85  84  83  82  82  84  86  85  88  91  93  99 115 129 136 136 106  79  70  70  70  69  66  69  71  71  72  70  67  66  67  69  73  76  88 102 122 145 180 222 242 253 253 246 221 208 159  71  65  67  65  65  65  65  63
  34  39  45  49  56  58  62  65  67  69  68  66  66  68  69  70  68  68  71  68  71  73  73  72  73  73  72  73  75  74  74  73  73  70  65  70  88  98  95  96  91  95 104 116 127 145 169 184 185 164 127 101  87  84  82  81  77  76  73  69  68  71  69  67  66  66  65  65  67  69  72  80  90 107 126 149 180 213 234 241 247 235 197 161  87  67  66  64  64  65  65  65
  37  42  48  54  59  59  61  65  69  70  67  67  67  69  70  72  71  70  71  68  71  73  73  73  74  74  75  76  78  78  79  79  79  79  75  72  77  83  84  84  87  89  92  95  96  97  96  90  89  92  94  93  90  88  85  83  80  78  76  73  70  69  65  61  61  62  61  62  63  67  70  72  77  96 110 127 150 175 201 214 230 238 208 153  81  68  68  65  65  67  65  65
  42  47  52  56  59  61  64  66  67  68  68  69  70  69  69  73  72  71  71  70  69  70  72  74  74  75  78  79  80  81  83  85  86  85  82  81  81  80  79  86  89  89  89  90  91  92  94  92  94  97  96  95  92  89  87  84  81  79  75  73  68  65  61  58  57  60  62  64  65  65  65  69  72  81  92 107 125 144 162 179 194 219 222 156  81  67  67  66  65  62  61  63
  46  50  54  56  59  64  65  66  67  67  68  69  69  71  70  72  72  72  72  71  71  71  74  74  75  79  79  81  82  85  87  90  91  90  89  88  88  87  89  95  98  99  99  98  98  96  96  96  97  97  96  96  97  92  88  86  83  81  77  74  69  63  59  58  59  65  69  68  69  68  67  68  71  77  84  93 106 119 133 149 157 173 199 153  76  65  65  64  64  63  64  64
  48  52  56  56  58  62  64  65  65  66  69  70  71  73  73  73  72  72  72  70  71  72  74  74  76  77  79  81  81  85  90  93  94  95  93  92  92  93  97 103 106 108 109 106 102  98  98  97  99 100 103 104 102  94  90  87  84  82  79  76  66  59  57  60  68  80  87  83  79  73  71  70  73  78  84  90  99 108 117 126 132 140 161 141  67  64  63  61  61  63  63  63
  53  55  56  57  60  64  64  63  65  68  69  68  70  73  73  73  72  72  70  70  72  73  76  77  77  77  80  80  81  84  90  93  95  98  97  96  96  97 101 106 109 110 107 102 100 100  98  97 100 104 106 104 100  95  90  89  89  86  81  76  64  53  54  65  80  96 102  96  87  78  74  76  78  80  83  87  91  98 104 112 118 122 135 128  65  60  60  61  61  60  60  60
  56  57  58  58  61  64  65  64  66  68  68  68  69  71  72  72  71  71  69  68  72  74  77  79  79  78  79  81  82  85  88  92  96  97  96  95  96  99 102 104 104 103  99  97  96  97  98 101 103 103 100  96  94  94  92  91  90  87  83  72  60  53  58  68  78  89  95  89  82  80  79  79  80  80  80  81  83  90  97 103 108 113 130 116  68  61  59  58  59  59  61  63
  59  61  62  61  62  62  65  65  65  66  67  67  67  71  72  72  71  70  69  70  72  73  75  76  77  78  79  80  82  85  88  91  95  94  93  93  95  97 100 102  99  97  96  96  96  95  96 103 102 100  98  95  94  96  96  93  86  84  82  70  56  53  58  65  72  77  81  81  81  80  78  77  77  76  74  76  81  86  93  97 104 120 140 113  61  62  60  58  58  59  60  61
  63  63  63  61  60  63  65  64  66  66  66  66  68  71  71  70  69  67  67  72  73  73  72  73  74  75  77  78  81  83  87  89  92  91  89  89  90  94  97  98  98  97  95  96  97  96  96 100  99  96  95  95  95  97  97  94  87  83  80  70  58  52  56  63  71  74  76  77  71  60  52  50  53  59  59  61  70  81  90  92 130 156 148 103  62  62  62  60  59  60  58  58
  63  63  63  63  62  65  65  65  67  65  65  66  67  69  69  69  67  67  67  70  72  72  72  73  74  74  77  79  80  81  83  85  89  89  87  89  89  92  96  96  97  96  94  95  94  94  94  95  97  97  97  97  97  98  98  96  92  85  80  71  58  51  55  62  71  74  74  52  33  31  38  45  51  55  60  64  68  80 108 169 198 183 154  87  61  62  62  63  63  59  59  62
  63  65  65  63  63  65  65  66  66  66  67  66  66  68  67  67  66  67  70  69  70  68  67  70  71  72  75  76  79  81  82  82  86  87  88  87  88  91  94  95  94  94  93  94  95  95  94  96  97  99  99  98 100  98  96  95  93  86  80  73  62  52  54  64  71  74  71  53  44  46  53  59  64  66  70  74  80 102 197 232 222 201 160  81  61  59  59  58  61  62  62  61
  65  64  65  65  65  65  65  64  66  67  66  65  66  67  67  68  68  67  68  67  67  66  64  69  72  72  73  74  76  78  80  81  83  84  87  87  89  90  91  92  93  93  92  93  93  96  96  96  96  98  99  99  99  98  97  95  92  88  82  76  69  59  54  60  68  72  72  70  68  68  69  70  71  74  76  81  91 115 181 242 233 215 173  77  62  57  57  57  54  56  57  57
  66  65  66  66  65  65  64  64  65  66  65  65  68  66  66  67  67  66  67  67  67  67  68  71  73  73  74  75  76  74  77  80  82  83  85  84  85  88  89  89  89  89  90  92  93  94  97  97  96  96  97  97  97  97  97  96  94  89  86  81  75  68  60  58  62  64  65  64  65  71  74  76  78  83  86  90 101 119 146 241 240 227 189  85  59  56  55  57  55  57  58  57
  68  68  68  66  65  65  65  63  65  66  65  66  68  67  65  65  65  64  66  67  66  67  68  67  72  74  75  75  74  74  76  79  80  82  82  82  83  84  85  85  86  90  92  91  92  95  94  96  96  94  93  92  96  95  96  95  92  88  87  82  78  74  67  64  64  63  61  64  69  75  81  84  88  94  94  97 105 119 144 230 238 232 206  87  57  54  52  55  55  56  58  60
  69  67  69  68  67  65  66  65  66  65  65  65  67  66  66  65  63  63  65  67  67  67  68  69  70  73  74  71  72  74  76  79  80  81  80  81  82  82  81  82  82  84  88  90  90  92  92  94  94  92  92  92  95  94  96  95  92  88  87  84  82  77  74  74  72  72  73  72  74  79  83  89  94  97  97  99 104 118 156 227 236 232 216 107  56  57  56  57  55  54  56  60
  67  67  67  65  65  66  67  66  65  65  65  65  64  65  65  66  65  65  65  66  66  66  67  68  69  72  71  67  68  73  74  77  78  80  81  81  81  81  80  80  82  82  83  87  89  90  89  89  89  90  89  89  92  93  90  91  89  87  86  82  80  79  78  80  77  78  79  77  78  81  85  90  96 100 102 102 104 116 158 224 236 233 216 121  54  53  53  53  55  56  55  54
  67  67  65  63  64  66  66  65  65  65  65  65  65  65  66  65  65  63  65  65  67  66  67  67  71  72  70  69  71  73  73  73  73  77  78  78  80  80  79  80  81  82  82  85  88  88  88  88  88  88  88  86  91  92  90  89  88  87  86  82  81  81  81  80  79  79  80  81  82  82  86  90  96 103 106 104 105 116 163 199 219 229 216 138  51  55  51  51  57  56  55  53
  65  66  67  64  62  65  66  65  66  66  67  65  66  66  66  65  64  64  65  67  66  67  67  69  72  73  72  72  74  73  72  74  74  75  75  75  80  81  78  80  81  82  85  86  87  88  89  88  85  87  86  84  88  89  88  88  86  85  84  83  80  80  83  83  82  83  83  83  84  84  86  89  95 106 107 106 114 137 166 167 161 186 195 153  57  56  53  51  53  56  53  56
  65  65  65  63  62  62  63  65  65  65  68  68  67  67  66  66  66  65  66  66  66  67  68  69  69  72  73  73  74  72  73  74  74  74  73  75  77  79  79  80  81  81  81  83  85  87  87  85  83  86  88  87  85  86  87  86  85  83  83  84  81  82  84  85  85  86  86  86  87  86  86  88  93 102 105 110 124 141 137 118 106 110 147 153  62  58  54  51  51  54  55  56
  61  64  65  65  62  61  61  63  65  65  65  65  65  65  66  65  65  66  66  65  65  69  70  70  70  72  73  73  72  73  73  74  75  74  73  75  76  75  77  81  82  81  81  81  82  84  86  84  83  84  87  87  88  86  84  83  83  83  86  84  83  86  87  86  84  86  87  87  87  87  87  87  87  89  94  98 105 109 100  91  84  87 115 138  55  57  55  55  56  57  58  58
  61  63  64  64  63  63  60  60  64  64  65  65  65  66  66  66  65  65  65  65  65  67  69  71  72  73  73  73  72  73  73  73  74  75  74  75  76  75  75  79  80  81  81  81  81  82  84  84  84  84  85  85  88  87  84  81  82  82  87  88  85  88  89  86  86  85  87  88  85  84  83  82  81  80  80  83  84  83  80  75  75  83 104 124  59  55  51  56  62  63  63  64
  60  58  60  61  62  63  62  60  63  64  65  64  65  66  66  67  67  65  65  65  65  67  69  70  72  71  72  73  72  74  74  72  74  75  76  78  77  76  75  77  78  79  81  80  81  81  82  85  85  85  84  84  87  84  83  81  82  85  87  87  86  88  89  87  86  83  83  80  76  74  73  73  72  69  69  72  73  72  72  83  90  97 109 112  65  59  55  56  56  58  63  65
  61  53  55  60  61  60  60  61  61  64  65  66  65  65  66  65  66  65  66  66  67  66  67  68  71  70  68  72  73  74  75  75  73  75  78  80  79  76  75  78  78  77  79  78  79  80  82  84  83  82  81  82  86  81  79  81  84  88  90  89  87  87  86  84  82  78  72  66  63  62  61  59  57  57  60  64  69  73  82 101 125 134 120 111  77  66  59  57  58  61  61  63
  63  48  50  56  58  61  61  61  61  61  63  66  66  66  67  66  65  66  66  66  69  68  67  68  70  69  69  71  73  75  76  76  75  77  79  79  78  76  77  77  78  77  77  79  80  81  83  84  83  83  81  81  84  81  80  81  84  88  90  88  85  82  80  74  69  62  54  50  51  51  52  54  54  58  64  67  73  80  92 115 141 141 125 105  81  75  66  63  61  62  60  61
  62  45  46  50  55  58  59  61  61  62  63  64  66  67  66  66  66  65  65  65  68  67  67  68  70  68  70  70  72  75  75  75  77  80  77  76  77  77  76  76  77  79  79  79  79  81  82  82  81  82  81  81  84  83  82  84  87  87  87  84  77  72  65  56  49  44  46  48  51  54  57  60  64  68  72  76  80  86  96 113 125 131 128 108  90  85  73  67  67  67  66  61
  53  38  42  44  49  55  58  59  61  61  62  62  64  66  66  67  66  65  65  66  67  67  70  70  72  72  72  72  73  73  74  76  79  79  76  76  77  77  75  74  77  79  78  76  77  79  81  82  81  81  80  82  84  84  84  87  88  86  81  72  60  51  43  42  45  47  52  54  55  57  61  65  69  74  75  77  80  84  90 101 111 136 135 102  99  85  88  77  72  70  71  62
  40  35  39  42  46  50  54  56  59  60  60  63  63  63  67  69  67  67  68  67  68  67  70  71  71  73  73  73  75  74  75  79  79  77  77  78  79  78  75  76  77  79  79  75  75  79  81  82  80  81  81  81  84  83  86  87  86  80  65  50  45  45  48  51  54  58  59  62  64  64  66  69  71  75  77  77  81  87  96 104 121 151 135  88  97  91  84  86  75  72  75  64
  36  34  37  40  44  48  50  53  58  60  59  60  63  62  66  67  67  69  69  69  70  71  71  70  72  73  73  74  75  73  75  79  81  79  78  78  77  75  75  76  76  78  78  76  76  80  81  81  81  80  80  82  85  86  87  86  81  74  62  58  60  62  63  64  66  69  70  72  73  74  75  76  79  82  81  86  92  97 104 111 135 161 130  72  86  83  82  90  83  74  75  70
  37  35  37  40  44  47  46  50  55  58  59  60  62  64  65  65  67  68  67  68  71  69  69  72  72  72  72  74  74  75  78  80  79  80  78  78  77  75  77  76  76  76  75  75  76  78  79  81  80  79  80  81  83  84  84  83  80  74  74  74  73  73  74  72  72  75  78  78  80  83  87  88  89  87  87  94  98 104 110 119 152 168 126  57  67  67  75  83  83  77  72  68
  39  39  38  40  45  45  46  48  51  54  58  58  61  64  65  65  67  67  67  68  71  71  72  72  72  72  73  74  75  77  80  81  79  80  80  79  79  78  75  73  73  74  73  73  75  75  76  78  79  80  81  81  82  84  84  82  81  80  81  80  79  78  79  80  80  81  84  85  87  89  92  96  94  90  92  97 102 108 115 133 172 186 132  50  53  58  62  73  75  78  76  68
  40  41  40  41  45  47  46  46  49  55  56  55  58  62  62  63  65  65  67  68  70  72  72  72  72  72  73  75  78  79  81  82  81  79  79  81  79  79  76  74  75  76  75  74  74  74  77  80  80  81  81  79  78  80  82  82  82  81  84  82  81  82  84  84  84  85  87  87  90  93  95  96  94  92  93  97 103 109 120 154 193 203 148  46  50  58  64  67  68  76  77  72
  44  46  44  43  46  48  45  43  46  49  52  54  56  59  61  64  64  66  70  68  68  69  72  73  73  74  74  74  78  77  78  81  81  80  80  81  80  77  75  74  74  76  77  76  74  74  75  78  80  80  80  80  79  81  82  84  82  82  84  83  82  82  84  87  87  86  87  88  89  94  95  94  92  90  91  98 105 116 140 190 216 219 183  62  50  58  67  73  60  63  73  73
  47  48  48  48  48  47  44  42  42  45  49  53  56  59  62  65  65  67  67  68  70  71  72  73  73  73  74  74  76  76  76  80  81  81  81  79  78  76  75  75  75  75  76  75  73  73  73  74  77  79  80  80  80  81  82  84  85  83  84  84  83  83  83  87  88  89  89  89  89  92  93  92  92  90  93 100 107 127 169 216 228 230 212  98  48  56  66  71  59  53  66  75
  46  50  51  52  52  50  47  44  41  43  47  49  54  58  59  61  64  66  67  67  68  70  72  73  73  73  73  73  75  76  79  81  83  83  79  79  78  76  75  75  74  74  76  75  73  72  73  76  79  78  78  78  80  82  81  81  82  82  84  86  83  84  84  85  88  89  89  88  88  88  89  89  89  89  96 104 116 142 184 215 225 226 224 142  56  53  64  68  69  49  55  67
  47  52  55  56  54  54  51  47  43  41  45  48  49  56  58  60  63  64  66  67  66  69  71  73  73  73  73  73  75  76  78  81  81  82  80  78  78  77  77  78  76  72  71  69  69  71  74  76  76  76  78  78  78  79  80  79  81  82  85  84  83  83  82  86  88  88  88  87  85  85  84  86  89  93 105 117 129 157 179 195 212 222 223 190  73  50  56  62  77  54  45  52
  45  52  57  58  56  54  53  49  43  40  42  47  48  51  54  58  62  65  66  66  66  68  71  72  73  73  74  73  73  72  74  77  79  80  81  78  77  77  77  76  74  68  63  62  64  70  74  74  75  74  76  76  76  78  80  80  80  81  81  82  86  83  83  84  85  85  87  84  83  83  84  91  98 110 122 138 153 157 159 167 189 212 218 210 105  46  51  55  64  70  48  47
  44  51  54  57  55  54  55  51  46  42  42  46  47  50  55  57  59  62  62  64  66  68  70  71  72  72  70  69  68  68  72  75  79  79  78  77  79  78  76  75  74  67  60  61  68  72  75  74  75  75  76  75  76  76  78  79  81  80  79  82  83  83  84  84  82  81  82  82  82  83  87  96 108 118 142 160 157 152 152 162 180 192 207 210 129  42  48  52  51  69  60  45
  44  49  52  57  57  56  55  53  49  45  43  42  45  48  52  53  56  59  61  63  64  66  67  68  69  69  69  68  69  71  72  75  76  76  76  76  76  76  75  75  74  68  67  69  73  73  74  75  76  76  75  75  76  79  80  80  81  80  81  82  82  82  84  84  82  81  81  81  81  85  92  98 110 123 148 158 152 143 145 155 165 172 180 191 133  45  42  45  41  57  65  47
  41  46  50  55  55  54  53  55  52  48  45  42  44  47  49  51  54  57  58  59  61  64  66  67  67  67  68  68  70  73  74  74  74  74  74  75  76  75  74  75  74  71  72  72  73  73  73  73  74  74  74  74  77  79  78  77  79  79  81  80  81  82  82  84  81  81  81  81  83  88  92  97 107 122 138 146 148 141 132 135 144 154 157 167 111  51  37  40  37  46  52  50
  36  43  48  53  54  55  54  55  54  52  49  45  43  45  47  50  53  55  56  57  58  61  62  63  64  66  67  67  70  72  71  72  72  73  73  73  75  74  73  74  73  73  74  74  73  72  73  73  73  73  74  74  74  75  77  78  78  79  80  78  79  80  81  82  81  82  81  80  81  88  92  93 105 122 128 134 140 135 126 124 128 133 137 139  77  52  36  35  36  38  40  45
  33  40  46  52  54  57  57  56  56  55  54  50  46  44  44  46  50  52  53  54  56  59  60  63  63  64  65  66  67  67  67  68  70  73  73  72  72  73  72  72  71  71  73  73  73  73  73  73  73  74  74  74  75  75  77  78  80  80  80  82  81  79  80  82  82  83  81  81  82  90  94  94 100 114 120 126 129 127 119 116 116 118 121 117  53  51  41  38  34  33  34  41
  30  37  45  51  54  56  58  60  60  58  57  54  50  47  46  45  46  49  50  54  55  57  58  62  62  63  64  64  61  59  58  61  66  71  69  71  71  71  71  71  73  73  73  70  71  73  73  73  74  74  73  74  75  75  76  78  80  80  81  81  81  80  81  81  82  83  82  83  85  90  94  94  95 100 108 115 116 114 109 108 108 107 106  83  50  47  49  43  37  31  30  37
  28  37  46  51  56  58  58  60  60  58  57  55  53  50  48  46  45  47  49  52  54  56  57  58  58  58  60  59  58  57  55  57  63  65  66  67  69  68  68  69  70  71  71  69  71  72  72  72  73  73  73  72  74  74  76  77  76  76  77  78  79  80  81  82  82  83  83  85  86  89  93  94  94  98 103 109 107 106 104 101 100  99  84  59  52  47  54  53  43  37  33  36
  24  33  44  49  56  59  60  62  60  59  57  57  56  54  51  46  43  45  47  52  53  55  57  55  54  55  58  56  55  56  56  56  60  61  63  64  66  67  67  68  66  65  67  69  68  67  67  68  69  70  71  72  72  73  74  73  74  74  74  75  76  78  80  81  83  85  83  84  88  88  90  91  93  96  97 101 101  98  95  92  89  81  59  56  56  58  57  58  51  43  39  38
  18  31  41  46  53  56  62  65  64  60  59  59  59  58  53  50  46  45  46  48  49  50  52  53  54  54  54  53  52  53  54  57  57  58  59  61  62  62  63  64  63  63  65  67  67  65  65  66  67  70  70  69  70  73  72  72  73  73  74  74  73  75  77  78  81  83  84  83  82  85  88  89  89  90  92  96  93  90  87  82  76  69  60  61  59  60  56  58  59  54  47  41
  13  28  37  42  49  54  60  63  64  60  59  61  62  58  55  54  51  48  46  43  44  46  48  48  50  52  52  52  50  52  52  54  54  54  55  57  58  56  55  57  60  61  62  64  64  64  63  65  66  67  67  68  70  70  68  69  70  71  70  72  73  75  75  75  76  80  81  82  81  82  84  85  84  88  86  86  84  79  78  76  68  69  71  69  66  65  61  54  56  55  48  39
   9  22  36  41  49  54  60  62  64  65  65  66  64  60  59  58  55  52  50  47  46  45  46  48  48  49  50  50  50  50  50  50  50  50  51  52  51  53  52  51  53  58  58  57  59  62  60  62  63  64  64  65  67  67  66  66  67  68  69  71  72  73  73  74  74  74  77  80  79  79  80  79  80  82  74  60  55  52  60  79  80  71  70  73  76  76  71  72  67  61  52  35
   6  17  31  38  45  53  56  60  63  65  66  66  67  66  62  62  59  55  52  48  48  46  45  46  46  48  50  49  48  48  47  49  48  48  47  49  50  51  50  50  52  53  54  53  56  57  56  57  58  60  60  60  64  66  66  65  65  67  67  68  69  70  70  71  68  69  73  75  74  74  73  73  65  49  35  29  32  38  44  58  81  90  77  72  78  84  74  72  75  75  72  56
   6  14  27  35  44  51  55  58  61  63  66  67  68  66  65  64  61  60  57  51  50  48  46  46  48  49  49  48  49  48  49  50  49  49  51  51  50  50  51  53  53  52  52  52  52  52  52  53  55  57  57  57  60  62  62  62  64  63  63  66  67  66  66  66  65  65  67  69  70  68  47  31  23  22  21  19  24  31  33  40  58  85 100  97  87  90  87  71  72  83  83  76
   6  12  24  34  43  50  55  57  60  62  64  66  69  67  68  67  64  64  60  56  55  53  49  48  48  50  52  51  52  52  53  53  53  53  53  53  53  54  53  53  53  53  53  52  52  51  51  51  52  54  58  57  58  59  59  60  61  61  60  63  65  67  65  67  67  62  51  50  61  69  34  13  16  16  17  18  20  23  29  35  41  54  76  99 101  91  91  88  80  86  88  76
   6   9  20  32  41  50  54  58  59  60  63  67  68  71  70  69  69  66  63  61  59  56  53  50  50  52  52  51  50  53  56  56  56  55  57  56  55  54  55  56  55  56  57  53  52  52  53  53  54  55  56  57  57  57  59  60  59  59  61  63  65  69  76  87  89  58  33  37  48  62  57  14  13  12  13  17  18  21  26  31  34  41  49  70  86  95  94  95  94  95 103 109
   6   8  15  28  39  48  54  57  60  63  66  67  68  71  72  71  71  68  67  65  62  57  57  54  53  52  52  51  53  53  56  57  57  57  57  56  53  52  51  55  56  58  58  56  56  56  56  54  55  56  57  58  58  58  59  62  61  64  66  72  82  89  97  99  95  54  29  32  42  55  61  30  13  11  11  13  16  17  20  24  27  32  41  47  57  71  85  93  91  91  97 108
