P2
92 112
255
 176 112  92  75  64  62  40  24  25  31  41  53  60  54  37  26  21  19  21  24  32  38  40  41  36  32  28  25  25  25  25  25  29  37  44  48  62  67  71  78  85  98 103 108 109 109 112 110 105 108 114 134 169 198 167 126 106  78  72  73  72  73  73  83  88  99 123 134 134 130 112  96 136 141 122 107 108 104  99  90  96 110 117 117 116 121 128 141 133 130 131 121
 175 112  82  71  65  50  30  24  27  32  40  52  60  54  38  27  21  22  22  26  37  40  39  35  31  26  22  21  22  23  22  23  27  33  39  43  48  55  61  69  78  77  78  84  88  92  92  95 102 112 133 147 168 178 128 101  83  73  70  70  69  74  87 101 111 127 144 141 141 146 127 103  95 106 122 125 113 108 106 101  93  92  98 109 114 110 109 118 133 136 124 117
 187 101  72  70  53  35  26  21  24  28  36  47  56  53  37  28  25  25  26  32  37  38  33  32  28  22  17  17  20  25  25  27  32  40  45  47  50  51  56  62  68  74  75  75  78  84  89  96 106 116 134 149 171 133 103  86  83  75  69  69  67  65  69  86 121 145 147 164 166 162 151 127 101  86  87 106 120 118 108 109 100  90  86  90 100 114 114 113 115 122 130 131
 165 106  75  52  38  29  25  21  23  25  32  42  53  52  38  30  26  27  30  34  34  31  28  27  24  21  17  16  20  30  38  45  51  56  59  60  59  57  58  61  64  68  75  81  87  93  98 111 128 135 152 159 162 122 100  92  85  79  74  70  72  69  72  74  84 124 145 144 129 114 118 118 107  90  78  64  66  91  97  96  93  88  83  81  83  86 104 115 113 112 111 118
 168 109  56  38  34  33  30  27  28  26  30  37  46  50  40  33  26  31  33  34  34  31  26  22  21  18  18  23  35  47  57  62  66  69  67  71  71  71  71  72  75  78  81  87  96 109 119 132 146 162 176 178 153 124 108 100  92  84  82  81  79  75  76  81  78  79 115 135 150 135 102  95 103  95  80  77  65  63  72  79  83  88  87  82  80  81  84  93 109 109 106 109
 134  65  47  48  49  45  37  33  31  29  30  36  41  46  41  33  31  36  37  35  34  28  23  19  18  19  33  46  58  66  70  72  76  78  76  77  80  82  83  85  89  89  90  98 108 122 134 146 156 168 180 180 155 133 123 110 103  97  91  91  92  89  84  91  93  81  82  92 120 134 124  92  83  88  87  80  71  64  57  62  77  81  82  84  82  80  79  80  90 101 104 104
  79  56  50  59  55  46  41  38  34  31  30  32  41  45  40  32  33  39  36  32  30  26  24  19  25  40  54  64  71  76  78  81  83  84  81  82  83  87  91  93  97  98 102 110 121 129 139 153 167 178 184 177 156 136 129 120 115 111 105 102 103 105 102  99 108  85  80  88  92 109 125 108  87  77  77  78  75  70  56  59  67  72  74  79  83  83  80  74  80  90 100 102
  92  66  59  61  50  44  42  35  29  26  27  30  35  43  37  32  36  39  34  30  24  24  23  29  47  61  68  73  78  80  82  84  84  86  86  86  90  92  95 100 103 104 108 118 129 137 147 158 168 177 178 173 155 140 134 123 118 116 113 109 105 104 109 113 120 112  81  78  82  98 104 104  94  84  70  67  70  76  69  59  57  61  67  72  73  75  80  78  74  75  84  89
  99  83  61  54  45  42  43  39  33  26  24  29  35  43  37  35  38  34  31  27  25  25  36  57  68  73  76  78  83  84  87  88  89  91  90  91  94  96  99 104 105 109 121 130 139 149 155 162 169 173 175 166 149 144 133 126 122 120 115 112 108 109 112 111 115 121  94  82  81  81  84  90  86  86  81  66  61  68  75  72  60  50  53  65  73  71  69  70  73  69  70  79
  93  81  59  47  40  42  50  51  42  35  27  31  37  38  38  38  36  32  28  24  28  43  62  72  75  79  81  82  86  88  88  89  90  92  93  95 100 103 104 107 111 120 132 141 146 154 159 165 170 172 172 162 146 140 134 130 128 122 119 117 115 115 115 113 113 114 102  90  83  79  78  80  82  76  78  76  64  59  65  70  69  62  53  50  62  68  67  60  63  72  68  67
 105  82  57  43  40  42  48  47  40  35  29  32  38  40  42  39  34  32  26  28  46  66  73  77  81  82  82  84  84  87  89  91  93  96  95  97 102 105 106 109 115 120 131 138 146 157 164 162 165 169 165 157 144 134 127 128 129 124 119 119 119 119 118 114 109 113 100  94  87  82  80  78  79  74  68  71  69  62  59  63  71  71  64  54  55  60  65  65  55  57  70  68
 117  77  54  40  41  45  44  41  39  39  33  32  38  44  42  37  33  31  32  49  69  75  75  79  85  85  83  86  87  87  88  91  94  96  98 101 103 105 107 111 116 121 128 136 143 151 158 157 159 161 152 147 137 126 122 123 130 124 123 124 122 120 117 114 110 109 101  97  92  88  85  77  72  69  67  63  66  69  60  54  58  67  70  65  57  54  61  64  63  52  53  72
 124  70  50  39  41  45  44  37  33  34  33  36  39  43  38  34  30  29  50  71  76  79  80  82  85  83  82  85  87  87  87  89  90  92  95  97 100 104 107 110 115 119 122 130 139 145 146 143 145 148 144 141 135 123 122 121 124 122 122 123 124 122 119 111 110 108 104  97  95  91  89  80  75  71  67  64  58  64  69  60  54  54  61  68  64  57  57  60  63  62  53  51
 102  66  48  36  40  46  50  39  36  35  34  38  39  38  34  31  28  48  74  75  77  81  80  82  84  83  81  84  84  87  87  88  87  89  90  92  95 100 104 108 114 116 119 122 127 130 131 129 129 129 131 130 126 122 121 122 122 120 120 122 121 121 118 112 110 108 109  99 100  96  91  84  80  74  69  67  63  55  63  67  60  54  56  63  66  59  55  56  58  63  63  54
  94  81  50  39  39  38  42  37  31  31  32  35  37  37  34  29  40  75  79  80  80  81  81  83  84  84  83  83  82  84  87  88  87  87  88  92  94  97 100 102 108 112 114 119 119 122 122 121 119 118 119 119 116 117 118 121 120 118 118 118 119 116 116 116 115 112 110 107 106 100  95  88  85  82  76  72  66  60  55  62  65  59  51  54  59  59  58  56  54  58  62  61
  88  88  58  41  33  26  23  15  17  20  26  32  37  36  30  33  68  82  81  78  79  80  81  81  82  84  82  82  83  85  87  88  88  87  88  91  94  97  98  99 105 108 109 111 111 112 113 113 113 113 111 111 112 115 118 118 116 114 116 117 117 114 112 115 118 114 112 109 110 103  99  92  89  89  84  78  72  67  58  56  61  63  55  52  54  59  62  64  61  58  60  64
  91  71  50  40  35  29  18  12  17  22  31  37  36  29  25  55  80  82  82  80  80  80  81  81  84  82  81  80  83  86  86  84  83  84  86  91  95  97  97  98 101 103 106 107 107 107 107 106 108 110 106 104 106 108 112 113 114 112 112 113 114 113 112 113 115 115 116 115 113 106 102  96  95  96  90  84  78  73  65  57  56  61  59  53  50  53  59  61  59  57  58  60
  86  80  43  39  43  49  31  21  24  30  34  34  32  28  44  80  84  82  81  80  78  81  81  82  82  81  80  79  81  83  82  83  84  84  86  90  92  96  95  98 100 101 102 104 104 102 102 102 104 104 103 103 104 105 109 112 112 110 111 111 112 111 110 111 108 108 110 112 114 110 105  99  96  99  97  90  84  78  72  63  54  54  58  58  52  49  56  58  58  57  51  54
  79  72  42  41  41  35  25  17  23  29  31  32  33  37  69  87  83  81  81  78  78  80  80  79  79  79  80  80  81  83  83  86  88  87  86  89  90  92  95  95  96  98 100 100 102 102 103 100 100 103 104 102 103 103 104 108 111 110 110 111 112 112 112 110 106 106 107 106 110 112 111 103  99 100 102  96  89  81  75  68  59  56  54  58  59  53  50  54  57  58  55  47
  73  60  50  40  36  31  24  19  24  27  31  36  36  55  82  84  80  78  79  78  79  77  77  76  79  80  81  81  81  83  84  86  86  87  87  88  88  89  91  93  97  97  98  98 101 103 104 102  99 101 102  99 101 102 103 105 106 106 109 110 110 111 113 109 106 105 105 105 109 111 112 109 105 102 100 100  94  87  82  77  68  63  58  57  60  60  54  52  55  57  55  53
  51  47  45  39  30  28  24  27  33  34  34  39  44  72  82  82  81  77  76  77  79  77  78  76  76  80  81  81  82  83  83  84  85  87  86  88  87  89  90  91  95  96  95  97 100  99 102 102  98 101 104 101 102 103 104 104 104 104 104 107 109 111 112 114 112 109 107 104 106 111 114 111 109 110 107 104 100  94  87  82  77  70  63  58  56  58  59  56  50  52  53  56
  46  47  41  34  29  25  25  26  30  33  35  42  56  86  84  82  80  77  77  78  81  81  79  77  76  80  81  82  82  83  84  83  85  88  87  87  88  89  92  94  96  97  98  98  97  94  99 102 102 102 101  98  97 100 104 104 103 101 101 105 110 109 111 113 112 110 108 101 105 109 111 111 108 110 110 107 104 100  91  86  81  75  68  64  52  48  56  59  55  48  48  53
  42  50  45  33  26  22  23  23  29  32  37  42  70  88  86  83  79  78  79  80  81  81  80  79  80  81  85  86  85  87  87  87  88  89  88  87  89  89  91  94  95  98 100 100  98  97  98 101 101  99  98  98  94  98 103 104 104 101 101 104 106 105 106 110 110 107 105 102 104 106 108 110 109 107 106 109 105 103  98  90  84  77  71  64  53  47  50  55  57  54  48  47
  50  54  47  31  27  23  22  22  27  34  42  51  83  86  83  83  82  81  81  81  80  79  79  82  82  85  89  88  88  88  89  88  88  89  88  88  89  90  93  95  97  99 101 105 103 102 101 100 101  98  99 101 103 102 103 102 102 102 101 105 105 105 103 106 107 106 104 102 104 108 108 111 111 112 109 107 106 105 102  95  87  79  72  64  55  52  48  49  52  56  57  50
  55  54  46  34  31  28  24  26  30  37  42  63  87  85  84  83  82  83  83  82  81  82  83  84  84  87  91  90  91  90  89  88  88  89  89  88  90  94  98 101 102 102 103 106 106 105 103 102 103 102 102  99  97 101 103  99 103 105 105 105 105 106 105 104 105 105 104 103 103 109 112 114 114 113 112 108 106 108 105 102  94  82  76  69  60  54  48  42  43  47  53  54
  69  66  58  43  35  31  28  31  34  38  43  74  88  84  83  82  82  83  84  86  84  86  86  88  90  92  95  95  96  94  93  92  90  90  91  91  93  98 103 107 109 110 109 114 114 109 109 109 108 109 107 104 103 105 104 102 103 106 106 104 106 106 103 101 102 104 105 103 102 107 111 114 117 115 111 110 106 106 105 101  95  87  79  73  65  57  49  43  39  39  46  56
  78  74  60  41  35  32  30  31  33  37  47  81  89  84  83  85  85  86  87  87  87  88  89  91  94  96  97  99 100  99  97  95  91  93  97 101 104 110 111 115 120 123 125 129 133 126 122 120 113 112 110 110 111 109 108 107 106 109 109 106 108 105 104 104 105 105 104 100 100 109 112 115 117 115 112 112 111 111 106  99  92  87  78  74  68  59  56  50  43  37  37  47
  96  79  52  37  33  32  31  32  34  38  52  81  88  85  85  84  84  85  85  87  87  88  90  93  96  97  97 100 100 101 101 100  97  99 103 107 111 117 120 123 131 134 133 133 138 134 125 123 118 118 115 112 112 110 110 108 107 108 110 107 109 107 106 107 108 107 105 102 102 109 112 117 118 115 114 114 112 113 110 106 101  93  81  75  71  63  59  53  48  42  36  39
  52  46  43  38  36  34  33  33  36  40  62  86  88  87  86  82  81  81  82  86  84  87  90  91  92  94  98 101  99 100 104 105 101 101 105 109 117 121 129 128 131 134 132 131 137 136 128 128 128 126 124 119 114 112 113 112 112 111 111 111 110 109 108 109 110 110 108 105 104 106 112 114 116 116 116 114 114 112 111 108 105 100  90  81  76  69  64  58  50  48  41  35
  89  74  60  52  46  41  37  37  38  42  69  88  86  83  82  81  80  80  81  81  82  83  87  88  90  91  93  96  96  99 102 102 101 103 107 110 116 115 117 123 127 130 131 130 132 131 129 129 130 129 129 129 121 117 117 116 115 113 111 114 112 111 111 111 110 110 108 106 103 105 108 114 117 117 115 115 114 113 113 110 105 105 102  92  81  74  67  65  55  50  47  39
 142 111  77  66  54  47  41  38  39  49  75  81  79  78  79  77  77  77  78  79  81  82  83  83  85  87  89  90  93  94  93  96  98 101 106 107 110 110 105 110 117 120 126 129 128 124 123 124 129 130 130 128 127 126 124 121 119 115 113 113 113 113 112 111 110 110 109 107 104 104 109 112 115 115 115 116 117 113 111 111 106 105 104  98  90  82  72  68  63  55  51  52
 142 118  79  67  57  50  45  40  41  54  70  70  71  71  72  72  75  76  77  77  78  80  79  81  83  85  86  88  89  89  88  90  96 100  97  99 102 107 103 103 107 111 118 120 122 117 117 119 124 128 125 122 126 129 128 125 124 120 119 115 114 113 113 112 111 109 108 108 106 101 106 112 114 116 117 116 116 116 116 113 111 110 107 103  99  92  81  73  66  59  54  55
 146 123  79  67  59  50  42  43  46  52  58  57  57  58  60  64  68  72  73  74  75  78  79  80  82  84  83  83  84  86  84  86  90  90  88  91  94  97  96  98 102 104 108 111 114 114 113 115 119 123 120 119 124 127 128 126 125 122 119 117 115 114 112 111 112 111 107 107 107 101 102 110 113 117 117 117 116 116 118 115 116 114 110 108 103  96  86  79  72  64  59  57
 144 120  79  67  60  53  46  48  52  51  47  44  43  43  45  48  54  61  67  71  74  75  75  78  82  81  81  81  82  82  82  83  86  87  85  86  87  88  88  91  92  93  97 101 107 110 111 113 115 116 115 116 120 121 123 124 124 124 121 119 117 116 112 113 113 111 109 107 106 104 100 109 113 116 115 116 115 117 117 115 115 114 112 111 107 103  95  83  77  69  63  58
 140 120  82  67  59  52  50  46  48  48  43  39  39  39  36  36  37  44  53  60  67  70  72  74  77  78  79  82  82  81  80  81  83  81  82  82  82  85  84  85  88  90  91  93  97 103 102 105 109 110 112 112 116 116 120 123 126 128 127 122 118 118 116 114 114 112 110 108 107 106 103 101 108 114 115 116 114 117 117 115 114 114 114 114 110 105 100  91  82  72  66  60
 142 124  82  68  59  53  51  49  52  51  45  41  38  37  32  31  31  32  38  45  57  63  67  70  74  75  78  79  78  76  77  78  78  80  82  82  81  82  83  83  83  85  87  90  94  97  95  97 101 102 103 106 110 114 117 122 124 125 126 124 121 121 118 117 115 113 111 109 108 109 108 100 101 109 113 114 114 115 115 113 115 116 114 114 111 105 101  94  88  76  68  63
 143 126  79  66  59  52  49  48  56  56  51  48  44  42  39  35  32  32  33  35  45  55  59  66  71  74  77  78  78  76  76  77  77  80  81  81  80  80  81  82  82  82  84  84  89  91  91  94  96  96  99 103 107 108 109 112 116 120 123 125 125 125 121 120 116 113 113 111 109 109 108 104  99 102 108 113 113 113 114 113 113 114 113 111 111 107 103  97  93  82  71  63
 143 125  82  66  60  50  48  45  58  57  54  51  50  50  49  49  42  36  33  32  34  42  50  58  67  73  73  74  76  76  76  76  78  81  80  81  80  78  78  78  77  77  78  77  78  82  85  86  87  89  93  95  99 101 104 107 108 111 117 122 125 126 124 122 117 115 114 110 110 110 108 108 103  99 104 106 111 115 114 114 115 113 111 111 110 107 104  98  93  83  73  66
  80  67  54  52  49  48  49  49  53  52  49  47  48  51  51  54  50  46  43  41  40  40  44  51  61  67  70  72  73  74  75  75  76  80  79  77  76  74  72  68  66  62  59  57  56  58  65  71  74  75  77  83  85  87  91  94  98 104 110 117 120 122 121 121 121 120 117 113 111 113 113 109 104 100 105 106 110 111 113 112 113 113 111 112 110 108 104  99  93  86  75  68
  45  43  41  41  42  43  48  55  56  49  44  43  44  42  42  44  46  46  47  47  48  49  48  51  57  62  67  70  74  76  78  79  78  78  79  75  72  70  66  60  56  51  49  47  47  51  53  55  56  59  62  65  70  74  74  78  88  93 101 107 113 116 117 118 121 119 120 117 115 115 114 111 106 105 104 105 109 112 113 114 113 112 110 109 109 108 106 103  98  90  76  70
  41  38  33  28  30  35  42  57  63  55  55  58  51  43  37  32  35  36  37  39  44  49  50  50  54  59  65  67  72  75  78  79  80  76  75  74  69  65  61  60  56  52  49  49  50  50  47  43  43  44  47  50  58  65  65  69  77  81  88  99 108 111 112 115 118 120 122 121 118 116 114 113 109 107 106 102 103 109 113 114 111 110 109 109 107 105 105 103 100  92  77  72
  34  31  29  23  26  33  43  58  65  58  55  50  46  46  48  43  39  34  30  30  34  37  43  47  53  58  63  67  70  75  77  79  77  79  74  73  70  67  63  62  59  57  58  55  54  51  50  50  49  47  45  47  51  57  60  65  70  74  77  85  94  99 102 105 114 118 121 120 119 117 114 112 110 109 108 106 101 104 109 110 109 109 109 108 107 105 103 101  99  93  80  73
  31  28  25  24  30  36  44  61  63  51  42  36  35  32  32  33  36  36  34  33  29  28  31  39  46  53  63  66  70  74  78  81  80  82  80  75  73  71  68  66  64  64  63  62  61  59  59  59  58  57  56  58  61  64  63  64  66  68  71  75  83  87  89  95 106 109 110 116 119 119 116 112 109 109 109 108 105 102 103 104 104 107 107 107 106 106 104 101 100  91  83  73
  30  27  25  26  34  40  50  56  49  38  37  39  39  33  30  26  23  22  26  37  38  28  23  27  34  41  57  64  68  73  79  82  82  84  84  79  75  72  67  64  64  62  61  61  60  56  57  59  60  59  60  63  65  68  68  69  71  72  71  74  78  81  83  88  93  98  99 102 109 114 113 112 112 110 109 107 105 104 102 101 104 105 105 106 105 105 103 101  99  92  86  75
  30  26  24  25  36  44  51  52  47  46  47  47  48  39  31  24  19  19  26  36  41  43  27  22  22  30  47  61  68  75  80  81  82  81  81  76  71  66  63  58  58  57  56  53  48  47  47  48  50  52  53  57  62  64  68  70  71  73  75  78  82  81  84  90  91  94  95  95  97 104 109 113 112 113 110 106 104 105 104 103 105 104 105 106 106 105 103 102 100  93  89  75
  28  26  26  28  39  49  61  62  59  59  54  51  54  43  32  21  17  17  30  38  41  53  42  24  22  25  39  58  68  73  78  78  77  74  71  64  58  53  51  48  48  45  43  39  37  37  37  36  38  41  45  49  50  53  58  61  65  67  70  74  78  81  83  88  92  95  96  97  98  98  99 103 107 110 109 107 105 105 104 104 105 104 104 107 106 104 103 101  98  96  90  76
  29  28  28  31  41  56  71  68  61  58  51  49  50  44  39  30  23  23  31  35  44  54  48  29  28  30  34  44  51  56  64  69  67  65  60  59  57  54  52  47  43  38  35  33  32  33  31  33  37  39  43  49  48  49  52  55  58  59  62  64  70  75  77  81  86  90  94  96  98  99  97  97  98 102 106 106 105 104 102 105 105 104 104 106 105 104 102 101 100  98  91  77
  28  26  26  29  42  67  75  71  64  57  49  46  48  47  42  35  30  29  32  38  45  54  49  24  24  29  37  42  42  38  36  41  48  59  72  71  67  62  57  51  45  39  33  30  33  35  34  34  33  33  37  41  46  50  55  58  61  59  58  57  60  65  69  76  80  84  87  91  95  95  98  97  97 100 104 105 104 103 102 105 104 104 105 105 104 104 104 105 104 101  92  76
  29  28  25  27  47  74  76  74  67  58  49  44  46  46  45  40  37  35  36  38  40  56  44  21  21  35  54  59  62  61  53  42  38  65  72  70  67  64  59  51  43  35  30  28  28  28  28  26  24  23  25  31  37  39  48  54  61  64  63  61  61  60  62  66  71  77  79  83  88  93  95  97  99 101 102 103 104 103 102 106 106 107 106 106 106 107 105 105 102  98  91  75
  31  30  30  30  59  80  77  73  68  62  57  50  45  45  42  41  40  41  36  33  38  63  34  21  32  59  70  74  74  74  70  57  46  71  72  69  67  66  61  52  45  37  33  28  28  29  29  27  20  18  18  19  24  30  38  41  46  53  61  76  77  65  60  60  62  69  72  76  79  85  89  94  97 101 101 101 100 101 101 105 106 109 109 108 108 110 109 108 104  98  85  70
  37  33  34  43  75  81  75  74  71  65  61  58  53  51  48  44  38  37  35  31  34  67  26  29  61  74  78  82  86  81  71  57  42  69  67  68  71  69  63  58  54  43  36  29  28  32  32  28  18  17  19  21  30  34  48  45  43  43  47  55  85 128  96  64  60  61  66  72  74  76  82  88  92  97  98  97  97 100 103 107 106 107 108 110 110 111 111 110 108  99  80  66
  59  42  39  59  81  79  74  73  71  65  61  59  57  53  50  44  40  37  34  32  36  70  23  54  80  86  88  90  90  83  71  53  40  62  53  61  72  76  72  67  57  45  37  30  28  33  33  31  19  16  16  23  45  51  62  63  56  41  36  37  43  60  80  65  64  62  64  67  70  73  76  81  83  86  93  94  94  96 102 102 103 105 106 109 110 110 109 106 103  97  79  62
  87  89  72  76  82  77  73  73  70  65  60  58  56  52  48  46  41  38  36  36  54  56  39  83  92  94  95  96  95  86  74  56  41  53  40  48  70  74  71  61  53  43  35  31  31  33  35  32  29  23  22  30  41  54  66  71  65  51  47  39  38  39  40  48  63  64  63  65  66  70  73  77  79  82  87  90  91  94  97  97  97 102 104 104 106 108 107 104 101  95  71  58
 122 101  94 102  96  80  71  68  67  65  62  59  55  53  51  49  45  42  41  42  69  42  71  95  99 104  99  99  99  93  82  62  42  57  42  55  69  69  64  57  50  44  39  36  36  36  37  37  35  32  32  40  51  67  71  72  67  59  57  53  43  39  36  53  62  58  65  65  65  67  68  69  73  78  82  84  85  85  88  88  89  93  95  95  97 100  98  98  97  85  62  47
 131 125  96  64  70  79  74  70  66  65  62  60  57  54  52  49  47  45  43  51  73  62  94 104 111 110 104 102  98  94  83  65  43  63  58  62  66  64  58  51  48  43  38  35  34  37  40  43  42  41  42  50  64  70  70  66  64  57  54  48  44  41  40  49  28  41 115 110  74  67  71  77  81  89 106 100  96  90  93  95  97  97  93  89  87  83  79  70  65  59  49  38
 132 126 108  72  69  70  65  62  61  61  59  58  57  55  52  49  47  46  47  75  75 100 109 115 116 109 106 102  98  96  88  72  47  65  63  61  64  63  57  48  45  42  38  34  33  37  39  41  42  43  47  53  56  58  57  54  53  50  49  47  46  47  48  52  19  38 119  86  67  63  71  78  65  65  69  60  55  54  49  53  58  60  50  44  44  40  34  33  32  31  33  32
 131 129 107  74  76  79  74  68  62  56  49  48  47  47  47  46  45  44  44  65 123 145 142 127 118 112 106 101 100 100  95  81  55  58  59  58  63  65  58  52  47  46  41  39  38  39  40  40  40  42  47  48  50  54  53  53  53  53  52  51  53  54  58  60  19  42 110  79  66  63  69  71  64  61  60  60  57  52  46  48  46  40  33  31  35  40  46  50  56  58  57  47
 131 124 101  74  79  79  72  68  65  62  58  55  50  49  47  46  46  49  80 141 165 172 166 140 125 114 106 101 100  99  98  91  66  52  62  62  66  67  64  59  53  47  45  44  42  43  42  42  45  49  53  54  56  57  57  57  58  57  58  58  60  63  65  53  16  48 107  77  67  66  69  63  47  48  48  44  45  48  54  66  72  76  81  89  92  98 100  99  95  93  82  65
 129 123 102  73  78  78  70  67  66  65  62  59  57  57  53  54  56  89 150 169 177 179 169 142 125 114 106 100  99  98  98  98  81  50  59  72  72  73  70  62  57  51  49  48  47  48  48  51  54  59  59  60  63  63  62  62  63  63  62  61  65  68  69  54  29  53  97  77  73  77  77  70  75  86  93  95  98  98  99 101 104 103 103 105 107 109 111 107 102  98  89  76
 128 125 105  76  77  76  72  72  71  69  65  62  61  60  57  59  97 146 162 174 186 187 173 143 123 114 108 103 100  98  97  95  87  66  49  65  73  73  72  65  61  57  54  51  50  51  54  57  58  62  63  62  64  64  63  64  64  62  62  62  66  69  70  53  62  86  89  88  86  89  92  95  97  99 102 104 103 103 103 106 107 109 111 111 112 114 113 110 103 101  93  86
 128 121 105  75  75  74  73  75  74  71  66  63  61  59  62 103 143 153 167 177 196 201 189 154 124 114 110 103  99  96  97  93  89  78  64  55  63  67  71  68  64  61  58  56  54  53  55  57  58  60  62  64  67  66  64  64  63  61  60  64  66  70  69  45  74  88  90  90  92  94  97  98 103 103 105 108 108 106 105 109 111 112 113 113 115 116 116 111 107 105  97  87
 126 121 105  76  74  74  74  74  74  69  66  63  60  64 106 138 148 155 164 181 200 200 183 154 125 114 107 101  99  97  94  94  90  84  79  70  64  59  60  61  64  62  61  59  59  58  57  57  58  61  65  66  68  67  67  66  65  64  63  66  70  73  62  46  84  93  93  94  97 102 104 104 107 109 110 111 112 111 111 112 113 114 116 116 116 116 115 112 109 104 100  88
 125 118 106  79  74  74  74  72  69  65  65  64  64  96 130 138 146 155 164 179 191 189 173 149 127 113 106 100  97  97  96  97  91  88  84  78  76  73  68  61  57  57  57  57  60  60  59  70  77  61  64  66  68  69  69  67  66  65  67  71  76  72  48  62  94  96  97 100 102 105 108 108 109 110 111 113 114 113 113 113 114 116 116 116 114 116 114 113 110 104 101  94
 125 119 108  78  74  73  72  70  68  66  65  65  84 114 119 128 138 147 154 162 170 166 155 138 123 113 105  99  97  97  97  96  93  93  90  83  80  78  77  75  72  69  66  61  56  52  58  66  78  62  63  63  68  72  72  69  66  65  67  71  70  54  49  89  98 100 103 105 106 107 109 110 111 112 113 114 114 114 114 113 113 114 114 115 114 114 114 114 110 104 103  98
 125 120 111  79  72  69  70  69  67  66  66  71  96 104 109 121 129 137 145 151 158 155 148 133 119 111 102  97  95  96  97  95  94  95  93  87  84  83  81  79  78  80  82  81  81  78  72  67  69  61  60  61  59  54  53  54  56  55  55  54  56  65  89  99 101 106 109 106 105 107 110 111 113 113 113 114 114 113 114 113 114 114 113 115 116 116 115 114 107 102 101  98
 124 121 110  82  70  71  71  68  67  67  67  78  88  92  97 106 116 125 132 145 148 148 140 125 115 107 100  95  92  90  92  93  92  94  95  91  89  88  85  85  86  87  88  90  94  92  92  92  89  84  82  82  81  79  82  87  96 102 104 103  99  99 101 103 104 110 110 108 106 108 110 112 113 113 113 114 113 114 114 114 114 113 114 114 113 113 114 113 109 104  99  95
 125 121 108  81  66  68  67  67  67  66  68  76  77  81  87  94 106 115 121 133 137 137 130 119 112 106  99  91  88  84  85  85  86  88  92  91  89  89  88  88  88  89  89  93 103 110 119 115 103  96  93  92  91  91  93  96 102 107 114 118 115 108 105 105 106 108 109 108 108 108 109 111 112 113 114 113 113 115 116 114 114 113 114 113 112 111 114 114 111 106 103  99
 124 119 109  85  67  66  66  69  68  66  68  72  74  77  81  89  97 107 115 124 128 128 127 121 114 109 103  96  89  86  85  84  83  84  87  89  89  88  86  84  88  88  89  91  98 112 133 148 142 124 111 103  98  95  95  97 101 105 111 116 120 118 113 109 106 106 107 105 107 109 107 109 111 113 113 113 115 115 114 113 113 111 111 110 111 111 111 112 110 108 104 102
 125 123 112  88  66  66  68  70  68  67  67  68  72  73  76  82  90 101 105 111 114 119 120 119 114 110 103  97  93  90  87  84  83  80  83  88  90  89  87  84  86  87  88  91  94  99 107 119 139 145 135 112 102  95  95  96  98 104 110 112 118 119 118 113 107 105 105 105 106 108 108 109 110 113 113 114 114 114 114 113 109 109 110 109 109 108 110 111 110 108 105 104
 127 120 110  90  64  64  68  68  66  66  66  66  69  72  74  79  85  90  92  95  97 102 108 112 109 108 103  99  97  94  92  89  85  81  81  86  90  90  89  88  89  87  88  90  93  96  99 102 112 123 134 121 102  95  91  94  98 102 106 110 111 112 114 112 107 104 103 105 106 107 109 109 110 113 112 112 111 113 112 110 106 107 109 108 109 110 111 110 111 110 109 108
 125 119 107  90  65  61  66  68  66  65  66  66  65  66  70  74  78  81  83  84  87  87  93  95  96  99  99  97  96  95  95  92  86  82  81  85  88  89  88  89  88  86  86  88  92  94  96  98  99 105 113 114 105  97  92  91  95  97 100 106 109 109 108 107 106 104 103 104 105 108 109 109 111 112 112 111 107 109 111 110 109 108 105 103 108 111 111 108 110 112 111 109
 123 115 105  91  65  55  64  68  67  64  64  65  65  64  65  68  71  75  79  81  81  78  75  72  70  73  75  81  86  90  95  94  86  83  81  83  87  87  87  87  84  85  87  85  87  90  92  94  95  98  99  98  98  96  94  90  91  94  98 103 106 106 104 104 104 102 103 103 105 108 109 110 111 110 110 110 108 108 110 110 109 107 104 103 108 110 109 110 111 110 107 107
 119 111 100  86  59  51  65  69  69  66  63  61  62  65  63  62  66  70  74  75  74  71  65  58  43  38  36  50  69  80  88  90  86  79  78  81  84  84  85  84  85  86  86  88  89  90  92  93  94  97  95  95  95  92  92  89  89  92  93  95 100 104 104 103 103 101 102 103 104 105 107 110 109 110 109 107 109 108 108 108 108 105 105 107 109 108 109 112 111 110 108 108
 114 105  93  74  53  52  63  70  71  68  65  64  65  66  64  63  63  67  71  73  73  71  69  67  58  48  42  40  52  68  77  81  82  77  75  81  85  83  84  84  85  89  88  89  90  91  92  92  93  95  93  91  90  90  90  89  90  91  90  91  93  97  99  98 101 100 101 103 105 106 106 109 109 108 107 107 108 106 105 107 107 104 104 106 109 109 110 110 110 109 108 109
 111 101  83  63  53  50  60  66  69  68  66  66  67  66  65  64  63  65  66  71  73  72  73  73  71  66  64  57  57  64  71  75  76  76  79  82  84  85  85  84  85  85  88  89  90  90  90  91  91  93  90  90  91  91  89  90  90  88  89  92  93  96  96  97  98  98 101 102 102 103 104 104 105 105 106 107 106 106 105 108 109 106 105 107 108 108 108 107 107 105 105 107
 104  89  71  56  46  44  59  67  68  67  69  69  69  68  66  66  66  64  64  68  72  76  79  79  74  71  68  63  62  65  68  72  74  78  82  84  85  84  84  82  83  86  88  89  89  89  90  90  91  92  92  91  91  90  89  89  88  86  88  91  92  93  94  97  97  99 101  99  99 101 102 102 102 103 104 106 105 105 107 108 109 107 105 107 108 108 108 106 105 103 105 106
  88  71  62  52  44  39  53  68  70  68  67  68  66  66  66  65  65  65  64  66  70  76  82  83  82  78  76  75  71  71  73  75  79  80  82  85  87  87  87  85  85  86  87  87  90  91  90  92  91  90  89  91  89  88  89  87  86  88  89  89  92  91  93  95  97  99  97  95  95  98 100 102 104 104 105 106 106 105 107 109 109 105 107 109 110 109 106 105 103 101  99 101
  68  62  55  49  40  34  50  67  69  67  66  68  67  66  66  66  66  65  64  63  65  73  79  82  83  82  84  82  80  82  83  81  82  85  86  85  87  88  88  89  87  88  89  89  90  91  90  91  92  93  92  89  89  89  89  87  88  89  89  89  92  91  90  93  96  94  91  90  95  97  98 101 103 103 104 105 105 106 107 109 108 107 109 110 109 106 105 103 100  97  93  94
  66  54  47  37  31  31  46  67  69  67  66  66  66  66  66  67  67  65  63  63  62  69  77  82  86  85  86  84  84  86  88  87  85  87  87  87  89  89  90  91  89  87  88  89  89  91  90  93  93  95  94  90  89  90  88  88  89  89  89  91  91  90  89  91  94  94  95  96  97  99 100 101 103 104 104 104 105 106 107 108 107 108 111 110 107 105 105 103 102  97  92  91
  52  40  33  27  25  25  42  66  67  67  66  66  69  69  67  66  65  66  66  64  62  66  72  80  85  85  87  87  87  88  88  89  90  88  87  89  91  90  90  92  91  89  88  90  91  91  93  94  96  96  96  92  91  92  91  91  91  89  89  90  90  90  88  89  90  92  96  96  96  99 101 101 102 103 103 104 104 106 106 107 105 108 110 109 108 104 102  98  94  92  90  87
  41  37  30  24  21  23  40  66  68  67  65  65  67  66  65  65  67  66  65  63  62  66  71  78  83  85  88  89  89  88  88  89  90  88  85  89  95  94  93  94  95  93  92  91  92  93  93  93  95  96  95  93  94  95  93  91  91  90  90  89  90  89  89  85  85  91  95  96  96  98 100 100 100 102 103 104 105 108 109 108 109 110 109 110 107 103 101  97  90  87  82  78
  39  32  26  23  22  22  38  66  68  66  62  58  58  58  58  60  64  64  64  61  63  69  72  75  79  83  88  89  89  90  90  89  89  89  89  90  94  95  92  94  95  96  96  94  94  93  94  94  93  93  94  94  96  95  95  93  93  90  91  90  92  90  87  82  83  90  94  95  96  98  99  98 100 103 104 105 106 108 110 108 109 110 109 107 105 103 100  92  87  79  63  67
  30  27  24  21  21  22  31  65  67  63  58  52  46  44  47  53  56  58  61  61  64  67  70  73  76  79  84  88  89  92  94  93  94  93  92  93  95  93  89  90  94  96  96  95  95  93  92  94  92  94  95  97  97  99  97  95  93  90  89  89  90  90  88  86  88  92  96  94  95  95  97  98  98 102 104 107 109 111 112 110 110 110 109 106 104  99  94  86  78  64  55  59
  26  24  24  22  21  20  26  63  67  63  54  44  38  35  38  43  46  48  52  55  57  59  62  64  67  71  76  81  85  89  93  94  95  92  93  95  93  92  88  88  94  97  97  96  94  94  93  94  95  97  97  97  97  98  97  96  94  93  90  89  89  86  87  89  89  90  91  92  92  94  96  97 101 103 104 106 109 112 113 113 110 109 108 105 101  96  90  81  70  63  60  59
  24  21  20  19  18  18  22  55  66  62  56  50  46  39  38  38  35  38  45  48  49  52  53  53  56  58  63  66  71  78  85  88  90  90  92  94  92  91  90  90  94  94  95  97  96  96  94  96  96  96  96  96  97  97  97  97  95  92  92  90  90  88  88  89  90  90  90  90  93  95  97 100 102 104 105 108 110 111 112 111 108 106 105 104  98  92  85  76  70  68  65  60
  23  20  22  19  19  21  22  46  65  61  58  57  55  47  44  41  37  38  38  39  39  41  42  43  45  46  50  53  54  61  68  77  79  83  86  89  89  88  90  92  93  92  92  95  97  96  96  96  97  96  96  97  98  97  97  96  96  93  94  93  93  91  90  90  92  92  91  92  93  97  99  98 101 105 108 112 111 111 111 109 108 106 105 102  93  88  80  75  74  72  68  61
  21  18  20  20  23  20  19  38  62  61  60  60  56  51  47  45  42  41  40  38  37  36  35  37  37  37  38  41  43  46  49  53  58  67  73  78  80  83  87  90  92  93  92  93  95  96  97  97  97  96  96  97  97  98  97  96  95  94  94  93  92  92  92  91  91  91  92  94  95  97  99  99 102 104 107 110 109 109 111 109 107 105 104  98  91  84  76  75  76  75  68  49
  21  20  21  22  23  17  17  33  62  62  63  63  61  56  51  48  45  43  43  43  44  42  42  41  43  42  42  43  44  42  41  41  42  47  54  60  65  71  77  84  88  89  93  96  97  97  97  96  95  95  94  95  96  97  97  97  95  94  95  94  92  93  92  92  93  93  93  92  94  98 100 100 103 104 106 107 108 110 111 110 109 106 102  95  87  80  79  80  80  76  63  33
  22  25  23  23  20  17  17  27  57  63  65  64  63  59  55  51  49  47  45  45  46  46  48  45  46  47  48  49  49  47  47  47  45  44  43  43  46  54  64  71  82  88  92  94  97  97  95  96  95  96  95  95  96  95  95  96  94  94  95  93  93  94  93  93  93  91  92  91  95  98  99 100 103 105 106 107 109 112 113 112 109 106 102  92  81  80  81  82  81  73  54  19
  23  24  22  20  19  16  17  18  47  61  63  63  64  63  59  57  54  53  50  47  47  46  47  47  48  50  50  51  53  53  54  54  54  54  54  51  47  46  53  64  73  83  88  90  94  95  93  95  94  94  94  92  93  92  93  94  93  94  95  93  93  94  93  93  93  93  91  94  96  97  99  96 100 106 106 108 109 111 111 110 108 104  98  86  79  81  80  81  80  70  40  14
  24  21  19  16  16  16  16  16  38  61  62  61  61  62  62  61  58  59  57  52  48  48  48  49  53  55  56  55  57  58  60  61  61  63  65  66  67  67  63  65  70  74  79  84  90  93  94  95  94  95  93  90  86  82  85  91  94  95  95  94  92  94  94  94  94  95  94  95  98  98  98  99 101 105 106 109 109 110 111 109 107 100  91  81  81  82  81  80  77  65  26  14
  21  21  18  16  17  17  13  15  29  58  62  60  60  61  61  60  59  61  60  56  53  50  51  52  53  56  57  56  61  63  64  67  68  68  71  71  72  75  74  72  72  73  74  77  84  88  90  92  94  94  91  87  78  75  82  89  90  91  94  94  94  92  92  92  94  93  92  91  94  97  98 101 104 106 106 107 108 108 109 107 104  96  84  81  81  80  81  78  72  50  16  13
  20  17  15  15  17  15  13  14  21  52  63  65  63  62  61  61  61  63  61  58  57  57  56  55  54  57  59  62  65  67  68  70  72  72  73  75  74  74  76  74  73  74  74  75  82  89  88  89  89  90  89  87  83  80  86  89  90  91  92  94  91  90  92  93  94  93  89  88  92  96  99 101 103 105 106 107 108 109 107 106 100  87  78  79  82  84  81  75  67  33  13  12
  20  17  16  21  19  14  12  13  19  45  64  63  61  60  61  60  61  62  60  57  57  56  55  57  59  62  63  64  66  67  71  74  76  75  74  76  76  77  75  75  75  75  77  76  78  82  85  88  87  89  89  87  84  87  89  89  90  92  93  90  86  89  91  90  91  92  90  90  92  95  97 100  99 103 104 106 108 107 105 104  94  79  77  81  85  84  81  74  56  17  10  14
  20  17  21  24  17  12  12  11  17  42  64  63  62  62  63  61  60  59  56  56  58  56  54  58  59  64  65  66  68  71  72  74  76  78  80  80  78  79  79  78  78  78  78  77  80  81  83  85  85  86  85  85  84  84  85  87  89  89  89  86  84  86  87  89  88  89  90  94  95  97  98  98  99 102 103 106 106 105 101  96  88  80  80  83  84  82  79  69  35  11  11  13
  17  18  23  22  15  15  14  14  16  42  64  65  65  65  64  62  58  58  56  56  59  58  60  62  63  64  66  67  69  73  74  76  76  78  81  82  82  80  81  81  80  81  80  78  80  82  83  85  84  84  85  85  85  84  84  85  87  89  88  87  86  84  85  87  89  89  93  94  94  96  97  97  99  99 100 103 102 100  94  85  81  78  80  82  83  81  76  54  20  11  11  11
  19  24  23  17  14  16  14  13  15  40  65  66  67  66  65  64  61  59  56  55  58  57  61  64  65  64  65  67  68  73  74  77  78  81  80  79  80  79  80  83  81  79  81  81  82  83  85  86  87  86  87  86  84  86  85  86  88  87  86  87  86  84  86  89  89  91  94  94  92  92  93  96  98  98  98  98  96  94  88  81  79  79  81  85  85  81  68  30  14  12  11  11
  26  23  18  15  15  14  12  11  12  37  64  65  66  65  64  63  62  63  62  61  59  59  62  64  64  66  68  71  72  76  77  78  79  81  82  82  81  82  82  82  82  81  83  84  84  87  87  87  88  87  85  86  86  87  85  83  84  86  86  86  84  85  89  90  91  91  91  92  92  92  93  96  97  96  95  94  93  90  84  78  78  81  82  84  84  75  45  17  12  10   9  10
  27  21  16  14  16  13  11  11  13  32  64  66  65  65  64  63  63  65  66  66  63  61  64  66  67  69  72  75  77  79  79  81  80  83  85  85  85  85  84  84  85  83  85  86  87  88  89  89  89  89  88  88  87  87  84  84  85  86  87  86  87  88  88  91  92  90  89  89  91  93  93  94  93  92  91  91  88  84  78  77  80  81  81  81  77  58  23  15  12  11  11  12
  23  17  16  14  13  13   9   9  13  31  63  65  65  63  63  64  65  64  64  63  64  65  65  65  67  69  74  75  78  80  82  84  82  84  87  88  89  87  83  84  87  86  87  86  87  88  89  90  90  90  91  90  89  89  87  87  88  89  88  88  89  88  87  91  90  87  86  85  86  91  91  90  89  87  86  84  83  79  76  80  82  82  81  77  61  29  16  13  13  12  12  14
  19  16  13  12  12  12  10  10  13  28  63  65  63  61  64  65  66  65  63  62  62  64  64  64  66  71  76  77  79  83  86  87  86  87  89  89  89  88  86  88  89  88  89  89  90  91  91  91  91  91  92  91  89  91  91  89  90  90  87  87  88  88  86  86  86  83  81  82  84  88  88  87  85  82  82  79  77  77  79  83  84  80  75  57  32  18  15  12  11  12  12  15
  15  14  12  11  12  10   8  10  13  23  57  62  61  61  64  65  65  65  65  64  61  64  65  66  67  72  77  78  80  85  89  91  92  92  92  90  89  90  89  89  90  89  89  90  92  93  93  92  91  92  91  91  91  91  91  90  90  89  88  86  85  86  86  84  82  81  82  82  82  83  83  82  79  78  78  74  74  78  78  80  80  72  58  37  22  16  14  12  11  13  14  14
  11  12  12  11  10  10   9  10  12  18  46  60  61  59  60  64  64  63  65  64  63  65  66  68  70  74  79  79  80  84  88  91  93  91  91  90  90  89  89  90  89  89  87  88  90  91  92  92  92  92  92  91  92  91  88  88  88  89  88  84  83  82  82  80  80  81  80  80  80  80  78  79  75  73  73  73  77  80  80  77  69  56  43  27  17  16  14  11  10  12  12  13
  12  10   9   8   8   9  10  11  11  11  31  55  58  59  59  63  65  64  64  64  64  65  66  68  69  73  78  81  81  82  86  90  92  93  91  91  91  92  92  91  88  89  88  87  88  90  89  90  89  89  90  90  88  84  82  84  85  85  84  81  80  79  79  77  76  77  76  75  74  76  75  74  72  71  74  79  81  79  74  69  63  47  29  20  16  15  13  13  10  10  12  12
   9   9   9   8   7   7  10  12  10   9  19  44  55  57  58  62  64  65  63  61  61  64  67  69  69  71  74  80  81  82  84  87  88  90  91  91  90  92  90  90  89  88  86  86  85  85  88  88  86  86  88  88  85  81  80  79  77  78  77  76  74  73  73  72  72  72  71  71  71  71  70  70  72  74  79  81  81  75  70  65  54  31  21  17  16  13  12  14  14  15  14  12
   8   8   8   8   9  10  12  10  10   8  12  25  47  53  57  59  61  63  62  60  61  63  65  67  69  71  72  76  80  80  82  86  85  86  87  89  92  90  89  87  86  85  84  83  83  82  83  83  82  83  83  84  81  78  76  74  73  73  73  72  69  66  65  65  66  65  65  66  66  66  69  71  75  79  81  81  76  73  69  52  34  23  19  20  18  14  13  13  15  16  15  11
   8   8   8   7   8  11  10   8   9   8   9  13  23  43  51  55  57  58  60  58  59  60  60  63  65  70  72  73  76  76  77  79  81  82  84  87  88  87  86  84  83  81  80  79  80  79  79  78  76  77  78  75  73  72  72  69  67  67  67  65  62  61  62  62  62  62  63  66  69  70  73  75  78  81  79  75  72  68  54  34  25  19  20  23  22  16  12  15  16  15  15  14
  10   8   8   8  10  11   8   8   9   8   9   9   8  16  33  44  49  51  53  53  55  57  57  59  62  66  67  69  73  73  72  74  75  78  78  80  81  80  81  81  80  76  75  74  74  74  74  73  71  71  70  68  66  64  64  61  61  61  61  62  62  62  63  61  61  64  67  69  72  74  76  79  80  78  74  73  68  58  41  27  23  22  24  25  22  17  15  17  16  16  17  14
  10   9  10   9  11  11  10   9   8   7   7   6   7   7  11  21  32  41  46  47  47  51  54  55  58  63  63  62  69  70  70  71  74  75  73  73  73  72  74  75  74  72  70  68  68  70  67  68  65  64  65  65  63  62  60  59  60  60  62  63  65  66  67  66  67  69  72  74  76  77  78  80  78  75  73  69  59  43  28  22  22  24  26  26  19  17  18  18  17  17  16  15
   9  10  11  10  11  12  11  10   8   8   7   7   5   4   4   7  10  27  45  48  49  49  48  48  50  54  56  58  64  66  65  63  66  70  68  69  68  68  67  68  67  66  64  62  60  60  59  59  59  59  62  63  63  63  62  64  65  65  66  66  67  68  70  70  72  74  74  75  79  78  77  76  75  73  67  57  42  30  23  20  22  26  27  25  20  19  22  19  17  17  16  16
  10  12  12  11  11  11   9   8   7   7   7   5   4   3   4   4   6  23  51  55  56  56  55  52  54  52  51  51  55  56  56  55  57  59  57  59  61  62  62  61  60  57  57  57  57  58  59  60  61  62  62  62  64  65  66  67  68  68  68  68  68  70  72  74  75  75  75  75  76  76  76  74  71  67  57  45  32  26  24  25  26  28  25  24  23  21  20  19  18  17  20  18
  10  11  11  11  10   9   7   4   4   4   4   3   2   3   3   3   5  21  49  57  57  59  60  59  59  55  53  54  52  49  48  48  47  48  48  48  50  52  51  53  56  56  55  55  58  58  58  59  60  61  62  64  65  66  66  67  68  68  70  68  69  72  72  73  74  74  75  76  75  75  74  71  65  59  48  36  28  25  27  26  29  25  24  21  19  20  18  17  17  19  20  14
