P2
92 112
255
 177 106  89  75  61  58  47  27  25  31  45  58  60  56  51  46  39  36  35  38  44  48  51  52  50  49  55  64  68  63  57  61  64  60  60  68  81  85  86  98 117 136 156 149 157 161 144 138 149 164 139 126  95  80  65  58  54  52  51  52  51  51  49  51  56  64  74  90 102 113 109 110 104  93  81  81  88  78  60  47  39  34  33  33  34  35  37  35  34  33  33  33
 173 108  84  69  63  53  33  28  32  36  48  59  61  58  51  45  39  33  36  42  47  48  48  46  43  41  40  44  52  59  63  59  58  61  69  71  74  83  91  96  98 127 150 148 139 129 133 137 158 177 146 128 101  86  68  62  58  56  54  52  49  47  46  46  48  57  72  92  97 101 105 102  93  90  84  70  68  78  84  63  45  38  37  37  38  38  42  41  38  37  35  34
 182 103  77  70  53  33  30  30  35  42  49  55  61  59  49  45  46  39  41  49  45  42  41  40  41  43  42  44  49  58  61  61  64  67  80  91  86  85  86 102 120 126 126 122 115 115 117 124 158 172 153 135 109  96  82  70  68  63  58  56  55  53  51  53  57  66  80  89  85  84  92  97  91  79  77  79  73  63  73  77  67  47  39  35  35  35  34  35  37  41  40  38
 162  96  75  58  38  26  30  25  35  47  50  52  58  57  49  44  52  52  48  48  43  39  38  38  36  37  39  39  49  56  58  62  64  63  72  83  85  84  86  91  99 104 100  97  99 109 126 128 157 179 160 142 118 104  93  78  81  72  66  64  60  56  54  53  54  58  65  76  84  89  91  94  92  84  76  71  74  72  62  69  75  75  50  40  36  37  38  38  74 104  86  70
 158 112  60  43  35  32  30  27  35  48  46  50  57  58  50  48  52  50  45  41  37  32  30  29  28  26  25  24  25  29  39  47  52  50  48  54  55  62  68  70  77  82  83  89  96 106 122 148 170 178 174 150 127 115  98 100  99  88  81  77  71  65  62  59  57  57  60  63  69  77  87  87  82  90  88  71  60  61  67  62  74  78  74  55  42  36  35  39 170 243 233 205
 162  78  44  43  45  41  39  37  40  47  44  48  52  55  51  49  45  41  37  34  30  26  24  23  24  24  24  24  25  26  31  36  39  41  44  47  50  52  55  62  68  72  81  92 106 122 137 166 181 189 196 173 153 131 121 123 120 120 116 111  98  93  86  74  70  71  73  76  75  72  74  84  90  80  69  66  63  54  54  63  63  77  77  73  60  39  33  34 162 253 255 254
  91  56  47  53  53  45  42  43  43  48  50  49  50  50  45  43  39  36  31  26  25  24  22  22  21  22  22  22  27  32  36  39  41  45  48  52  54  55  59  67  77  80  88 103 121 136 163 181 194 213 213 193 180 157 148 144 148 156 165 163 136 124 116 105  94  90  88  85  83  81  72  66  67  79  83  69  59  57  50  51  57  66  78  79  79  64  42  39 173 247 252 254
  84  60  57  60  52  47  47  44  43  47  50  48  47  44  39  34  32  30  25  25  23  19  17  19  22  26  28  32  38  44  49  54  58  59  61  65  67  70  73  81  90  93 101 117 133 146 181 205 223 227 224 207 180 167 160 153 154 171 188 189 175 161 145 135 124 111 100  92  86  86  80  70  65  70  83  78  70  61  56  50  50  56  70  81  79  78  71  88 205 226 246 254
 100  78  62  55  47  48  49  46  45  48  52  47  45  40  34  32  30  26  24  23  18  17  19  22  28  34  39  47  53  57  62  66  70  71  73  76  79  85  89  95 101 110 119 128 143 163 204 212 224 228 223 204 176 173 171 163 165 177 192 195 192 196 178 160 148 132 116 103  96  91  85  77  71  72  80  81  73  67  62  57  49  49  57  72  80  81  89 136 225 246 252 253
  95  82  58  48  44  48  54  54  52  51  51  45  40  35  31  28  25  24  24  19  17  20  26  32  39  48  53  58  63  70  73  77  79  80  85  88  91  95 102 108 114 124 132 139 163 197 218 220 223 224 217 197 192 177 175 175 178 190 212 221 216 214 214 202 181 160 130 117 109  97  94  84  77  73  73  77  74  68  63  63  60  52  51  59  73  84  87 104 193 247 253 254
 100  78  56  46  46  49  52  55  55  51  46  42  35  31  29  25  24  23  22  19  22  27  36  45  52  59  63  69  73  74  78  82  87  89  91  94  99 106 115 125 131 140 150 164 196 216 224 221 226 224 206 197 191 185 175 173 180 186 202 212 207 210 221 223 205 177 157 135 124 108  96  88  83  75  69  70  71  70  66  63  66  62  52  51  62  74  88  90 114 198 247 253
 113  76  58  46  48  51  51  54  52  47  44  37  31  28  27  24  24  23  21  25  33  41  48  56  62  65  70  76  77  79  84  89  93  99 106 113 115 121 131 137 144 160 171 186 200 217 225 230 224 227 213 203 190 191 172 177 179 191 202 213 209 205 206 218 210 184 163 153 139 123 110 101  94  82  73  69  66  68  69  67  68  68  59  48  50  63  77  90  94 119 204 245
 123  73  55  47  49  53  54  51  45  41  38  34  29  25  24  24  24  25  27  34  41  50  57  63  68  71  74  79  82  85  89  97 103 109 115 120 124 130 140 146 153 166 180 194 197 200 208 222 211 219 209 193 184 197 189 190 187 193 195 206 209 203 195 200 203 193 172 166 154 142 129 116 106  96  83  77  70  66  66  67  65  65  69  57  46  54  64  78  91  93 128 219
 108  69  54  47  48  54  55  48  42  37  32  31  26  24  21  23  25  30  35  43  50  57  64  68  71  72  76  81  88  92  96 102 109 115 121 127 130 135 144 150 159 171 175 179 186 190 191 195 196 203 197 177 175 178 182 184 179 182 181 190 198 201 199 194 191 175 169 169 167 161 145 127 118 107  95  88  83  77  68  64  63  60  66  68  52  46  54  64  80  91  95 136
  90  72  53  46  49  55  53  44  40  34  29  25  23  22  19  24  30  36  44  49  57  63  67  70  73  77  80  84  89  94 100 105 111 116 123 129 134 139 142 147 157 166 170 171 173 177 174 169 173 186 185 169 168 159 162 165 165 174 187 192 197 201 205 204 198 189 180 168 167 169 167 153 131 118 107  98  94  87  77  67  63  61  58  64  65  51  48  55  65  84  93  97
  84  83  56  48  52  52  45  40  34  27  25  21  18  21  22  30  37  44  50  57  62  67  71  73  76  78  80  84  89  91  96 103 105 113 116 118 119 124 130 135 140 145 150 159 161 166 168 164 172 174 169 163 162 155 153 148 150 165 178 191 193 192 188 183 184 189 187 178 167 163 165 164 149 134 123 107 102  98  86  76  67  61  55  56  64  61  48  46  57  68  91  97
  85  77  58  53  50  44  39  35  29  22  18  17  19  24  30  39  46  52  57  62  67  69  71  73  74  76  80  81  85  88  93  96  97 102 108 110 111 114 119 124 125 128 133 141 146 141 152 158 159 154 150 148 151 147 145 144 142 142 151 156 172 178 179 170 171 178 170 168 172 171 176 185 173 149 139 131 117 108 101  94  82  68  56  51  52  62  56  48  48  57  72  95
  86  74  58  53  47  40  34  28  24  18  15  17  20  28  38  45  53  60  63  64  67  68  68  73  74  75  77  78  81  84  90  93  95  97 101 105 106 110 112 116 118 121 127 130 132 133 139 150 153 154 149 148 143 138 133 143 149 145 146 148 151 157 165 162 163 172 188 191 189 184 192 206 212 193 170 160 142 126 122 111  94  80  68  54  45  49  61  56  49  48  56  70
  74  68  59  49  41  35  31  25  19  16  18  21  25  37  47  54  58  61  64  66  67  69  69  71  74  74  74  77  80  83  88  92  92  94  96 104 109 112 111 110 110 116 124 127 130 133 133 136 144 146 146 147 142 138 124 133 143 151 150 151 152 151 149 153 161 177 189 207 217 223 217 206 211 212 199 184 180 157 136 130 112  97  81  70  54  44  42  53  51  50  48  56
  73  60  52  43  35  30  26  19  16  17  21  25  34  46  56  61  62  65  65  66  69  69  69  71  72  72  73  73  77  80  82  86  90  91  93  97 101 100 100 100 103 109 116 120 122 129 135 136 137 137 140 143 146 150 138 133 144 153 156 148 143 142 142 148 156 168 188 204 212 219 216 221 216 209 205 200 196 179 161 135 129 111  92  80  67  54  43  42  53  54  48  50
  55  51  42  38  33  27  19  15  18  22  26  34  45  53  60  65  67  66  65  66  67  68  69  69  70  72  74  74  75  74  76  80  84  89  89  90  91  93  93  97  97  97 101 107 114 125 132 135 141 138 133 135 137 141 140 137 135 147 157 146 142 151 159 165 163 162 175 194 192 201 213 215 216 219 215 209 204 195 183 163 142 128 113 102  86  71  59  43  41  50  49  48
  49  46  37  32  27  21  17  17  19  25  34  47  57  63  65  66  66  67  66  65  67  68  68  68  68  69  71  73  74  73  76  80  81  85  86  87  94  96  99 103 104 100 101 103 104 110 117 126 131 132 128 131 135 132 132 141 134 138 142 140 135 142 154 165 164 163 176 184 190 192 201 208 211 214 218 221 215 211 211 196 176 150 130 118 105  93  83  67  51  46  48  51
  46  41  34  29  22  19  18  23  30  37  47  58  62  66  67  68  66  66  66  65  67  69  68  68  66  67  71  73  72  73  74  75  75  79  81  86  92  95  96  97 100  99 100 102 104 109 114 119 124 132 137 135 129 122 123 132 139 141 143 146 146 147 155 161 163 165 170 173 186 192 193 197 204 210 214 219 222 224 221 220 213 192 168 138 118 102  97  83  73  59  48  52
  42  35  31  26  22  19  22  28  36  45  57  64  66  67  70  70  68  68  68  68  69  68  66  67  67  67  70  72  72  72  72  71  72  76  79  83  90  91  90  89  93  96  99 102 103 107 114 119 122 126 132 138 142 137 135 139 145 149 146 145 149 147 153 158 164 180 179 171 172 183 183 183 193 203 211 215 219 223 227 225 224 217 202 182 156 124 115 105  87  76  67  52
  36  31  27  23  22  21  24  35  46  54  62  67  67  69  69  69  68  67  70  71  71  68  67  67  68  67  68  70  71  72  73  74  76  77  79  86  89  93  95  94  96  98 103 109 111 112 114 120 123 125 130 137 143 146 142 142 147 154 158 163 164 160 166 174 170 173 185 183 181 183 187 192 189 192 205 212 216 220 224 229 233 229 225 213 188 165 144 127 109  88  81  74
  34  31  25  20  19  25  33  45  55  61  66  67  67  69  69  68  68  67  69  69  67  67  67  67  67  67  68  68  69  69  72  76  81  85  89  95  98 102 106 104 104 108 111 111 113 116 117 124 131 134 136 142 147 158 157 157 158 168 186 195 197 199 193 188 178 177 184 190 186 189 188 190 194 200 203 205 208 217 220 225 231 233 233 225 206 176 149 134 112  89  82  84
  32  23  17  16  21  30  42  53  61  65  69  68  65  66  67  68  65  64  65  65  64  63  64  67  69  69  70  70  71  71  73  81  89  98 104 105 106 110 113 110 110 112 115 114 114 117 123 129 134 140 144 149 153 160 178 179 184 200 204 212 205 201 193 197 194 185 186 191 188 189 189 186 188 198 204 211 212 215 218 222 226 230 232 231 220 190 161 132 123 100  76  73
  25  18  17  21  28  37  48  57  64  67  71  70  66  66  68  67  66  65  66  66  65  65  66  69  72  73  75  73  75  78  82  93 100 110 115 115 118 122 121 120 117 116 118 119 120 124 127 134 140 150 155 171 174 181 211 223 211 214 217 219 214 215 208 209 210 208 208 202 197 198 195 196 190 188 189 199 203 211 214 218 220 223 226 227 223 210 169 143 128 107  78  69
  19  19  23  26  32  42  53  60  65  68  71  70  67  68  67  66  67  66  66  66  66  67  68  69  72  75  76  79  83  89  96 105 115 122 128 131 130 131 133 135 129 127 126 126 130 135 141 145 149 157 169 186 194 197 202 223 222 217 223 232 237 238 232 228 224 224 220 211 197 196 197 195 191 185 183 183 194 208 213 216 219 220 223 224 222 219 176 150 134 113  82  69
  17  19  24  29  38  47  58  65  67  70  72  69  67  66  66  67  67  66  67  68  68  69  69  70  73  77  80  86  94 103 108 118 123 132 141 144 143 145 140 141 143 138 135 131 139 141 146 151 153 166 174 180 194 206 208 214 222 225 232 238 240 245 247 247 247 241 239 226 218 208 201 197 195 188 181 180 186 199 203 206 210 215 209 213 216 211 187 158 139 117  90  73
  18  20  24  32  42  55  61  67  70  70  70  68  67  67  65  64  65  67  67  67  68  69  70  73  78  83  90  97 106 116 119 123 130 136 139 141 147 155 153 148 155 152 145 136 136 142 144 150 153 158 166 168 187 193 202 208 207 221 224 227 232 243 244 246 250 250 248 242 230 223 216 209 206 199 194 189 186 187 191 195 195 199 201 203 205 202 192 164 138 125  98  76
  23  23  26  34  43  58  66  68  67  67  68  67  67  67  66  65  65  65  67  68  69  70  73  80  86  94  98 103 107 113 119 122 126 133 137 136 139 145 145 140 145 147 143 135 131 136 139 143 148 149 148 139 165 182 185 200 210 204 197 196 213 224 235 237 240 246 245 242 237 228 224 220 213 205 206 203 198 195 195 194 191 192 192 192 193 191 186 173 141 129 107  81
  25  25  26  36  48  61  66  70  70  68  67  67  66  66  65  65  65  66  67  68  71  74  78  83  89  93  96 102 105 105 108 109 114 121 124 125 128 133 136 136 136 139 139 136 133 134 133 134 136 144 153 132 138 157 162 178 179 183 187 183 198 210 216 218 221 231 236 239 235 234 231 227 223 217 213 208 200 196 197 191 188 189 189 189 191 193 179 176 147 132 110  82
  24  23  26  38  51  63  65  68  70  67  67  66  66  64  64  65  66  66  67  68  71  74  76  81  88  90  92  94  97  97  95  98 101 106 110 114 115 119 122 128 129 125 121 125 127 127 122 122 125 128 139 135 129 138 138 149 155 162 173 177 177 188 194 201 202 210 220 231 232 235 236 234 231 225 220 215 209 198 198 191 186 182 186 192 193 190 176 164 145 132 114  88
  22  19  25  39  56  64  65  67  67  65  65  66  66  65  67  67  65  66  67  67  70  73  75  80  82  81  83  86  89  91  89  87  87  88  94 101 103 108 111 113 112 112 108 104 106 109 110 108 113 115 116 115 114 116 119 125 131 142 146 156 155 157 168 176 181 189 196 211 222 229 231 237 238 236 231 225 218 210 204 196 193 190 187 188 188 186 182 163 148 135 122  95
  19  20  27  42  58  65  65  66  66  65  64  64  66  65  67  66  65  66  68  70  72  74  73  74  77  78  77  79  81  81  79  78  77  78  80  85  88  96 100 100  98  96  94  91  88  91  92  93  98  98  99  99 102 102 100 108 114 123 123 129 131 137 142 146 154 163 168 183 192 210 222 226 233 238 237 232 228 220 210 201 195 189 185 185 185 187 179 167 151 137 127 101
  20  19  26  43  59  65  66  66  67  66  64  64  65  67  65  65  66  68  68  69  68  73  73  73  74  73  71  73  73  74  73  73  72  73  71  74  79  83  82  85  86  84  83  82  81  82  83  82  83  83  81  82  84  86  85  90  96 101 106 110 116 119 120 125 134 140 142 148 161 178 194 209 225 231 232 231 230 227 223 208 196 190 183 183 184 189 178 171 155 144 129 108
  19  19  26  46  60  65  66  66  66  65  65  65  67  68  68  65  65  66  65  64  65  66  66  66  68  67  66  68  70  70  72  71  70  69  66  68  71  73  73  76  78  76  76  75  74  75  76  78  77  78  75  76  76  77  78  82  83  84  86  88  92  96  99 100 100 103 115 118 125 138 156 178 197 209 219 226 230 231 232 224 205 189 186 184 180 183 176 167 155 145 129 108
  19  19  27  47  60  66  66  65  65  65  66  67  70  70  67  62  59  58  58  59  62  61  60  59  58  61  62  65  69  69  67  66  65  63  65  66  68  68  68  70  71  71  71  72  71  71  70  73  74  74  74  74  73  70  72  74  73  72  72  70  70  70  75  81  84  87  91  99 105 110 123 140 151 174 193 209 220 229 235 235 223 202 193 188 179 174 175 167 152 145 133 116
  18  16  27  48  61  65  66  66  66  66  69  70  70  68  62  55  50  47  50  51  51  49  50  53  54  52  52  54  59  64  64  63  60  61  63  65  65  66  66  67  67  66  68  65  66  69  66  67  70  72  71  70  68  66  64  62  57  51  48  50  52  53  56  59  62  71  78  83  91  96 101 115 121 131 152 168 180 200 221 231 228 214 202 193 184 170 167 161 152 147 135 120
  18  17  30  50  61  65  65  65  65  65  68  69  67  63  55  46  41  40  40  40  39  38  39  40  42  39  36  35  37  41  45  47  48  52  54  57  58  59  61  63  61  62  64  64  65  67  67  68  69  69  67  65  65  63  57  53  49  46  47  47  47  46  47  49  48  49  58  61  70  81  84  89  97 105 118 132 142 152 174 194 209 208 201 194 179 168 167 160 154 152 141 121
  19  18  32  50  61  64  64  64  66  67  67  63  56  50  47  43  38  34  33  34  35  34  33  31  31  29  29  28  29  31  33  33  35  40  44  47  52  55  56  60  61  60  62  64  65  67  68  70  69  68  66  63  63  60  57  54  52  49  52  50  44  45  49  50  48  48  54  59  63  67  70  75  78  84  93 102 114 127 138 165 177 181 186 191 178 167 165 161 155 153 145 128
  17  19  31  51  61  65  65  62  65  65  60  50  44  43  41  40  37  34  34  33  32  33  33  30  29  28  27  27  26  27  29  29  30  33  38  41  45  48  51  56  59  59  61  64  65  68  69  69  68  69  66  63  64  64  59  56  57  56  55  54  52  53  52  51  52  54  57  60  62  65  67  72  73  76  82  87  95 103 115 134 157 175 177 177 175 173 171 167 159 157 154 133
  16  18  30  51  60  65  64  61  62  59  50  44  40  39  40  40  39  37  36  36  36  37  38  35  34  33  31  29  27  28  28  28  30  34  36  38  40  43  48  52  54  56  60  63  65  66  67  69  71  71  70  67  67  66  63  60  62  62  61  58  55  55  54  52  54  56  55  56  60  62  62  65  67  70  74  77  82  88  96 108 122 143 157 165 168 169 171 170 163 162 160 141
  16  18  28  49  63  66  64  61  58  53  50  44  41  40  41  41  40  40  41  40  41  40  40  40  39  37  37  35  35  34  32  32  34  36  36  36  38  41  44  46  50  56  58  60  64  67  70  73  75  77  77  75  69  66  64  63  62  58  57  54  53  48  44  45  46  46  46  49  51  53  55  56  59  63  67  70  75  82  85  92 105 121 137 153 159 157 167 173 168 166 164 144
  17  19  28  50  66  65  63  58  56  56  53  48  46  44  41  41  40  40  41  39  40  40  39  39  38  38  38  37  33  32  32  33  34  35  34  35  38  40  42  45  49  53  56  59  63  67  72  74  79  86  86  77  68  64  60  59  55  51  48  44  42  37  38  39  39  42  43  44  48  56  59  63  79 103 116 117 118 130 117  98  96 108 124 143 153 152 160 166 166 165 164 145
  19  19  28  51  65  65  63  59  57  55  53  44  43  41  38  37  37  37  38  36  38  36  35  34  33  30  31  28  25  25  25  27  29  29  32  34  36  38  41  43  48  50  55  58  62  67  73  75  82  90  85  75  66  60  53  48  45  40  42  45  51  48  46  45  42  44  48  49  56  65  70  77  83  91  97 100 111 131 134 124 113 104 111 135 150 149 158 165 165 163 161 145
  18  16  25  50  65  63  60  56  51  43  39  35  37  40  39  36  34  32  35  38  38  38  39  37  36  35  33  32  30  28  23  22  23  23  27  31  33  33  38  42  46  49  53  59  63  66  72  74  80  83  79  68  56  47  42  41  40  37  39  41  41  39  37  38  38  38  38  40  43  49  58  68  77  83  88  89  87  79  76  75  77  80  82  94 138 148 155 164 165 159 154 144
  16  17  27  48  63  58  44  39  39  40  40  38  37  35  33  31  33  37  40  41  40  40  38  36  33  31  32  32  30  29  26  24  23  20  20  26  30  30  31  35  40  46  51  56  62  66  69  70  74  77  72  68  72  43  37  33  30  28  28  32  33  33  31  29  25  23  23  27  32  32  37  46  54  59  71  81  89  88  81  79  80  83  86  79  90 147 170 166 157 153 139 115
  21  22  29  45  56  40  37  42  43  41  40  37  34  29  28  32  37  37  36  31  29  24  20  21  20  17  16  17  17  18  20  20  20  19  18  19  30  32  28  31  34  37  38  42  47  52  54  54  56  60  62  81  57  34  29  27  27  27  29  33  32  29  29  27  22  21  23  29  36  36  37  46  50  49  49  60  78  84  82  80  79  82  86  85  64  62 108 108  86  87  76  52
  37  33  31  38  39  34  41  44  43  41  39  36  33  30  35  36  34  30  25  19  18  19  17  17  16  12  11  16  17  16  17  19  18  18  17  20  24  28  27  27  26  25  28  32  35  39  41  42  42  43  46  62  43  33  30  30  31  31  30  32  35  34  32  29  19  17  19  28  39  45  48  60  65  63  53  51  62  72  77  76  78  83  85  87  66  33  63  80  73  71  61  43
  40  36  28  18  19  29  39  42  40  39  37  33  35  34  36  30  24  20  17  19  24  27  24  19  14  12  12  15  17  17  18  22  22  17  16  19  21  24  24  25  27  32  40  46  54  58  62  58  54  57  49  48  41  38  35  32  31  31  32  34  39  41  35  33  28  20  21  27  38  44  56  70  71  68  56  53  63  70  74  76  78  80  84  88  72  30  61  81  74  72  62  48
  39  36  25  11  15  31  42  41  40  38  34  31  33  33  29  21  19  19  24  30  35  33  28  22  18  14  12  12  13  17  19  23  24  18  16  17  20  24  22  24  25  36  50  62  74  76  73  66  54  52  46  41  45  45  38  31  28  28  31  36  40  44  41  35  34  29  26  30  36  48  66  69  63  57  52  56  68  76  75  79  79  81  85  91  75  30  56  85  76  76  94 112
  38  34  24  12  17  32  40  40  38  36  32  29  29  27  24  23  22  24  31  33  37  38  33  26  22  17  14  14  16  19  21  21  22  20  17  19  22  23  19  22  26  45  63  86 107 120  99  76  58  44  39  40  51  50  39  34  30  29  31  36  37  40  42  39  36  32  32  34  40  52  58  55  51  52  55  64  76  81  81  82  84  86  91 102  87  43  88 125 141 152 149 132
  36  35  24  11  16  32  40  38  34  33  31  29  29  27  27  30  28  27  30  30  33  34  34  31  26  22  19  19  21  25  25  23  24  24  21  23  25  24  17  17  31  55  85 118 148 184 146  99  70  46  34  39  53  51  42  38  36  34  35  37  38  39  40  39  37  37  39  41  46  49  51  51  53  60  65  69  80  83  84  87  93 103 117 127  95 117 199 196 195 175 141 132
  42  52  39  40  35  33  41  40  38  34  32  30  29  31  32  32  31  28  28  30  30  32  33  32  31  28  26  25  28  28  26  24  23  23  19  22  24  24  15  19  40  64 102 142 186 234 198 133  88  50  35  38  53  51  43  39  38  37  37  40  43  44  42  41  39  40  41  43  45  48  53  57  61  66  70  74  80  84  86  94 111 125 135 144  96 137 210 206 193 166 139 141
  39  56  48  53  51  35  40  40  39  34  35  33  33  35  37  36  37  32  30  27  29  31  30  30  29  28  28  28  29  26  23  21  21  20  20  21  23  22  17  28  49  66  98 149 200 245 224 165 112  71  43  39  53  51  43  39  39  37  40  45  51  51  46  42  42  44  46  50  51  53  59  61  64  66  69  74  80  88  98 114 133 149 158 163  87 165 210 205 183 150 141 156
  52  57  51  57  55  33  38  40  40  38  36  34  35  38  39  40  40  38  34  33  33  31  29  31  30  29  26  25  28  31  32  27  24  24  24  24  26  22  20  37  54  69 110 157 214 246 232 189 130  86  56  42  54  55  46  41  40  40  44  47  50  48  46  46  46  47  49  54  57  60  62  64  65  69  72  76  84 100 123 137 159 168 181 165  94 191 211 201 175 146 146 166
  63  58  54  60  60  35  39  45  42  40  39  38  38  39  38  39  40  40  38  37  37  35  34  34  32  31  27  25  31  33  35  32  27  27  26  28  28  23  26  49  59  76 124 166 217 248 237 210 159 113  80  49  54  67  58  49  45  44  46  50  52  50  48  49  51  53  54  58  63  63  64  65  69  76  81  88  98 122 150 163 179 195 195 144 118 199 198 187 158 144 154 181
  65  57  54  60  63  42  39  47  47  45  41  39  40  40  40  39  40  39  38  37  38  36  34  33  32  32  30  29  32  32  32  32  30  30  31  33  32  27  37  55  62  89 137 184 232 250 245 226 184 129 100  68  49  71  68  63  56  50  50  50  54  56  54  55  57  58  59  62  65  65  66  68  72  82  93 103 122 147 167 182 199 188 137 102 176 203 194 178 149 146 165 180
  57  46  44  59  65  55  37  44  48  47  45  41  42  45  45  44  41  40  40  40  39  38  37  36  36  36  34  34  34  33  32  33  33  34  34  33  30  32  48  59  71 112 153 202 242 252 250 238 210 147 106  91  53  55  66  73  72  65  61  59  59  59  58  57  60  63  63  64  66  68  71  76  80  87 100 118 139 148 146 141 120 100 121 179 207 196 184 162 146 149 171 173
  48  40  40  55  65  63  50  45  63  67  61  51  47  46  48  47  45  43  42  40  40  40  40  39  39  39  37  37  36  34  34  36  36  37  35  32  30  37  51  58  87 131 165 204 244 252 251 248 226 175 118  97  75  60  62  71  82  90  89  89  86  78  74  72  70  71  71  71  72  74  77  80  82  86  88  93  94  91 100 122 150 178 197 194 193 183 169 152 149 157 170 168
  42  37  44  59  65  65  63  58  62  72  75  74  66  61  57  52  48  47  45  41  40  41  40  40  39  40  37  35  34  34  33  34  33  33  32  34  35  44  51  67 102 137 172 205 246 253 252 242 234 203 134 100  87  75  72  77  83 106 119 117 113 112 107  96  86  86  84  81  76  74  77  73  72  82  96 116 138 161 175 182 182 182 185 184 178 168 153 145 154 163 165 160
  39  40  56  63  66  66  66  64  66  66  60  53  47  44  43  41  38  37  37  35  34  33  34  33  32  32  29  27  30  32  32  33  35  36  36  38  42  51  56  79 115 141 172 207 245 254 253 247 234 214 154 102  91  84  80  84  94 101 107 111 113 120 132 137 129 115 102  93  91  92  96 102 107 118 132 139 146 150 156 160 164 162 165 168 164 153 143 143 157 165 161 150
  37  48  62  64  66  66  67  65  65  65  63  58  55  52  52  52  47  42  40  39  38  37  36  35  36  36  35  36  38  39  39  39  37  39  40  42  47  53  63  92 131 150 173 207 243 253 253 248 235 225 181 117  97  89  89  92 100 108 116 122 126 127 128 137 148 165 164 159 151 137 126 115 114 117 122 125 126 128 132 141 142 147 152 153 149 141 138 143 156 164 154 140
  36  54  65  64  65  66  66  65  63  62  62  60  58  55  55  56  55  50  46  44  45  44  42  40  40  42  39  40  40  40  40  40  39  41  44  47  48  53  73 106 135 153 175 209 237 251 252 246 236 225 197 134 101  96 101 105 106 106 112 121 130 134 132 129 134 140 149 165 175 184 185 176 160 136 124 120 117 118 119 127 128 131 134 141 143 135 135 141 151 154 148 133
  35  49  63  63  65  66  65  65  63  61  61  60  58  57  56  56  54  52  49  47  46  45  46  44  45  46  45  44  42  40  40  40  41  43  44  46  48  55  84 113 132 144 163 193 219 244 247 241 231 223 207 152 106  99 106 109 107 107 107 112 115 116 119 123 124 124 127 132 135 145 158 171 183 181 165 141 124 117 120 121 121 123 124 130 131 129 133 143 145 145 141 130
  37  43  62  64  65  65  65  65  64  61  58  57  57  56  57  56  54  51  50  51  50  48  47  46  46  46  44  45  41  42  42  43  45  44  43  46  47  58  87 106 117 128 144 167 192 227 232 230 228 225 214 162 111 103 109 110 108 108 108 108 109 105 105 107 110 110 109 111 117 124 129 132 138 144 151 155 143 124 121 120 117 118 117 120 121 123 129 142 143 142 139 132
  38  40  58  63  64  64  63  62  63  61  57  55  56  56  56  58  58  55  54  54  53  51  49  47  48  47  47  45  44  44  44  44  46  46  46  47  50  63  80  93 103 113 126 145 169 186 210 217 222 219 214 188 138 114 109 107 107 106 107 106 109 106 102  99  98  99  98  98 101 107 114 117 120 122 121 127 128 119 119 121 118 114 113 115 117 123 132 139 139 137 135 130
  44  41  54  61  61  65  63  60  59  58  58  57  57  58  60  61  61  58  55  52  53  52  50  48  48  49  49  47  45  46  46  45  46  45  46  51  58  64  71  80  89  96 104 119 141 166 186 202 215 217 216 217 202 155 126 107 103 102 104 104 106 108 105 100  97  94  93  95  97  99 102 106 109 109 107 105 107 109 110 114 111 109 110 112 116 120 128 132 132 133 131 128
  53  45  52  56  59  61  62  59  58  57  57  57  58  64  64  62  59  56  55  53  52  50  49  48  47  49  49  46  46  47  46  45  45  43  53  65  65  64  65  68  73  78  86  97 118 138 167 186 207 212 221 231 234 220 185 135 103  99 101 102 103 105 105 101  96  90  89  91  92  94  95  97 100  98  96  95  96  98 103 104 105 106 108 111 114 118 121 126 129 131 131 125
  60  54  56  52  55  59  60  59  59  58  56  57  59  66  65  62  58  56  56  53  51  48  47  48  47  47  45  46  48  46  44  42  42  49  67  71  65  62  61  61  61  65  71  78  91 108 132 152 174 186 204 221 223 219 210 170 120  96  96  96  98 102 103  98  92  89  89  90  91  94  91  90  92  91  91  90  91  92  97  99 101 103 105 110 113 116 117 122 128 132 131 121
  60  55  55  49  50  56  59  60  59  55  54  55  59  63  60  56  55  54  53  53  51  48  48  49  47  48  47  46  46  47  46  44  43  55  65  63  59  56  55  56  56  61  63  68  75  84 100 120 127 136 151 165 173 170 164 157 137  97  92  89  90  94  96  92  89  89  89  89  90  93  92  89  89  89  88  89  90  90  95  97  99 100 102 107 109 113 117 122 128 133 128 115
  50  53  54  50  46  53  58  60  57  52  54  56  56  57  55  52  51  50  50  52  53  50  49  50  49  48  49  45  47  46  45  44  45  52  54  55  53  50  48  49  54  57  60  62  67  73  85  94  95  99 104 108 112 102 103 115 122 101  90  87  87  89  91  92  91  89  89  90  90  91  91  89  88  87  84  85  86  88  94  96  98  98  98 102 107 111 117 124 131 135 127 111
  37  54  55  52  50  54  59  58  57  54  53  53  53  55  52  50  50  50  51  51  51  49  50  50  50  50  50  45  45  45  41  42  43  46  46  44  42  43  42  45  50  53  55  57  61  67  76  85  88  84  72  49  43  54  68  85 103  98  92  88  85  88  88  90  91  89  89  88  88  89  90  89  89  87  87  87  85  88  91  96  96  97 101 103 108 112 116 124 132 134 122 103
  28  53  58  55  51  51  57  58  56  55  54  54  54  53  50  48  48  48  50  48  50  50  51  51  49  49  49  48  45  43  41  41  43  43  39  30  23  22  27  37  44  47  49  53  55  63  71  76  68  43  25  23  29  37  54  73  91  91  91  90  87  87  87  89  92  89  89  88  88  89  91  90  89  88  89  89  88  90  93  95  96  98 101 103 106 112 118 124 133 136 116  83
  28  54  58  55  49  46  56  58  56  56  53  52  50  50  49  47  48  47  48  47  51  51  49  49  48  48  48  46  45  45  42  42  44  43  38  30  24  22  21  24  37  43  47  51  56  59  70  72  60  48  43  43  43  47  59  73  86  88  91  95  93  89  86  86  87  89  89  89  92  91  92  91  90  89  89  89  89  90  92  93  93  94  99 103 104 111 116 125 138 136  99  61
  21  50  54  50  46  42  51  59  57  54  51  48  47  47  45  46  47  46  46  47  51  49  48  48  48  48  48  45  45  46  46  45  44  41  38  34  31  29  29  33  38  40  44  48  55  63  71  73  69  65  60  57  54  57  67  79  86  89  94  97  97  95  90  88  90  91  90  90  94  95  94  91  90  90  90  89  90  94  96  95  91  87  96 103 106 111 117 127 139 134  67  36
  18  38  48  45  42  39  48  58  58  53  51  48  48  47  47  47  47  48  48  47  48  49  49  48  46  47  47  46  46  45  46  47  46  44  41  37  35  34  35  38  38  38  42  47  55  62  68  71  71  69  68  66  65  71  80  88  90  93  96  99 103 101  98  94  95  96  97  97  96  96  97  97  97  98  97  95  93  95  96  96  91  89  97 102 105 111 118 127 140 128  38  22
  13  21  35  39  37  33  41  59  57  53  49  48  47  48  48  48  49  48  46  47  47  49  48  46  47  45  45  45  46  46  46  47  48  46  46  41  40  40  40  42  41  41  42  44  53  60  65  73  75  79  78  78  80  84  90  93  95  98 100 104 106 107 106 104 102 101 104 103  99  98 100 100 101 100 100  98  95  96  96  95  94  96  98 100 103 110 117 130 141 111  21  18
  11  12  17  23  23  20  29  55  56  53  53  50  46  47  47  49  49  48  47  47  49  49  48  47  47  45  46  46  47  48  48  51  51  50  47  46  46  46  44  46  47  46  44  45  51  56  60  68  76  81  83  86  88  91  95  96  99 100 101 106 111 115 118 117 114 111 110 107 105 102 100 100 102 103 103 103  99  97  96  95  96  99  99  99 105 111 121 134 146  96  16  16
  12  11  11   9   9   9  20  53  57  56  54  49  47  45  48  50  49  47  48  48  51  51  49  49  49  48  48  48  48  48  49  51  51  49  48  48  49  47  45  47  49  48  47  47  48  52  55  60  70  78  82  87  91  94  97  97  97  99 100 105 113 121 126 127 124 121 117 112 107 103 101 104 105 105 105 105 103  99  97  97  97  99 100 102 105 112 122 136 144  73  18  18
  12  11  10   9   9   9  19  53  59  58  54  52  51  49  50  49  48  47  48  47  49  49  49  48  49  50  48  49  49  49  49  50  52  50  49  48  49  49  48  48  50  50  50  49  49  50  53  55  62  72  80  84  91  96  99  99  96  97 101 107 113 121 126 130 134 132 125 118 110 105 102 104 105 105 105 105 104 103 101  98  97  98 101 104 105 111 120 135 142  56  17  20
  12  11  10   9   9  10  17  48  59  57  55  52  52  51  50  48  47  47  48  48  50  49  49  51  50  50  50  49  50  52  53  51  52  51  48  49  51  50  48  50  51  52  52  50  51  52  50  53  59  68  77  83  91  97 101 101 100 101 104 110 114 119 123 127 137 139 131 124 113 106 104 105 106 105 106 107 106 104 103 101  99  99 101 105 107 110 124 137 141  50  14  17
  13  11  10   8   7   8  12  42  59  57  54  52  52  52  50  48  49  47  47  47  48  51  52  51  50  49  52  53  51  53  53  52  52  51  48  49  51  51  49  51  52  55  55  53  52  52  50  53  57  65  72  81  90  98 100 102 103 104 105 111 114 114 120 123 128 133 129 123 113 107 106 105 106 106 107 107 107 105 102 102  99 100 102 105 107 111 124 138 139  45  16  17
  11  10  10   9   9   7  11  37  58  56  54  51  53  53  51  49  48  48  49  49  51  52  52  49  50  52  51  50  51  51  49  49  52  51  49  48  50  52  49  48  50  53  56  55  55  53  54  56  59  62  68  71  78  91  94  97 101 102 104 107 111 109 114 116 118 124 124 123 117 112 107 105 106 107 107 107 105 104 103 101 100 102 102 105 108 112 123 137 134  38  16  20
  12  11   9   9  10   9  13  32  56  56  55  55  54  49  50  51  48  49  49  50  54  52  53  52  53  55  52  48  50  49  47  50  53  52  52  49  48  48  48  46  46  48  51  50  53  56  56  56  56  58  59  58  62  70  76  81  85  89  94  98 101  98 100 104 106 113 119 121 116 111 106 104 105 106 106 106 104 104 104 102 101 102 102 104 109 115 124 135 128  33  17  20
  11  10  10  10  10   9  10  22  53  57  55  53  55  50  52  53  51  52  51  51  53  52  52  53  54  55  54  49  47  48  48  49  48  48  46  44  42  38  38  39  39  40  41  44  47  47  48  49  52  50  50  50  50  53  55  57  59  64  71  79  85  83  82  87  92  99 107 114 113 109 105 104 104 105 105 106 104 104 102 104 103 104 104 104 107 115 128 134 116  29  16  21
   9   8   9  10  10  11  10  17  51  56  57  55  54  52  52  52  49  49  52  53  54  52  52  54  55  55  52  47  45  44  44  43  42  41  36  33  30  28  30  32  32  32  33  36  37  40  40  44  44  43  42  42  44  43  41  42  40  39  45  53  61  66  69  73  78  85  92 101 107 108 106 104 102 101 100 103 105 103 100 102 101 103 104 101 106 114 126 133 101  22  16  19
   8   8   9   9  10  10   9  13  47  59  57  54  52  52  52  51  52  52  49  53  56  54  53  53  54  53  51  49  46  43  39  37  35  30  26  20  21  22  23  25  26  26  24  26  28  31  33  33  31  31  33  32  32  34  35  38  38  36  38  39  41  44  51  58  67  75  83  92 100 104 105 101  99  94  91 101 106 104 103 103 104 104 104 103 106 114 120 129  85  22  17  21
  10   8   8   8   7   8   9  11  38  59  56  54  53  54  54  52  51  53  51  53  54  53  53  51  52  53  51  45  42  36  32  28  24  23  20  19  21  24  24  27  28  26  23  24  25  27  29  30  29  33  36  35  40  42  42  46  48  48  50  46  42  43  47  51  61  68  76  85  93  96  99 102 100  95  93 101 104 102 101  99 103 103 103 105 110 114 119 124  58  18  16  22
  10   8   8   8   9   8   7   9  29  53  57  57  54  54  55  51  51  51  53  53  54  52  53  51  50  49  47  42  40  35  32  29  29  29  28  29  31  32  31  30  32  31  29  30  33  32  33  36  36  37  40  41  43  45  48  54  57  57  63  65  64  65  63  63  64  66  72  79  87  91  95  99  99  97  97  99 101 100  95  95  99 100 102 106 109 113 119 113  35  15  15  23
   9   8   7   8   8   7   7   8  20  47  54  53  53  53  53  53  52  50  51  53  53  53  52  53  51  47  43  40  37  38  40  42  40  38  36  34  33  33  32  33  35  32  32  34  36  35  37  40  40  39  40  42  47  49  52  58  61  63  68  72  74  73  72  70  66  68  71  77  84  89  92  95  97  97  98  99  97  98  95  96  98  99 102 105 107 110 115  90  21  14  16  23
   8   8   6   6   6   5   6   8  11  35  51  52  52  52  51  53  52  50  50  50  51  54  50  49  48  47  42  40  40  41  43  45  44  43  40  39  37  37  36  35  35  34  35  37  40  38  39  40  40  40  41  43  46  52  56  59  61  65  72  75  75  73  72  72  73  71  72  76  81  87  89  95  95  96  97  99  98  97  96  95  98 101 104 106 105 110 112  60  18  15  15  24
   8   8   8   8   6   6   7   7  10  23  49  49  48  49  51  52  53  50  48  49  48  48  48  48  47  46  44  41  44  44  45  46  45  42  42  43  39  37  36  36  37  38  39  39  39  38  38  39  39  39  41  43  47  49  53  60  64  68  74  76  77  74  73  74  74  73  75  78  82  85  90  92  93  94  97  97  97  96  96  95  98 102 105 105 105 108  97  32  15  15  17  29
   8   8   8   8   6   5   6   7   9  13  38  48  47  48  49  49  49  50  51  50  47  45  47  48  47  46  46  43  45  47  45  44  45  46  48  46  45  42  41  42  43  44  43  43  41  40  40  40  41  42  45  47  49  53  55  59  65  69  74  76  77  77  76  75  78  80  80  81  84  88  92  94  94  96  97  97  95  95  95  97 100 100 101 103 105 103  65  19  11  13  22  32
   8   9   8   7   7   4   4   6   8   9  21  46  47  47  49  48  48  48  48  48  46  43  45  46  47  47  46  45  47  48  46  45  46  48  48  48  47  47  46  46  46  47  46  45  45  43  43  42  45  47  47  51  54  56  58  60  65  70  73  75  76  76  79  79  79  81  83  84  87  90  94  96  96  96  96  97  96  96  97  97 100  97  94  97 101  87  31  15  13  19  31  39
  11  11   8   6   6   4   4   6   8   8  14  35  45  44  45  47  47  48  48  47  45  43  45  46  47  46  46  45  45  47  47  47  47  46  47  47  47  47  47  47  47  47  48  47  45  46  46  46  48  50  52  54  56  58  59  63  65  71  73  76  77  76  78  79  80  82  83  87  89  93  95  96 100  98  95  96  96  97  97  96  96  93  92  95  94  55  16  14  17  31  42  49
  11   9   6   5   6   5   4   5   6   8   9  18  37  43  42  43  45  45  46  46  47  46  46  46  45  44  45  45  44  45  46  47  46  46  47  47  47  47  47  47  47  48  48  48  47  46  47  46  49  54  57  58  59  60  62  64  69  73  77  80  81  81  80  81  82  86  86  89  92  95  96  98 100 101 100  99  98  97  96  93  93  92  94  92  71  29  15  17  31  49  50  60
   9   8   7   6   6   5   3   4   5   7   8   9  21  38  38  37  41  41  44  46  47  47  44  45  46  46  46  47  46  47  48  47  45  47  47  47  48  49  47  47  46  48  49  48  48  48  48  49  51  54  58  60  60  61  64  66  71  74  80  83  85  84  85  86  88  89  90  92  94  97 100 102 101 102 101 100  97  96  96  91  90  90  89  79  49  28  21  33  56  66  73  74
  10   8   7   6   5   4   4   5   5   5   6   7   8  24  33  33  36  40  42  44  44  45  45  45  46  48  47  47  48  48  47  46  46  48  47  46  48  48  45  47  47  47  47  48  49  49  50  52  55  58  60  62  62  64  68  71  75  80  82  87  89  88  88  89  90  91  94  98  99 100 104 102 102 102 102 101  99  95  93  90  86  82  74  56  42  31  36  60  83  91  88  76
   8   9   7   6   4   4   4   4   4   5   7   7   7  12  25  31  34  37  43  45  44  44  46  45  46  48  46  45  47  47  47  48  49  50  49  47  49  51  49  49  49  49  49  50  49  50  52  53  55  57  62  64  66  71  74  79  81  85  88  90  97  96  94  95  95  96  99 101 102 104 105 104 104 102 101  99  95  90  88  83  77  66  47  45  39  43  67  85  88  84  76  62
   8  10   7   4   4   4   4   4   5   5   6   7   7   9  18  27  32  34  39  41  44  44  45  45  44  45  46  47  47  46  46  47  49  50  50  50  52  53  52  53  54  55  53  54  53  52  54  54  54  54  60  64  68  74  77  81  87  90  96  99 103 103 103 101  99 101 103 104 105 104 105 104 103  99  96  92  88  84  79  70  57  42  39  45  46  56  60  58  68  64  56  47
   7   7   5   3   4   3   3   4   4   4   4   5   7   9  14  23  30  32  34  39  42  41  41  43  44  44  47  48  47  46  47  49  49  50  50  50  51  52  52  54  55  54  54  57  58  57  56  55  56  56  59  61  66  72  74  80  88  94 102 105 107 108 107 105 105 105 105 105 104 102 102 100  97  94  89  86  80  71  65  52  39  33  37  41  42  36  32  46  54  51  46  56
   8   7   6   4   5   4   4   4   4   4   3   4   6   9  11  19  26  31  32  34  36  38  40  40  42  45  47  48  47  47  49  50  52  51  50  51  52  52  53  53  54  54  56  59  60  60  58  58  56  57  58  58  63  71  76  80  87  95 105 108 108 110 110 109 109 108 105 103 101  99  98  95  91  88  81  74  68  58  48  36  31  29  32  32  28  28  35  44  47  45  50  68
   7   7   7   5   5   4   4   3   3   3   3   3   5   8  12  17  23  27  32  32  32  33  36  37  40  44  46  48  48  48  51  52  53  50  48  48  50  50  50  51  53  55  56  56  58  57  60  58  56  56  59  60  65  70  76  81  87  92  99 107 109 111 113 113 111 109 105 101  97  96  92  89  83  78  72  67  58  44  35  28  26  26  28  27  24  31  39  44  45  46  53  47
   8   8   7   5   5   4   4   2   2   4   4   4   4   7  10  15  20  26  33  33  33  31  32  34  39  41  44  46  48  50  50  52  52  49  49  49  48  47  48  49  50  51  52  54  58  60  61  56  55  58  61  64  68  70  74  80  86  92  96 103 104 107 111 111 107 104 101  97  93  90  86  81  73  69  65  59  47  36  31  26  25  27  25  24  27  33  41  49  51  48  36  29
   8   8   7   6   5   4   4   2   4   3   3   3   4   6   8  12  17  25  32  32  32  32  31  28  33  37  40  42  45  47  48  49  49  47  48  49  48  48  47  47  48  50  51  53  57  59  60  56  54  56  59  64  67  68  69  74  80  87  90  94  98 100 102 103 101  98  96  90  86  83  75  69  65  64  56  47  37  30  25  24  25  25  25  26  30  34  43  50  53  40  25  30
   9   8   8   8   8   6   6   5   5   3   3   3   3   6   9  10  14  20  27  30  31  32  31  31  30  32  36  39  41  44  46  49  48  47  47  47  47  46  47  46  46  48  49  51  53  55  56  55  53  55  57  60  62  65  67  69  75  80  83  86  91  92  93  95  94  92  88  83  79  74  68  65  63  58  46  37  28  22  21  24  24  24  24  30  33  37  46  53  51  33  27  50
  10   9   7   7   7   6   5   5   5   4   4   3   3   5   7  10  11  16  24  27  30  31  32  31  30  29  30  36  39  40  42  46  46  46  48  47  46  45  45  46  46  47  49  52  53  52  53  53  54  55  55  57  59  60  64  66  71  76  80  78  82  85  87  88  87  84  78  74  72  68  66  64  57  47  37  30  22  23  22  24  25  24  24  30  33  37  49  51  43  32  37  49
  11   9   7   7   6   5   5   5   4   4   4   3   4   4   6   9  11  14  18  25  31  32  32  31  31  31  29  29  33  36  38  42  44  42  43  44  45  44  43  41  42  46  47  50  52  54  53  50  50  52  53  54  56  57  62  63  65  71  74  75  77  79  79  80  79  73  71  69  67  65  62  57  47  35  26  20  21  24  24  24  25  27  28  31  32  39  51  49  42  34  38  41
  10   8   7   7   7   4   2   3   3   2   2   2   2   3   5   8  11  14  17  22  28  32  32  31  31  32  28  26  27  29  34  38  40  40  39  39  39  40  40  40  43  44  42  45  49  51  51  48  49  49  48  48  53  55  58  59  59  62  65  67  70  71  72  72  70  67  68  67  65  63  55  45  33  23  19  19  22  25  27  25  25  26  27  29  33  44  53  47  41  36  44  44
